M48
; DRILL file KiCad 10.0.6 date 2026-09-03T18:11:55
; FORMAT={-:-/ absolute / metric / decimal}
; #@! TF.CreationDate,2026-09-03T18:11:55-04:00
; #@! TF.GenerationSoftware,Kicad,Pcbnew,10.0.6
; #@! TF.FileFunction,Plated,1,4,PTH
FMAT,2
METRIC
; #@! TA.AperFunction,Plated,PTH,ViaDrill
T1C0.300
; #@! TA.AperFunction,Plated,PTH,ComponentDrill
T2C0.600
; #@! TA.AperFunction,Plated,PTH,ComponentDrill
T3C0.700
; #@! TA.AperFunction,Plated,PTH,ComponentDrill
T4C0.800
; #@! TA.AperFunction,Plated,PTH,ComponentDrill
T5C0.940
; #@! TA.AperFunction,Plated,PTH,ComponentDrill
T6C1.000
; #@! TA.AperFunction,Plated,PTH,ComponentDrill
T7C1.200
; #@! TA.AperFunction,Plated,PTH,ComponentDrill
T8C1.300
; #@! TA.AperFunction,Plated,PTH,ComponentDrill
T9C4.300
%
G90
G05
T1
X152.224Y-117.781
X152.224Y-135.281
X152.476Y-132.69
X153.37Y-137.262
X153.37Y-139.338
X153.428Y-147.523
X153.49Y-149.708
X153.494Y-135.281
X153.51Y-141.167
X153.51Y-144.292
X153.67Y-133.274
X154.764Y-135.281
X155.0Y-133.9
X155.499Y-137.316
X155.499Y-139.391
X156.18Y-141.188
X156.18Y-144.312
X156.553Y-147.523
X156.694Y-126.786
X156.694Y-128.036
X156.694Y-129.286
X157.0Y-139.0
X157.304Y-135.281
X157.6Y-136.6
X157.944Y-126.786
X157.944Y-128.036
X157.944Y-129.286
X158.547Y-149.026
X159.0Y-140.125
X159.0Y-143.875
X159.194Y-126.786
X159.194Y-128.036
X159.194Y-129.286
X160.2Y-128.0
X162.22Y-86.43
X162.384Y-117.781
X163.6Y-128.9
X163.654Y-117.781
X164.287Y-150.368
X164.565Y-159.614
X164.924Y-117.781
X164.938Y-146.025
X165.0Y-140.125
X165.0Y-143.875
X165.03Y-152.855
X165.1Y-133.0
X165.6Y-122.6
X166.03Y-152.855
X167.464Y-135.281
X168.173Y-145.44
X168.734Y-135.281
X169.482Y-104.44
X169.889Y-137.449
X170.207Y-140.929
X170.207Y-150.229
X170.5Y-117.7
X171.159Y-137.449
X171.4Y-128.4
X171.476Y-140.929
X171.558Y-104.44
X171.8Y-119.9
X172.2Y-142.5
X172.362Y-110.111
X172.5Y-111.7
X172.6Y-127.1
X172.661Y-137.959
X173.2Y-135.3
X174.016Y-150.229
X174.062Y-133.367
X174.1Y-134.4
X174.133Y-93.01
X174.157Y-90.8
X174.365Y-96.155
X174.365Y-97.425
X174.365Y-98.695
X174.56Y-127.86
X174.56Y-128.65
X174.56Y-130.23
X174.56Y-131.02
X174.56Y-131.81
X174.56Y-132.6
X174.736Y-137.959
X175.156Y-124.765
X176.08Y-127.86
X176.08Y-128.65
X176.08Y-131.02
X176.08Y-132.6
X176.176Y-124.765
X176.582Y-133.378
X176.9Y-140.2
X177.0Y-124.2
X177.312Y-108.841
X178.188Y-81.456
X178.6Y-138.2
X178.671Y-92.628
X178.671Y-100.328
X178.671Y-101.428
X178.748Y-82.163
X179.262Y-81.456
X179.366Y-108.014
X179.4Y-128.09
X179.426Y-132.053
X179.426Y-133.073
X179.73Y-75.438
X179.832Y-82.16
X180.238Y-74.93
X180.315Y-81.474
X180.365Y-150.216
X180.615Y-102.616
X180.696Y-100.076
X180.7Y-138.9
X180.7Y-140.1
X180.772Y-101.067
X181.0Y-118.0
X181.0Y-119.2
X181.0Y-120.2
X181.477Y-108.05
X181.636Y-150.229
X181.7Y-117.6
X181.8Y-138.9
X182.0Y-140.1
X182.4Y-134.3
X182.626Y-86.868
X182.626Y-89.154
X182.677Y-88.087
X182.7Y-112.3
X182.906Y-140.929
X182.906Y-150.229
X183.181Y-94.894
X183.232Y-92.761
X183.794Y-74.06
X183.857Y-75.946
X183.896Y-87.63
X183.896Y-88.646
X184.177Y-150.229
X184.302Y-74.93
X184.5Y-112.3
X185.064Y-74.168
X185.127Y-75.946
X185.191Y-88.163
X185.3Y-112.0
X185.446Y-140.929
X185.826Y-74.93
X186.0Y-135.4
X186.144Y-90.348
X186.274Y-136.689
X186.334Y-74.168
X186.334Y-75.946
X186.716Y-152.796
X186.716Y-154.871
X186.716Y-156.606
X186.716Y-158.681
X187.148Y-88.049
X187.148Y-90.349
X188.14Y-90.348
X188.3Y-133.1
X188.9Y-142.7
X189.0Y-141.9
X189.8Y-131.6
X189.9Y-141.9
X189.992Y-88.684
X191.1Y-130.3
X192.2Y-132.6
X192.532Y-87.651
X193.0Y-112.0
X193.0Y-113.2
X193.2Y-132.4
X194.0Y-131.0
X195.6Y-89.4
X195.8Y-112.6
X197.6Y-112.6
X197.9Y-89.5
X199.054Y-98.784
X199.054Y-117.954
X199.054Y-137.004
X199.054Y-156.054
X202.654Y-90.984
X202.654Y-94.784
X202.654Y-110.154
X202.654Y-113.954
X202.654Y-129.204
X202.654Y-133.004
X202.654Y-148.254
X202.654Y-152.054
X202.754Y-85.884
X202.754Y-88.884
X202.754Y-105.054
X202.754Y-108.054
X202.754Y-124.104
X202.754Y-127.104
X202.754Y-143.154
X202.754Y-146.154
X202.759Y-82.864
X202.816Y-103.254
X202.816Y-122.304
X202.816Y-141.354
X203.954Y-90.984
X203.954Y-110.154
X203.954Y-129.204
X203.954Y-148.254
X204.664Y-89.749
X204.664Y-108.919
X204.664Y-127.969
X204.664Y-147.019
X205.054Y-86.984
X205.054Y-106.154
X205.054Y-125.204
X205.054Y-144.254
X205.254Y-93.184
X205.254Y-112.354
X205.254Y-131.404
X205.254Y-150.454
X205.654Y-85.184
X205.654Y-104.354
X205.654Y-123.404
X205.654Y-142.454
X207.454Y-95.884
X207.454Y-115.054
X207.454Y-134.104
X207.454Y-153.154
X209.454Y-87.584
X209.454Y-106.754
X209.454Y-125.804
X209.454Y-144.854
X210.379Y-89.531
X210.379Y-91.436
X210.379Y-108.581
X210.379Y-110.486
X210.379Y-127.631
X210.379Y-129.536
X210.379Y-146.681
X210.379Y-148.587
X210.654Y-95.184
X210.654Y-114.354
X210.654Y-133.404
X210.654Y-152.454
X211.014Y-90.484
X211.014Y-109.534
X211.014Y-128.584
X211.014Y-147.634
X211.054Y-98.184
X211.054Y-117.354
X211.054Y-136.404
X211.054Y-155.454
X211.154Y-94.484
X211.154Y-113.654
X211.154Y-132.704
X211.154Y-151.754
X211.649Y-89.531
X211.649Y-91.436
X211.649Y-108.581
X211.649Y-110.486
X211.649Y-127.631
X211.649Y-129.536
X211.649Y-146.681
X211.649Y-148.587
X211.754Y-83.884
X211.754Y-103.054
X211.754Y-122.104
X211.754Y-141.154
X211.836Y-76.708
X212.054Y-82.884
X212.054Y-102.054
X212.054Y-121.104
X212.054Y-140.154
X212.254Y-90.484
X212.254Y-109.534
X212.254Y-128.584
X212.254Y-147.634
X212.354Y-84.484
X212.354Y-103.654
X212.354Y-122.704
X212.354Y-141.754
X212.579Y-94.484
X212.579Y-113.654
X212.579Y-132.704
X212.579Y-151.754
X212.598Y-74.422
X212.754Y-85.484
X212.754Y-104.654
X212.754Y-123.704
X212.754Y-142.754
X212.852Y-72.39
X212.919Y-89.531
X212.919Y-91.436
X212.919Y-108.581
X212.919Y-110.486
X212.919Y-127.631
X212.919Y-129.536
X212.919Y-146.681
X212.919Y-148.587
X212.954Y-83.284
X212.954Y-102.454
X212.954Y-121.504
X212.954Y-140.554
X213.248Y-163.87
X213.254Y-86.184
X213.254Y-105.354
X213.254Y-124.404
X213.254Y-143.454
X213.554Y-90.484
X213.554Y-109.534
X213.554Y-128.584
X213.554Y-147.634
X213.954Y-102.454
X213.954Y-121.504
X213.954Y-140.554
X213.962Y-82.979
X214.054Y-101.154
X214.054Y-120.204
X214.054Y-139.254
X214.189Y-89.531
X214.189Y-91.436
X214.189Y-108.581
X214.189Y-110.486
X214.189Y-127.631
X214.189Y-129.536
X214.189Y-146.681
X214.189Y-148.587
X214.504Y-77.645
X214.884Y-72.898
X214.884Y-74.676
X215.231Y-82.979
X215.266Y-77.645
X216.654Y-83.684
X216.654Y-84.584
X216.654Y-102.854
X216.654Y-103.754
X216.654Y-121.904
X216.654Y-122.804
X216.654Y-140.954
X216.654Y-141.854
X216.916Y-73.152
X217.354Y-100.554
X217.354Y-101.654
X217.354Y-119.604
X217.354Y-120.704
X217.354Y-138.654
X217.354Y-139.754
X217.772Y-81.455
X218.948Y-72.136
X219.803Y-83.487
X220.819Y-82.471
X221.835Y-83.741
X223.52Y-72.39
X223.613Y-82.217
X223.867Y-83.995
X225.137Y-79.677
X225.552Y-73.152
X225.552Y-74.676
X225.645Y-81.201
X225.645Y-83.995
X226.06Y-78.486
T2
X154.001Y-77.47
X154.001Y-160.02
X154.946Y-75.19
X154.946Y-79.75
X154.946Y-157.74
X154.946Y-162.3
X157.226Y-74.245
X157.226Y-80.695
X157.226Y-156.795
X157.226Y-163.245
X159.506Y-75.19
X159.506Y-79.75
X159.506Y-157.74
X159.506Y-162.3
X160.451Y-77.47
X160.451Y-160.02
X217.501Y-77.47
X217.501Y-160.02
X218.446Y-75.19
X218.446Y-79.75
X218.446Y-157.74
X218.446Y-162.3
X220.726Y-74.245
X220.726Y-80.695
X220.726Y-156.795
X220.726Y-163.245
X223.006Y-75.19
X223.006Y-79.75
X223.006Y-157.74
X223.006Y-162.3
X223.951Y-77.47
X223.951Y-160.02
T3
X173.17Y-128.24
X173.17Y-133.04
X177.47Y-128.24
X177.47Y-133.04
T4
X169.137Y-107.316
X169.137Y-109.856
T5
X157.226Y-87.879
X157.226Y-89.911
X157.226Y-91.943
X157.226Y-93.975
X157.226Y-103.629
X157.226Y-105.661
X157.226Y-107.693
X157.226Y-109.725
X159.006Y-86.863
X159.006Y-88.895
X159.006Y-90.927
X159.006Y-92.959
X159.006Y-102.613
X159.006Y-104.645
X159.006Y-106.677
X159.006Y-108.709
T6
X171.184Y-153.924
X171.184Y-156.464
X173.724Y-153.924
X173.724Y-156.464
X176.264Y-153.924
X176.264Y-156.464
X178.804Y-153.924
X178.804Y-156.464
X181.344Y-153.924
X181.344Y-156.464
X183.884Y-153.924
X183.884Y-156.464
X194.31Y-162.306
X196.85Y-162.306
X199.39Y-162.306
X201.93Y-162.306
X204.47Y-162.306
X207.01Y-162.306
T7
X165.647Y-75.049
X169.147Y-75.049
X172.647Y-75.049
X198.13Y-75.049
X201.63Y-75.049
T8
X221.675Y-126.54
X221.675Y-131.62
X221.707Y-145.596
X221.707Y-150.676
X221.728Y-107.528
X221.728Y-112.608
X221.742Y-88.316
X221.742Y-93.396
T9
X157.226Y-77.47
X157.226Y-160.02
X220.726Y-77.47
X220.726Y-160.02
M30
