G04 #@! TF.GenerationSoftware,KiCad,Pcbnew,10.0.6*
G04 #@! TF.CreationDate,2026-09-03T18:11:54-04:00*
G04 #@! TF.ProjectId,FemtoLCC,46656d74-6f4c-4434-932e-6b696361645f,4*
G04 #@! TF.SameCoordinates,Original*
G04 #@! TF.FileFunction,Legend,Bot*
G04 #@! TF.FilePolarity,Positive*
%FSLAX46Y46*%
G04 Gerber Fmt 4.6, Leading zero omitted, Abs format (unit mm)*
G04 Created by KiCad (PCBNEW 10.0.6) date 2026-09-03 18:11:54*
%MOMM*%
%LPD*%
G01*
G04 APERTURE LIST*
G04 Aperture macros list*
%AMRoundRect*
0 Rectangle with rounded corners*
0 $1 Rounding radius*
0 $2 $3 $4 $5 $6 $7 $8 $9 X,Y pos of 4 corners*
0 Add a 4 corners polygon primitive as box body*
4,1,4,$2,$3,$4,$5,$6,$7,$8,$9,$2,$3,0*
0 Add four circle primitives for the rounded corners*
1,1,$1+$1,$2,$3*
1,1,$1+$1,$4,$5*
1,1,$1+$1,$6,$7*
1,1,$1+$1,$8,$9*
0 Add four rect primitives between the rounded corners*
20,1,$1+$1,$2,$3,$4,$5,0*
20,1,$1+$1,$4,$5,$6,$7,0*
20,1,$1+$1,$6,$7,$8,$9,0*
20,1,$1+$1,$8,$9,$2,$3,0*%
%AMFreePoly0*
4,1,23,0.500000,-0.750000,0.000000,-0.750000,0.000000,-0.745722,-0.065263,-0.745722,-0.191342,-0.711940,-0.304381,-0.646677,-0.396677,-0.554381,-0.461940,-0.441342,-0.495722,-0.315263,-0.495722,-0.250000,-0.500000,-0.250000,-0.500000,0.250000,-0.495722,0.250000,-0.495722,0.315263,-0.461940,0.441342,-0.396677,0.554381,-0.304381,0.646677,-0.191342,0.711940,-0.065263,0.745722,0.000000,0.745722,
0.000000,0.750000,0.500000,0.750000,0.500000,-0.750000,0.500000,-0.750000,$1*%
%AMFreePoly1*
4,1,23,0.000000,0.745722,0.065263,0.745722,0.191342,0.711940,0.304381,0.646677,0.396677,0.554381,0.461940,0.441342,0.495722,0.315263,0.495722,0.250000,0.500000,0.250000,0.500000,-0.250000,0.495722,-0.250000,0.495722,-0.315263,0.461940,-0.441342,0.396677,-0.554381,0.304381,-0.646677,0.191342,-0.711940,0.065263,-0.745722,0.000000,-0.745722,0.000000,-0.750000,-0.500000,-0.750000,
-0.500000,0.750000,0.000000,0.750000,0.000000,0.745722,0.000000,0.745722,$1*%
G04 Aperture macros list end*
%ADD10C,0.150000*%
%ADD11C,0.120000*%
%ADD12C,0.000000*%
%ADD13R,1.700000X1.700000*%
%ADD14C,1.700000*%
%ADD15C,0.900000*%
%ADD16C,8.600000*%
%ADD17RoundRect,0.250000X1.050000X-1.050000X1.050000X1.050000X-1.050000X1.050000X-1.050000X-1.050000X0*%
%ADD18C,2.600000*%
%ADD19RoundRect,0.250000X0.650000X1.550000X-0.650000X1.550000X-0.650000X-1.550000X0.650000X-1.550000X0*%
%ADD20O,1.800000X3.600000*%
%ADD21C,1.400000*%
%ADD22C,3.300000*%
%ADD23C,1.652000*%
%ADD24C,0.660000*%
%ADD25O,0.580000X1.000000*%
%ADD26C,1.100000*%
%ADD27FreePoly0,90.000000*%
%ADD28FreePoly1,90.000000*%
%ADD29RoundRect,0.250000X0.312500X0.625000X-0.312500X0.625000X-0.312500X-0.625000X0.312500X-0.625000X0*%
G04 APERTURE END LIST*
D10*
X163474819Y-86246666D02*
X164189104Y-86246666D01*
X164189104Y-86246666D02*
X164331961Y-86199047D01*
X164331961Y-86199047D02*
X164427200Y-86103809D01*
X164427200Y-86103809D02*
X164474819Y-85960952D01*
X164474819Y-85960952D02*
X164474819Y-85865714D01*
X164474819Y-86722857D02*
X163474819Y-86722857D01*
X163474819Y-86722857D02*
X163474819Y-87103809D01*
X163474819Y-87103809D02*
X163522438Y-87199047D01*
X163522438Y-87199047D02*
X163570057Y-87246666D01*
X163570057Y-87246666D02*
X163665295Y-87294285D01*
X163665295Y-87294285D02*
X163808152Y-87294285D01*
X163808152Y-87294285D02*
X163903390Y-87246666D01*
X163903390Y-87246666D02*
X163951009Y-87199047D01*
X163951009Y-87199047D02*
X163998628Y-87103809D01*
X163998628Y-87103809D02*
X163998628Y-86722857D01*
X163474819Y-88199047D02*
X163474819Y-87722857D01*
X163474819Y-87722857D02*
X163951009Y-87675238D01*
X163951009Y-87675238D02*
X163903390Y-87722857D01*
X163903390Y-87722857D02*
X163855771Y-87818095D01*
X163855771Y-87818095D02*
X163855771Y-88056190D01*
X163855771Y-88056190D02*
X163903390Y-88151428D01*
X163903390Y-88151428D02*
X163951009Y-88199047D01*
X163951009Y-88199047D02*
X164046247Y-88246666D01*
X164046247Y-88246666D02*
X164284342Y-88246666D01*
X164284342Y-88246666D02*
X164379580Y-88199047D01*
X164379580Y-88199047D02*
X164427200Y-88151428D01*
X164427200Y-88151428D02*
X164474819Y-88056190D01*
X164474819Y-88056190D02*
X164474819Y-87818095D01*
X164474819Y-87818095D02*
X164427200Y-87722857D01*
X164427200Y-87722857D02*
X164379580Y-87675238D01*
X215352857Y-162494819D02*
X215686190Y-162018628D01*
X215924285Y-162494819D02*
X215924285Y-161494819D01*
X215924285Y-161494819D02*
X215543333Y-161494819D01*
X215543333Y-161494819D02*
X215448095Y-161542438D01*
X215448095Y-161542438D02*
X215400476Y-161590057D01*
X215400476Y-161590057D02*
X215352857Y-161685295D01*
X215352857Y-161685295D02*
X215352857Y-161828152D01*
X215352857Y-161828152D02*
X215400476Y-161923390D01*
X215400476Y-161923390D02*
X215448095Y-161971009D01*
X215448095Y-161971009D02*
X215543333Y-162018628D01*
X215543333Y-162018628D02*
X215924285Y-162018628D01*
X214971904Y-161590057D02*
X214924285Y-161542438D01*
X214924285Y-161542438D02*
X214829047Y-161494819D01*
X214829047Y-161494819D02*
X214590952Y-161494819D01*
X214590952Y-161494819D02*
X214495714Y-161542438D01*
X214495714Y-161542438D02*
X214448095Y-161590057D01*
X214448095Y-161590057D02*
X214400476Y-161685295D01*
X214400476Y-161685295D02*
X214400476Y-161780533D01*
X214400476Y-161780533D02*
X214448095Y-161923390D01*
X214448095Y-161923390D02*
X215019523Y-162494819D01*
X215019523Y-162494819D02*
X214400476Y-162494819D01*
X214067142Y-161494819D02*
X213400476Y-161494819D01*
X213400476Y-161494819D02*
X213829047Y-162494819D01*
D11*
X161220000Y-86380000D02*
X161220000Y-87780000D01*
X161920000Y-88480000D02*
X162520000Y-88480000D01*
X162520000Y-85680000D02*
X161920000Y-85680000D01*
X163220000Y-87780000D02*
X163220000Y-86380000D01*
X161220000Y-86380000D02*
G75*
G02*
X161920000Y-85680000I700000J0D01*
G01*
X161920000Y-88480000D02*
G75*
G02*
X161220000Y-87780000I-1J699999D01*
G01*
X162520000Y-85680000D02*
G75*
G02*
X163220000Y-86380000I0J-700000D01*
G01*
X163220000Y-87780000D02*
G75*
G02*
X162520000Y-88480000I-699999J-1D01*
G01*
D12*
G36*
X162520000Y-87330000D02*
G01*
X161920000Y-87330000D01*
X161920000Y-86830000D01*
X162520000Y-86830000D01*
X162520000Y-87330000D01*
G37*
D11*
X215437064Y-162960000D02*
X213982936Y-162960000D01*
X215437064Y-164780000D02*
X213982936Y-164780000D01*
%LPC*%
G36*
X161470000Y-86930000D02*
G01*
X162970000Y-86930000D01*
X162970000Y-87230000D01*
X161470000Y-87230000D01*
X161470000Y-86930000D01*
G37*
D13*
X194310000Y-162306000D03*
D14*
X196850000Y-162306000D03*
X199390000Y-162306000D03*
X201930000Y-162306000D03*
X204470000Y-162306000D03*
X207010000Y-162306000D03*
D15*
X217501000Y-77470000D03*
X218445581Y-75189581D03*
X218445581Y-79750419D03*
X220726000Y-74245000D03*
D16*
X220726000Y-77470000D03*
D15*
X220726000Y-80695000D03*
X223006419Y-75189581D03*
X223006419Y-79750419D03*
X223951000Y-77470000D03*
D17*
X221727665Y-112608176D03*
D18*
X221727665Y-107528176D03*
D19*
X172646500Y-75049500D03*
D20*
X169146500Y-75049500D03*
X165646500Y-75049500D03*
D17*
X221742000Y-93395800D03*
D18*
X221742000Y-88315800D03*
D17*
X221707400Y-150676120D03*
D18*
X221707400Y-145596120D03*
D21*
X169136750Y-109855902D03*
X169136750Y-107315902D03*
D22*
X154686000Y-84073000D03*
X154686000Y-112523000D03*
D23*
X157226000Y-93975000D03*
X159006000Y-92959000D03*
X157226000Y-91943000D03*
X159006000Y-90927000D03*
X157226000Y-89911000D03*
X159006000Y-88895000D03*
X157226000Y-87879000D03*
X159006000Y-86863000D03*
X157226000Y-109725000D03*
X159006000Y-108709000D03*
X157226000Y-107693000D03*
X159006000Y-106677000D03*
X157226000Y-105661000D03*
X159006000Y-104645000D03*
X157226000Y-103629000D03*
X159006000Y-102613000D03*
D15*
X217501000Y-160020000D03*
X218445581Y-157739581D03*
X218445581Y-162300419D03*
X220726000Y-156795000D03*
D16*
X220726000Y-160020000D03*
D15*
X220726000Y-163245000D03*
X223006419Y-157739581D03*
X223006419Y-162300419D03*
X223951000Y-160020000D03*
D19*
X201630500Y-75049500D03*
D20*
X198130500Y-75049500D03*
D15*
X154001000Y-160020000D03*
X154945581Y-157739581D03*
X154945581Y-162300419D03*
X157226000Y-156795000D03*
D16*
X157226000Y-160020000D03*
D15*
X157226000Y-163245000D03*
X159506419Y-157739581D03*
X159506419Y-162300419D03*
X160451000Y-160020000D03*
D24*
X175320000Y-126890000D03*
D25*
X175320000Y-134390000D03*
D26*
X177470000Y-128240000D03*
X173170000Y-128240000D03*
X177470000Y-133040000D03*
X173170000Y-133040000D03*
D15*
X154001000Y-77470000D03*
X154945581Y-75189581D03*
X154945581Y-79750419D03*
X157226000Y-74245000D03*
D16*
X157226000Y-77470000D03*
D15*
X157226000Y-80695000D03*
X159506419Y-75189581D03*
X159506419Y-79750419D03*
X160451000Y-77470000D03*
D17*
X221674912Y-131620232D03*
D18*
X221674912Y-126540232D03*
D13*
X171184000Y-153924000D03*
D14*
X171184000Y-156464000D03*
X173724000Y-153924000D03*
X173724000Y-156464000D03*
X176264000Y-153924000D03*
X176264000Y-156464000D03*
X178804000Y-153924000D03*
X178804000Y-156464000D03*
X181344000Y-153924000D03*
X181344000Y-156464000D03*
X183884000Y-153924000D03*
X183884000Y-156464000D03*
D27*
X162220000Y-87730000D03*
D28*
X162220000Y-86430000D03*
D29*
X216172500Y-163870000D03*
X213247500Y-163870000D03*
%LPD*%
M02*
