G04 #@! TF.GenerationSoftware,KiCad,Pcbnew,10.0.6*
G04 #@! TF.CreationDate,2026-09-03T18:11:54-04:00*
G04 #@! TF.ProjectId,FemtoLCC,46656d74-6f4c-4434-932e-6b696361645f,4*
G04 #@! TF.SameCoordinates,Original*
G04 #@! TF.FileFunction,Soldermask,Top*
G04 #@! TF.FilePolarity,Negative*
%FSLAX46Y46*%
G04 Gerber Fmt 4.6, Leading zero omitted, Abs format (unit mm)*
G04 Created by KiCad (PCBNEW 10.0.6) date 2026-09-03 18:11:54*
%MOMM*%
%LPD*%
G01*
G04 APERTURE LIST*
G04 Aperture macros list*
%AMRoundRect*
0 Rectangle with rounded corners*
0 $1 Rounding radius*
0 $2 $3 $4 $5 $6 $7 $8 $9 X,Y pos of 4 corners*
0 Add a 4 corners polygon primitive as box body*
4,1,4,$2,$3,$4,$5,$6,$7,$8,$9,$2,$3,0*
0 Add four circle primitives for the rounded corners*
1,1,$1+$1,$2,$3*
1,1,$1+$1,$4,$5*
1,1,$1+$1,$6,$7*
1,1,$1+$1,$8,$9*
0 Add four rect primitives between the rounded corners*
20,1,$1+$1,$2,$3,$4,$5,0*
20,1,$1+$1,$4,$5,$6,$7,0*
20,1,$1+$1,$6,$7,$8,$9,0*
20,1,$1+$1,$8,$9,$2,$3,0*%
G04 Aperture macros list end*
%ADD10C,0.000000*%
%ADD11RoundRect,0.250000X0.350000X0.450000X-0.350000X0.450000X-0.350000X-0.450000X0.350000X-0.450000X0*%
%ADD12RoundRect,0.250000X0.337500X0.475000X-0.337500X0.475000X-0.337500X-0.475000X0.337500X-0.475000X0*%
%ADD13R,1.700000X1.700000*%
%ADD14C,1.700000*%
%ADD15RoundRect,0.150000X-0.825000X-0.150000X0.825000X-0.150000X0.825000X0.150000X-0.825000X0.150000X0*%
%ADD16RoundRect,0.250000X-0.450000X0.350000X-0.450000X-0.350000X0.450000X-0.350000X0.450000X0.350000X0*%
%ADD17RoundRect,0.250000X-0.412500X-0.650000X0.412500X-0.650000X0.412500X0.650000X-0.412500X0.650000X0*%
%ADD18RoundRect,0.135000X0.185000X-0.135000X0.185000X0.135000X-0.185000X0.135000X-0.185000X-0.135000X0*%
%ADD19C,0.900000*%
%ADD20C,8.600000*%
%ADD21RoundRect,0.135000X-0.135000X-0.185000X0.135000X-0.185000X0.135000X0.185000X-0.135000X0.185000X0*%
%ADD22RoundRect,0.250000X0.475000X-0.337500X0.475000X0.337500X-0.475000X0.337500X-0.475000X-0.337500X0*%
%ADD23RoundRect,0.150000X-0.725000X-0.150000X0.725000X-0.150000X0.725000X0.150000X-0.725000X0.150000X0*%
%ADD24RoundRect,0.250000X1.050000X-1.050000X1.050000X1.050000X-1.050000X1.050000X-1.050000X-1.050000X0*%
%ADD25C,2.600000*%
%ADD26RoundRect,0.250000X-0.475000X0.337500X-0.475000X-0.337500X0.475000X-0.337500X0.475000X0.337500X0*%
%ADD27RoundRect,0.250000X-0.337500X-0.475000X0.337500X-0.475000X0.337500X0.475000X-0.337500X0.475000X0*%
%ADD28RoundRect,0.250000X0.650000X1.550000X-0.650000X1.550000X-0.650000X-1.550000X0.650000X-1.550000X0*%
%ADD29O,1.800000X3.600000*%
%ADD30R,1.000000X0.750000*%
%ADD31RoundRect,0.375000X-0.625000X-0.375000X0.625000X-0.375000X0.625000X0.375000X-0.625000X0.375000X0*%
%ADD32RoundRect,0.500000X-0.500000X-1.400000X0.500000X-1.400000X0.500000X1.400000X-0.500000X1.400000X0*%
%ADD33RoundRect,0.135000X-0.185000X0.135000X-0.185000X-0.135000X0.185000X-0.135000X0.185000X0.135000X0*%
%ADD34RoundRect,0.150000X-0.150000X0.875000X-0.150000X-0.875000X0.150000X-0.875000X0.150000X0.875000X0*%
%ADD35RoundRect,0.150000X0.150000X0.625000X-0.150000X0.625000X-0.150000X-0.625000X0.150000X-0.625000X0*%
%ADD36RoundRect,0.250000X0.350000X0.650000X-0.350000X0.650000X-0.350000X-0.650000X0.350000X-0.650000X0*%
%ADD37RoundRect,0.249999X-1.425001X0.450001X-1.425001X-0.450001X1.425001X-0.450001X1.425001X0.450001X0*%
%ADD38RoundRect,0.375000X0.625000X0.375000X-0.625000X0.375000X-0.625000X-0.375000X0.625000X-0.375000X0*%
%ADD39RoundRect,0.500000X0.500000X1.400000X-0.500000X1.400000X-0.500000X-1.400000X0.500000X-1.400000X0*%
%ADD40RoundRect,0.250000X-0.650000X0.412500X-0.650000X-0.412500X0.650000X-0.412500X0.650000X0.412500X0*%
%ADD41RoundRect,0.250000X0.650000X-0.412500X0.650000X0.412500X-0.650000X0.412500X-0.650000X-0.412500X0*%
%ADD42C,1.400000*%
%ADD43C,3.300000*%
%ADD44C,1.652000*%
%ADD45RoundRect,0.218750X-0.218750X-0.256250X0.218750X-0.256250X0.218750X0.256250X-0.218750X0.256250X0*%
%ADD46RoundRect,0.135000X0.135000X0.185000X-0.135000X0.185000X-0.135000X-0.185000X0.135000X-0.185000X0*%
%ADD47RoundRect,0.250000X0.450000X-0.350000X0.450000X0.350000X-0.450000X0.350000X-0.450000X-0.350000X0*%
%ADD48R,0.449999X1.500000*%
%ADD49R,5.000000X3.400001*%
%ADD50RoundRect,0.250000X-0.350000X-0.450000X0.350000X-0.450000X0.350000X0.450000X-0.350000X0.450000X0*%
%ADD51RoundRect,0.250000X1.500000X0.650000X-1.500000X0.650000X-1.500000X-0.650000X1.500000X-0.650000X0*%
%ADD52R,0.900000X1.500000*%
%ADD53R,0.800000X0.800000*%
%ADD54RoundRect,0.150000X0.825000X0.150000X-0.825000X0.150000X-0.825000X-0.150000X0.825000X-0.150000X0*%
%ADD55C,0.660000*%
%ADD56O,0.580000X1.000000*%
%ADD57RoundRect,0.075000X-0.425000X0.075000X-0.425000X-0.075000X0.425000X-0.075000X0.425000X0.075000X0*%
%ADD58C,1.100000*%
%ADD59RoundRect,0.250000X-1.500000X-0.650000X1.500000X-0.650000X1.500000X0.650000X-1.500000X0.650000X0*%
%ADD60RoundRect,0.250000X-0.250000X0.250000X-0.250000X-0.250000X0.250000X-0.250000X0.250000X0.250000X0*%
%ADD61RoundRect,0.150000X0.587500X0.150000X-0.587500X0.150000X-0.587500X-0.150000X0.587500X-0.150000X0*%
%ADD62RoundRect,0.250000X0.412500X0.650000X-0.412500X0.650000X-0.412500X-0.650000X0.412500X-0.650000X0*%
G04 APERTURE END LIST*
D10*
G36*
X213989399Y-89254945D02*
G01*
X213998629Y-89257744D01*
X214007133Y-89262290D01*
X214014591Y-89268409D01*
X214020710Y-89275867D01*
X214025256Y-89284371D01*
X214028055Y-89293601D01*
X214029000Y-89303200D01*
X214029000Y-91664800D01*
X214028055Y-91674399D01*
X214025256Y-91683629D01*
X214020710Y-91692133D01*
X214014591Y-91699591D01*
X214007133Y-91705710D01*
X213998629Y-91710256D01*
X213989399Y-91713055D01*
X213979800Y-91714000D01*
X210528200Y-91714000D01*
X210518601Y-91713055D01*
X210509371Y-91710256D01*
X210500867Y-91705710D01*
X210493409Y-91699591D01*
X210487290Y-91692133D01*
X210482744Y-91683629D01*
X210479945Y-91674399D01*
X210479000Y-91664800D01*
X210479000Y-89303200D01*
X210479945Y-89293601D01*
X210482744Y-89284371D01*
X210487290Y-89275867D01*
X210493409Y-89268409D01*
X210500867Y-89262290D01*
X210509371Y-89257744D01*
X210518601Y-89254945D01*
X210528200Y-89254000D01*
X213979800Y-89254000D01*
X213989399Y-89254945D01*
G37*
G36*
X213989399Y-127474945D02*
G01*
X213998629Y-127477744D01*
X214007133Y-127482290D01*
X214014591Y-127488409D01*
X214020710Y-127495867D01*
X214025256Y-127504371D01*
X214028055Y-127513601D01*
X214029000Y-127523200D01*
X214029000Y-129884800D01*
X214028055Y-129894399D01*
X214025256Y-129903629D01*
X214020710Y-129912133D01*
X214014591Y-129919591D01*
X214007133Y-129925710D01*
X213998629Y-129930256D01*
X213989399Y-129933055D01*
X213979800Y-129934000D01*
X210528200Y-129934000D01*
X210518601Y-129933055D01*
X210509371Y-129930256D01*
X210500867Y-129925710D01*
X210493409Y-129919591D01*
X210487290Y-129912133D01*
X210482744Y-129903629D01*
X210479945Y-129894399D01*
X210479000Y-129884800D01*
X210479000Y-127523200D01*
X210479945Y-127513601D01*
X210482744Y-127504371D01*
X210487290Y-127495867D01*
X210493409Y-127488409D01*
X210500867Y-127482290D01*
X210509371Y-127477744D01*
X210518601Y-127474945D01*
X210528200Y-127474000D01*
X213979800Y-127474000D01*
X213989399Y-127474945D01*
G37*
G36*
X213989399Y-146524945D02*
G01*
X213998629Y-146527744D01*
X214007133Y-146532290D01*
X214014591Y-146538409D01*
X214020710Y-146545867D01*
X214025256Y-146554371D01*
X214028055Y-146563601D01*
X214029000Y-146573200D01*
X214029000Y-148934800D01*
X214028055Y-148944399D01*
X214025256Y-148953629D01*
X214020710Y-148962133D01*
X214014591Y-148969591D01*
X214007133Y-148975710D01*
X213998629Y-148980256D01*
X213989399Y-148983055D01*
X213979800Y-148984000D01*
X210528200Y-148984000D01*
X210518601Y-148983055D01*
X210509371Y-148980256D01*
X210500867Y-148975710D01*
X210493409Y-148969591D01*
X210487290Y-148962133D01*
X210482744Y-148953629D01*
X210479945Y-148944399D01*
X210479000Y-148934800D01*
X210479000Y-146573200D01*
X210479945Y-146563601D01*
X210482744Y-146554371D01*
X210487290Y-146545867D01*
X210493409Y-146538409D01*
X210500867Y-146532290D01*
X210509371Y-146527744D01*
X210518601Y-146524945D01*
X210528200Y-146524000D01*
X213979800Y-146524000D01*
X213989399Y-146524945D01*
G37*
G36*
X213989399Y-108424945D02*
G01*
X213998629Y-108427744D01*
X214007133Y-108432290D01*
X214014591Y-108438409D01*
X214020710Y-108445867D01*
X214025256Y-108454371D01*
X214028055Y-108463601D01*
X214029000Y-108473200D01*
X214029000Y-110834800D01*
X214028055Y-110844399D01*
X214025256Y-110853629D01*
X214020710Y-110862133D01*
X214014591Y-110869591D01*
X214007133Y-110875710D01*
X213998629Y-110880256D01*
X213989399Y-110883055D01*
X213979800Y-110884000D01*
X210528200Y-110884000D01*
X210518601Y-110883055D01*
X210509371Y-110880256D01*
X210500867Y-110875710D01*
X210493409Y-110869591D01*
X210487290Y-110862133D01*
X210482744Y-110853629D01*
X210479945Y-110844399D01*
X210479000Y-110834800D01*
X210479000Y-108473200D01*
X210479945Y-108463601D01*
X210482744Y-108454371D01*
X210487290Y-108445867D01*
X210493409Y-108438409D01*
X210500867Y-108432290D01*
X210509371Y-108427744D01*
X210518601Y-108424945D01*
X210528200Y-108424000D01*
X213979800Y-108424000D01*
X213989399Y-108424945D01*
G37*
D11*
X201054000Y-117954000D03*
X199054000Y-117954000D03*
D12*
X212491500Y-115354000D03*
X210416500Y-115354000D03*
D13*
X194310000Y-162306000D03*
D14*
X196850000Y-162306000D03*
X199390000Y-162306000D03*
X201930000Y-162306000D03*
X204470000Y-162306000D03*
X207010000Y-162306000D03*
D15*
X169415000Y-94885000D03*
X169415000Y-96155000D03*
X169415000Y-97425000D03*
X169415000Y-98695000D03*
X174365000Y-98695000D03*
X174365000Y-97425000D03*
X174365000Y-96155000D03*
X174365000Y-94885000D03*
D16*
X208554000Y-114954000D03*
X208554000Y-116954000D03*
D17*
X215391500Y-120004000D03*
X218516500Y-120004000D03*
D18*
X179400200Y-129110200D03*
X179400200Y-128090200D03*
D19*
X217501000Y-77470000D03*
X218445581Y-75189581D03*
X218445581Y-79750419D03*
X220726000Y-74245000D03*
D20*
X220726000Y-77470000D03*
D19*
X220726000Y-80695000D03*
X223006419Y-75189581D03*
X223006419Y-79750419D03*
X223951000Y-77470000D03*
D11*
X201054000Y-98784000D03*
X199054000Y-98784000D03*
D21*
X175156400Y-124764800D03*
X176176400Y-124764800D03*
D22*
X153370000Y-139337500D03*
X153370000Y-137262500D03*
D23*
X201279000Y-85939000D03*
X201279000Y-87209000D03*
X201279000Y-88479000D03*
X201279000Y-89749000D03*
X201279000Y-91019000D03*
X201279000Y-92289000D03*
X201279000Y-93559000D03*
X201279000Y-94829000D03*
X206429000Y-94829000D03*
X206429000Y-93559000D03*
X206429000Y-92289000D03*
X206429000Y-91019000D03*
X206429000Y-89749000D03*
X206429000Y-88479000D03*
X206429000Y-87209000D03*
X206429000Y-85939000D03*
D24*
X221727665Y-112608176D03*
D25*
X221727665Y-107528176D03*
D23*
X201279000Y-124159000D03*
X201279000Y-125429000D03*
X201279000Y-126699000D03*
X201279000Y-127969000D03*
X201279000Y-129239000D03*
X201279000Y-130509000D03*
X201279000Y-131779000D03*
X201279000Y-133049000D03*
X206429000Y-133049000D03*
X206429000Y-131779000D03*
X206429000Y-130509000D03*
X206429000Y-129239000D03*
X206429000Y-127969000D03*
X206429000Y-126699000D03*
X206429000Y-125429000D03*
X206429000Y-124159000D03*
D26*
X208654000Y-141216500D03*
X208654000Y-143291500D03*
D27*
X178540500Y-102616000D03*
X180615500Y-102616000D03*
D28*
X172646500Y-75049500D03*
D29*
X169146500Y-75049500D03*
X165646500Y-75049500D03*
D16*
X178670750Y-98328000D03*
X178670750Y-100328000D03*
D12*
X212791500Y-119904000D03*
X210716500Y-119904000D03*
D30*
X165000000Y-143875000D03*
X159000000Y-143875000D03*
X165000000Y-140125000D03*
X159000000Y-140125000D03*
D12*
X204891500Y-103254000D03*
X202816500Y-103254000D03*
X212791500Y-81684000D03*
X210716500Y-81684000D03*
D27*
X213516500Y-122504000D03*
X215591500Y-122504000D03*
D31*
X182167935Y-73392000D03*
X182167935Y-75692000D03*
D32*
X188467935Y-75692000D03*
D31*
X182167935Y-77992000D03*
D33*
X169889000Y-137449000D03*
X169889000Y-138469000D03*
D27*
X213516500Y-141554000D03*
X215591500Y-141554000D03*
D24*
X221742000Y-93395800D03*
D25*
X221742000Y-88315800D03*
D26*
X208654000Y-83946500D03*
X208654000Y-86021500D03*
D12*
X214291500Y-117354000D03*
X212216500Y-117354000D03*
D34*
X185446500Y-140929000D03*
X184176500Y-140929000D03*
X182906500Y-140929000D03*
X181636500Y-140929000D03*
X180366500Y-140929000D03*
X179096500Y-140929000D03*
X177826500Y-140929000D03*
X176556500Y-140929000D03*
X175286500Y-140929000D03*
X174016500Y-140929000D03*
X172746500Y-140929000D03*
X171476500Y-140929000D03*
X170206500Y-140929000D03*
X168936500Y-140929000D03*
X168936500Y-150229000D03*
X170206500Y-150229000D03*
X171476500Y-150229000D03*
X172746500Y-150229000D03*
X174016500Y-150229000D03*
X175286500Y-150229000D03*
X176556500Y-150229000D03*
X177826500Y-150229000D03*
X179096500Y-150229000D03*
X180366500Y-150229000D03*
X181636500Y-150229000D03*
X182906500Y-150229000D03*
X184176500Y-150229000D03*
X185446500Y-150229000D03*
D24*
X221707400Y-150676120D03*
D25*
X221707400Y-145596120D03*
D12*
X214291500Y-155454000D03*
X212216500Y-155454000D03*
D35*
X166030000Y-152855000D03*
X165030000Y-152855000D03*
X164030000Y-152855000D03*
X163030000Y-152855000D03*
D36*
X167330000Y-155380000D03*
X161730000Y-155380000D03*
D26*
X208654000Y-103116500D03*
X208654000Y-105191500D03*
D37*
X174752000Y-81278000D03*
X174752000Y-87378000D03*
D38*
X187148000Y-90349500D03*
X187148000Y-88049500D03*
D39*
X180848000Y-88049500D03*
D38*
X187148000Y-85749500D03*
D40*
X156180000Y-141187500D03*
X156180000Y-144312500D03*
D41*
X153510000Y-144292500D03*
X153510000Y-141167500D03*
D12*
X212491500Y-153454000D03*
X210416500Y-153454000D03*
D42*
X169136750Y-109855902D03*
X169136750Y-107315902D03*
D12*
X204891500Y-122304000D03*
X202816500Y-122304000D03*
D16*
X208554000Y-153054000D03*
X208554000Y-155054000D03*
D43*
X154686000Y-84073000D03*
X154686000Y-112523000D03*
D44*
X157226000Y-93975000D03*
X159006000Y-92959000D03*
X157226000Y-91943000D03*
X159006000Y-90927000D03*
X157226000Y-89911000D03*
X159006000Y-88895000D03*
X157226000Y-87879000D03*
X159006000Y-86863000D03*
X157226000Y-109725000D03*
X159006000Y-108709000D03*
X157226000Y-107693000D03*
X159006000Y-106677000D03*
X157226000Y-105661000D03*
X159006000Y-104645000D03*
X157226000Y-103629000D03*
X159006000Y-102613000D03*
D18*
X211709000Y-78424500D03*
X211709000Y-77404500D03*
D45*
X181801500Y-136689000D03*
X183376500Y-136689000D03*
D37*
X169952000Y-81278000D03*
X169952000Y-87378000D03*
D19*
X217501000Y-160020000D03*
X218445581Y-157739581D03*
X218445581Y-162300419D03*
X220726000Y-156795000D03*
D20*
X220726000Y-160020000D03*
D19*
X220726000Y-163245000D03*
X223006419Y-157739581D03*
X223006419Y-162300419D03*
X223951000Y-160020000D03*
D17*
X215391500Y-139054000D03*
X218516500Y-139054000D03*
D11*
X201054000Y-156054000D03*
X199054000Y-156054000D03*
D46*
X186274000Y-136689000D03*
X185254000Y-136689000D03*
D27*
X213516500Y-84284000D03*
X215591500Y-84284000D03*
D33*
X171159000Y-137449000D03*
X171159000Y-138469000D03*
D47*
X178670750Y-95728000D03*
X178670750Y-93728000D03*
D48*
X209979001Y-93383999D03*
X210629002Y-93383999D03*
X211279001Y-93383999D03*
X211929002Y-93383999D03*
X212579001Y-93383999D03*
X213229002Y-93383999D03*
X213879001Y-93383999D03*
X214529002Y-93383999D03*
X214529002Y-87584001D03*
X213879001Y-87584001D03*
X213229002Y-87584001D03*
X212579001Y-87584001D03*
X211929002Y-87584001D03*
X211279001Y-87584001D03*
X210629002Y-87584001D03*
X209979001Y-87584001D03*
D49*
X212254000Y-90484000D03*
D12*
X212791500Y-100854000D03*
X210716500Y-100854000D03*
X204891500Y-141354000D03*
X202816500Y-141354000D03*
D46*
X165584600Y-159613600D03*
X164564600Y-159613600D03*
D26*
X192532000Y-85576500D03*
X192532000Y-87651500D03*
D28*
X201630500Y-75049500D03*
D29*
X198130500Y-75049500D03*
D27*
X181156700Y-92760800D03*
X183231700Y-92760800D03*
D23*
X201279000Y-105109000D03*
X201279000Y-106379000D03*
X201279000Y-107649000D03*
X201279000Y-108919000D03*
X201279000Y-110189000D03*
X201279000Y-111459000D03*
X201279000Y-112729000D03*
X201279000Y-113999000D03*
X206429000Y-113999000D03*
X206429000Y-112729000D03*
X206429000Y-111459000D03*
X206429000Y-110189000D03*
X206429000Y-108919000D03*
X206429000Y-107649000D03*
X206429000Y-106379000D03*
X206429000Y-105109000D03*
D48*
X209979001Y-131603999D03*
X210629002Y-131603999D03*
X211279001Y-131603999D03*
X211929002Y-131603999D03*
X212579001Y-131603999D03*
X213229002Y-131603999D03*
X213879001Y-131603999D03*
X214529002Y-131603999D03*
X214529002Y-125804001D03*
X213879001Y-125804001D03*
X213229002Y-125804001D03*
X212579001Y-125804001D03*
X211929002Y-125804001D03*
X211279001Y-125804001D03*
X210629002Y-125804001D03*
X209979001Y-125804001D03*
D49*
X212254000Y-128704000D03*
D23*
X201279000Y-143209000D03*
X201279000Y-144479000D03*
X201279000Y-145749000D03*
X201279000Y-147019000D03*
X201279000Y-148289000D03*
X201279000Y-149559000D03*
X201279000Y-150829000D03*
X201279000Y-152099000D03*
X206429000Y-152099000D03*
X206429000Y-150829000D03*
X206429000Y-149559000D03*
X206429000Y-148289000D03*
X206429000Y-147019000D03*
X206429000Y-145749000D03*
X206429000Y-144479000D03*
X206429000Y-143209000D03*
D33*
X159000000Y-145490000D03*
X159000000Y-146510000D03*
D22*
X186716500Y-154871500D03*
X186716500Y-152796500D03*
D50*
X164938200Y-146024600D03*
X166938200Y-146024600D03*
D51*
X184261935Y-81788000D03*
X179261935Y-81788000D03*
D41*
X190905935Y-78016500D03*
X190905935Y-74891500D03*
D27*
X213516500Y-103454000D03*
X215591500Y-103454000D03*
D19*
X154001000Y-160020000D03*
X154945581Y-157739581D03*
X154945581Y-162300419D03*
X157226000Y-156795000D03*
D20*
X157226000Y-160020000D03*
D19*
X157226000Y-163245000D03*
X159506419Y-157739581D03*
X159506419Y-162300419D03*
X160451000Y-160020000D03*
D26*
X186716500Y-156606500D03*
X186716500Y-158681500D03*
X208654000Y-122166500D03*
X208654000Y-124241500D03*
D52*
X152224000Y-135281000D03*
X153494000Y-135281000D03*
X154764000Y-135281000D03*
X156034000Y-135281000D03*
X157304000Y-135281000D03*
X158574000Y-135281000D03*
X159844000Y-135281000D03*
X161114000Y-135281000D03*
X162384000Y-135281000D03*
X163654000Y-135281000D03*
X164924000Y-135281000D03*
X166194000Y-135281000D03*
X167464000Y-135281000D03*
X168734000Y-135281000D03*
X168734000Y-117781000D03*
X167464000Y-117781000D03*
X166194000Y-117781000D03*
X164924000Y-117781000D03*
X163654000Y-117781000D03*
X162384000Y-117781000D03*
X161114000Y-117781000D03*
X159844000Y-117781000D03*
X158574000Y-117781000D03*
X157304000Y-117781000D03*
X156034000Y-117781000D03*
X154764000Y-117781000D03*
X153494000Y-117781000D03*
X152224000Y-117781000D03*
D53*
X156694000Y-129286000D03*
X157944000Y-129286000D03*
X159194000Y-129286000D03*
X156694000Y-128036000D03*
X157944000Y-128036000D03*
X159194000Y-128036000D03*
X156694000Y-126786000D03*
X157944000Y-126786000D03*
X159194000Y-126786000D03*
D12*
X212491500Y-96184000D03*
X210416500Y-96184000D03*
D27*
X181105900Y-94894400D03*
X183180900Y-94894400D03*
D47*
X166636750Y-110905902D03*
X166636750Y-108905902D03*
D22*
X193294000Y-77491500D03*
X193294000Y-75416500D03*
D21*
X153490200Y-149707600D03*
X154510200Y-149707600D03*
D22*
X179730000Y-74927500D03*
X179730000Y-72852500D03*
D17*
X215391500Y-100954000D03*
X218516500Y-100954000D03*
D54*
X177311750Y-110110902D03*
X177311750Y-108840902D03*
X177311750Y-107570902D03*
X177311750Y-106300902D03*
X172361750Y-106300902D03*
X172361750Y-107570902D03*
X172361750Y-108840902D03*
X172361750Y-110110902D03*
D16*
X208554000Y-134004000D03*
X208554000Y-136004000D03*
D40*
X189992000Y-85559500D03*
X189992000Y-88684500D03*
D55*
X175320000Y-126890000D03*
D56*
X175320000Y-134390000D03*
D57*
X176080000Y-127860000D03*
X176080000Y-128650000D03*
X176080000Y-129440000D03*
X176080000Y-130230000D03*
X176080000Y-131020000D03*
X176080000Y-131810000D03*
X176080000Y-132600000D03*
X176080000Y-133390000D03*
X174560000Y-133390000D03*
X174560000Y-132600000D03*
X174560000Y-131810000D03*
X174560000Y-131020000D03*
X174560000Y-130230000D03*
X174560000Y-129440000D03*
X174560000Y-128650000D03*
X174560000Y-127860000D03*
D58*
X177470000Y-128240000D03*
X173170000Y-128240000D03*
X177470000Y-133040000D03*
X173170000Y-133040000D03*
D59*
X190882435Y-81788000D03*
X195882435Y-81788000D03*
D12*
X214291500Y-136404000D03*
X212216500Y-136404000D03*
D27*
X172661500Y-137959000D03*
X174736500Y-137959000D03*
D60*
X209804000Y-75712000D03*
X209804000Y-78212000D03*
D48*
X209979001Y-150653999D03*
X210629002Y-150653999D03*
X211279001Y-150653999D03*
X211929002Y-150653999D03*
X212579001Y-150653999D03*
X213229002Y-150653999D03*
X213879001Y-150653999D03*
X214529002Y-150653999D03*
X214529002Y-144854001D03*
X213879001Y-144854001D03*
X213229002Y-144854001D03*
X212579001Y-144854001D03*
X211929002Y-144854001D03*
X211279001Y-144854001D03*
X210629002Y-144854001D03*
X209979001Y-144854001D03*
D49*
X212254000Y-147754000D03*
D61*
X207566500Y-78229500D03*
X207566500Y-76329500D03*
X205691500Y-77279500D03*
D19*
X154001000Y-77470000D03*
X154945581Y-75189581D03*
X154945581Y-79750419D03*
X157226000Y-74245000D03*
D20*
X157226000Y-77470000D03*
D19*
X157226000Y-80695000D03*
X159506419Y-75189581D03*
X159506419Y-79750419D03*
X160451000Y-77470000D03*
D33*
X179425600Y-132052600D03*
X179425600Y-133072600D03*
D12*
X212491500Y-134404000D03*
X210416500Y-134404000D03*
D62*
X177282500Y-90800000D03*
X174157500Y-90800000D03*
D12*
X176208250Y-93010000D03*
X174133250Y-93010000D03*
D11*
X201054000Y-137004000D03*
X199054000Y-137004000D03*
D40*
X177546000Y-75653500D03*
X177546000Y-78778500D03*
D12*
X171557500Y-104440000D03*
X169482500Y-104440000D03*
D26*
X155498800Y-137316300D03*
X155498800Y-139391300D03*
D12*
X212791500Y-138954000D03*
X210716500Y-138954000D03*
D26*
X158546800Y-149025700D03*
X158546800Y-151100700D03*
D41*
X214885000Y-81747500D03*
X214885000Y-78622500D03*
D27*
X179402500Y-108050000D03*
X181477500Y-108050000D03*
D12*
X204891500Y-84084000D03*
X202816500Y-84084000D03*
D16*
X208554000Y-95784000D03*
X208554000Y-97784000D03*
D24*
X221674912Y-131620232D03*
D25*
X221674912Y-126540232D03*
D48*
X209979001Y-112553999D03*
X210629002Y-112553999D03*
X211279001Y-112553999D03*
X211929002Y-112553999D03*
X212579001Y-112553999D03*
X213229002Y-112553999D03*
X213879001Y-112553999D03*
X214529002Y-112553999D03*
X214529002Y-106754001D03*
X213879001Y-106754001D03*
X213229002Y-106754001D03*
X212579001Y-106754001D03*
X211929002Y-106754001D03*
X211279001Y-106754001D03*
X210629002Y-106754001D03*
X209979001Y-106754001D03*
D49*
X212254000Y-109654000D03*
D12*
X214291500Y-98184000D03*
X212216500Y-98184000D03*
D13*
X171184000Y-153924000D03*
D14*
X171184000Y-156464000D03*
X173724000Y-153924000D03*
X173724000Y-156464000D03*
X176264000Y-153924000D03*
X176264000Y-156464000D03*
X178804000Y-153924000D03*
X178804000Y-156464000D03*
X181344000Y-153924000D03*
X181344000Y-156464000D03*
X183884000Y-153924000D03*
X183884000Y-156464000D03*
M02*
