G04 #@! TF.GenerationSoftware,KiCad,Pcbnew,10.0.6*
G04 #@! TF.CreationDate,2026-09-03T18:11:54-04:00*
G04 #@! TF.ProjectId,FemtoLCC,46656d74-6f4c-4434-932e-6b696361645f,4*
G04 #@! TF.SameCoordinates,Original*
G04 #@! TF.FileFunction,Copper,L1,Top*
G04 #@! TF.FilePolarity,Positive*
%FSLAX46Y46*%
G04 Gerber Fmt 4.6, Leading zero omitted, Abs format (unit mm)*
G04 Created by KiCad (PCBNEW 10.0.6) date 2026-09-03 18:11:54*
%MOMM*%
%LPD*%
G01*
G04 APERTURE LIST*
G04 Aperture macros list*
%AMRoundRect*
0 Rectangle with rounded corners*
0 $1 Rounding radius*
0 $2 $3 $4 $5 $6 $7 $8 $9 X,Y pos of 4 corners*
0 Add a 4 corners polygon primitive as box body*
4,1,4,$2,$3,$4,$5,$6,$7,$8,$9,$2,$3,0*
0 Add four circle primitives for the rounded corners*
1,1,$1+$1,$2,$3*
1,1,$1+$1,$4,$5*
1,1,$1+$1,$6,$7*
1,1,$1+$1,$8,$9*
0 Add four rect primitives between the rounded corners*
20,1,$1+$1,$2,$3,$4,$5,0*
20,1,$1+$1,$4,$5,$6,$7,0*
20,1,$1+$1,$6,$7,$8,$9,0*
20,1,$1+$1,$8,$9,$2,$3,0*%
G04 Aperture macros list end*
G04 #@! TA.AperFunction,SMDPad,CuDef*
%ADD10RoundRect,0.250000X0.350000X0.450000X-0.350000X0.450000X-0.350000X-0.450000X0.350000X-0.450000X0*%
G04 #@! TD*
G04 #@! TA.AperFunction,SMDPad,CuDef*
%ADD11RoundRect,0.250000X0.337500X0.475000X-0.337500X0.475000X-0.337500X-0.475000X0.337500X-0.475000X0*%
G04 #@! TD*
G04 #@! TA.AperFunction,ComponentPad*
%ADD12R,1.700000X1.700000*%
G04 #@! TD*
G04 #@! TA.AperFunction,ComponentPad*
%ADD13C,1.700000*%
G04 #@! TD*
G04 #@! TA.AperFunction,SMDPad,CuDef*
%ADD14RoundRect,0.150000X-0.825000X-0.150000X0.825000X-0.150000X0.825000X0.150000X-0.825000X0.150000X0*%
G04 #@! TD*
G04 #@! TA.AperFunction,SMDPad,CuDef*
%ADD15RoundRect,0.250000X-0.450000X0.350000X-0.450000X-0.350000X0.450000X-0.350000X0.450000X0.350000X0*%
G04 #@! TD*
G04 #@! TA.AperFunction,SMDPad,CuDef*
%ADD16RoundRect,0.250000X-0.412500X-0.650000X0.412500X-0.650000X0.412500X0.650000X-0.412500X0.650000X0*%
G04 #@! TD*
G04 #@! TA.AperFunction,SMDPad,CuDef*
%ADD17RoundRect,0.135000X0.185000X-0.135000X0.185000X0.135000X-0.185000X0.135000X-0.185000X-0.135000X0*%
G04 #@! TD*
G04 #@! TA.AperFunction,ComponentPad*
%ADD18C,0.900000*%
G04 #@! TD*
G04 #@! TA.AperFunction,ComponentPad*
%ADD19C,8.600000*%
G04 #@! TD*
G04 #@! TA.AperFunction,SMDPad,CuDef*
%ADD20RoundRect,0.135000X-0.135000X-0.185000X0.135000X-0.185000X0.135000X0.185000X-0.135000X0.185000X0*%
G04 #@! TD*
G04 #@! TA.AperFunction,SMDPad,CuDef*
%ADD21RoundRect,0.250000X0.475000X-0.337500X0.475000X0.337500X-0.475000X0.337500X-0.475000X-0.337500X0*%
G04 #@! TD*
G04 #@! TA.AperFunction,SMDPad,CuDef*
%ADD22RoundRect,0.150000X-0.725000X-0.150000X0.725000X-0.150000X0.725000X0.150000X-0.725000X0.150000X0*%
G04 #@! TD*
G04 #@! TA.AperFunction,ComponentPad*
%ADD23RoundRect,0.250000X1.050000X-1.050000X1.050000X1.050000X-1.050000X1.050000X-1.050000X-1.050000X0*%
G04 #@! TD*
G04 #@! TA.AperFunction,ComponentPad*
%ADD24C,2.600000*%
G04 #@! TD*
G04 #@! TA.AperFunction,SMDPad,CuDef*
%ADD25RoundRect,0.250000X-0.475000X0.337500X-0.475000X-0.337500X0.475000X-0.337500X0.475000X0.337500X0*%
G04 #@! TD*
G04 #@! TA.AperFunction,SMDPad,CuDef*
%ADD26RoundRect,0.250000X-0.337500X-0.475000X0.337500X-0.475000X0.337500X0.475000X-0.337500X0.475000X0*%
G04 #@! TD*
G04 #@! TA.AperFunction,ComponentPad*
%ADD27RoundRect,0.250000X0.650000X1.550000X-0.650000X1.550000X-0.650000X-1.550000X0.650000X-1.550000X0*%
G04 #@! TD*
G04 #@! TA.AperFunction,ComponentPad*
%ADD28O,1.800000X3.600000*%
G04 #@! TD*
G04 #@! TA.AperFunction,SMDPad,CuDef*
%ADD29R,1.000000X0.750000*%
G04 #@! TD*
G04 #@! TA.AperFunction,SMDPad,CuDef*
%ADD30RoundRect,0.375000X-0.625000X-0.375000X0.625000X-0.375000X0.625000X0.375000X-0.625000X0.375000X0*%
G04 #@! TD*
G04 #@! TA.AperFunction,SMDPad,CuDef*
%ADD31RoundRect,0.500000X-0.500000X-1.400000X0.500000X-1.400000X0.500000X1.400000X-0.500000X1.400000X0*%
G04 #@! TD*
G04 #@! TA.AperFunction,SMDPad,CuDef*
%ADD32RoundRect,0.135000X-0.185000X0.135000X-0.185000X-0.135000X0.185000X-0.135000X0.185000X0.135000X0*%
G04 #@! TD*
G04 #@! TA.AperFunction,SMDPad,CuDef*
%ADD33RoundRect,0.150000X-0.150000X0.875000X-0.150000X-0.875000X0.150000X-0.875000X0.150000X0.875000X0*%
G04 #@! TD*
G04 #@! TA.AperFunction,SMDPad,CuDef*
%ADD34RoundRect,0.150000X0.150000X0.625000X-0.150000X0.625000X-0.150000X-0.625000X0.150000X-0.625000X0*%
G04 #@! TD*
G04 #@! TA.AperFunction,SMDPad,CuDef*
%ADD35RoundRect,0.250000X0.350000X0.650000X-0.350000X0.650000X-0.350000X-0.650000X0.350000X-0.650000X0*%
G04 #@! TD*
G04 #@! TA.AperFunction,SMDPad,CuDef*
%ADD36RoundRect,0.249999X-1.425001X0.450001X-1.425001X-0.450001X1.425001X-0.450001X1.425001X0.450001X0*%
G04 #@! TD*
G04 #@! TA.AperFunction,SMDPad,CuDef*
%ADD37RoundRect,0.375000X0.625000X0.375000X-0.625000X0.375000X-0.625000X-0.375000X0.625000X-0.375000X0*%
G04 #@! TD*
G04 #@! TA.AperFunction,SMDPad,CuDef*
%ADD38RoundRect,0.500000X0.500000X1.400000X-0.500000X1.400000X-0.500000X-1.400000X0.500000X-1.400000X0*%
G04 #@! TD*
G04 #@! TA.AperFunction,SMDPad,CuDef*
%ADD39RoundRect,0.250000X-0.650000X0.412500X-0.650000X-0.412500X0.650000X-0.412500X0.650000X0.412500X0*%
G04 #@! TD*
G04 #@! TA.AperFunction,SMDPad,CuDef*
%ADD40RoundRect,0.250000X0.650000X-0.412500X0.650000X0.412500X-0.650000X0.412500X-0.650000X-0.412500X0*%
G04 #@! TD*
G04 #@! TA.AperFunction,ComponentPad*
%ADD41C,1.400000*%
G04 #@! TD*
G04 #@! TA.AperFunction,ComponentPad*
%ADD42C,1.448000*%
G04 #@! TD*
G04 #@! TA.AperFunction,SMDPad,CuDef*
%ADD43RoundRect,0.218750X-0.218750X-0.256250X0.218750X-0.256250X0.218750X0.256250X-0.218750X0.256250X0*%
G04 #@! TD*
G04 #@! TA.AperFunction,SMDPad,CuDef*
%ADD44RoundRect,0.135000X0.135000X0.185000X-0.135000X0.185000X-0.135000X-0.185000X0.135000X-0.185000X0*%
G04 #@! TD*
G04 #@! TA.AperFunction,SMDPad,CuDef*
%ADD45RoundRect,0.250000X0.450000X-0.350000X0.450000X0.350000X-0.450000X0.350000X-0.450000X-0.350000X0*%
G04 #@! TD*
G04 #@! TA.AperFunction,SMDPad,CuDef*
%ADD46R,0.449999X1.500000*%
G04 #@! TD*
G04 #@! TA.AperFunction,SMDPad,CuDef*
%ADD47R,5.000000X3.400001*%
G04 #@! TD*
G04 #@! TA.AperFunction,SMDPad,CuDef*
%ADD48RoundRect,0.250000X-0.350000X-0.450000X0.350000X-0.450000X0.350000X0.450000X-0.350000X0.450000X0*%
G04 #@! TD*
G04 #@! TA.AperFunction,SMDPad,CuDef*
%ADD49RoundRect,0.250000X1.500000X0.650000X-1.500000X0.650000X-1.500000X-0.650000X1.500000X-0.650000X0*%
G04 #@! TD*
G04 #@! TA.AperFunction,SMDPad,CuDef*
%ADD50R,0.900000X1.500000*%
G04 #@! TD*
G04 #@! TA.AperFunction,SMDPad,CuDef*
%ADD51R,0.800000X0.800000*%
G04 #@! TD*
G04 #@! TA.AperFunction,SMDPad,CuDef*
%ADD52RoundRect,0.150000X0.825000X0.150000X-0.825000X0.150000X-0.825000X-0.150000X0.825000X-0.150000X0*%
G04 #@! TD*
G04 #@! TA.AperFunction,SMDPad,CuDef*
%ADD53RoundRect,0.075000X-0.425000X0.075000X-0.425000X-0.075000X0.425000X-0.075000X0.425000X0.075000X0*%
G04 #@! TD*
G04 #@! TA.AperFunction,HeatsinkPad*
%ADD54C,1.100000*%
G04 #@! TD*
G04 #@! TA.AperFunction,SMDPad,CuDef*
%ADD55RoundRect,0.250000X-1.500000X-0.650000X1.500000X-0.650000X1.500000X0.650000X-1.500000X0.650000X0*%
G04 #@! TD*
G04 #@! TA.AperFunction,SMDPad,CuDef*
%ADD56RoundRect,0.250000X-0.250000X0.250000X-0.250000X-0.250000X0.250000X-0.250000X0.250000X0.250000X0*%
G04 #@! TD*
G04 #@! TA.AperFunction,SMDPad,CuDef*
%ADD57RoundRect,0.150000X0.587500X0.150000X-0.587500X0.150000X-0.587500X-0.150000X0.587500X-0.150000X0*%
G04 #@! TD*
G04 #@! TA.AperFunction,SMDPad,CuDef*
%ADD58RoundRect,0.250000X0.412500X0.650000X-0.412500X0.650000X-0.412500X-0.650000X0.412500X-0.650000X0*%
G04 #@! TD*
G04 #@! TA.AperFunction,ViaPad*
%ADD59C,0.600000*%
G04 #@! TD*
G04 #@! TA.AperFunction,Conductor*
%ADD60C,0.200000*%
G04 #@! TD*
G04 #@! TA.AperFunction,Conductor*
%ADD61C,0.440000*%
G04 #@! TD*
G04 #@! TA.AperFunction,Conductor*
%ADD62C,0.400000*%
G04 #@! TD*
G04 #@! TA.AperFunction,Conductor*
%ADD63C,1.000000*%
G04 #@! TD*
G04 #@! TA.AperFunction,Conductor*
%ADD64C,1.750000*%
G04 #@! TD*
G04 APERTURE END LIST*
D10*
X201054000Y-117954000D03*
X199054000Y-117954000D03*
D11*
X212491500Y-115354000D03*
X210416500Y-115354000D03*
D12*
X194310000Y-162306000D03*
D13*
X196850000Y-162306000D03*
X199390000Y-162306000D03*
X201930000Y-162306000D03*
X204470000Y-162306000D03*
X207010000Y-162306000D03*
D14*
X169415000Y-94885000D03*
X169415000Y-96155000D03*
X169415000Y-97425000D03*
X169415000Y-98695000D03*
X174365000Y-98695000D03*
X174365000Y-97425000D03*
X174365000Y-96155000D03*
X174365000Y-94885000D03*
D15*
X208554000Y-114954000D03*
X208554000Y-116954000D03*
D16*
X215391500Y-120004000D03*
X218516500Y-120004000D03*
D17*
X179400200Y-129110200D03*
X179400200Y-128090200D03*
D18*
X217501000Y-77470000D03*
X218445581Y-75189581D03*
X218445581Y-79750419D03*
X220726000Y-74245000D03*
D19*
X220726000Y-77470000D03*
D18*
X220726000Y-80695000D03*
X223006419Y-75189581D03*
X223006419Y-79750419D03*
X223951000Y-77470000D03*
D10*
X201054000Y-98784000D03*
X199054000Y-98784000D03*
D20*
X175156400Y-124764800D03*
X176176400Y-124764800D03*
D21*
X153370000Y-139337500D03*
X153370000Y-137262500D03*
D22*
X201279000Y-85939000D03*
X201279000Y-87209000D03*
X201279000Y-88479000D03*
X201279000Y-89749000D03*
X201279000Y-91019000D03*
X201279000Y-92289000D03*
X201279000Y-93559000D03*
X201279000Y-94829000D03*
X206429000Y-94829000D03*
X206429000Y-93559000D03*
X206429000Y-92289000D03*
X206429000Y-91019000D03*
X206429000Y-89749000D03*
X206429000Y-88479000D03*
X206429000Y-87209000D03*
X206429000Y-85939000D03*
D23*
X221727665Y-112608176D03*
D24*
X221727665Y-107528176D03*
D22*
X201279000Y-124159000D03*
X201279000Y-125429000D03*
X201279000Y-126699000D03*
X201279000Y-127969000D03*
X201279000Y-129239000D03*
X201279000Y-130509000D03*
X201279000Y-131779000D03*
X201279000Y-133049000D03*
X206429000Y-133049000D03*
X206429000Y-131779000D03*
X206429000Y-130509000D03*
X206429000Y-129239000D03*
X206429000Y-127969000D03*
X206429000Y-126699000D03*
X206429000Y-125429000D03*
X206429000Y-124159000D03*
D25*
X208654000Y-141216500D03*
X208654000Y-143291500D03*
D26*
X178540500Y-102616000D03*
X180615500Y-102616000D03*
D27*
X172646500Y-75049500D03*
D28*
X169146500Y-75049500D03*
X165646500Y-75049500D03*
D15*
X178670750Y-98328000D03*
X178670750Y-100328000D03*
D11*
X212791500Y-119904000D03*
X210716500Y-119904000D03*
D29*
X165000000Y-143875000D03*
X159000000Y-143875000D03*
X165000000Y-140125000D03*
X159000000Y-140125000D03*
D11*
X204891500Y-103254000D03*
X202816500Y-103254000D03*
X212791500Y-81684000D03*
X210716500Y-81684000D03*
D26*
X213516500Y-122504000D03*
X215591500Y-122504000D03*
D30*
X182167935Y-73392000D03*
X182167935Y-75692000D03*
D31*
X188467935Y-75692000D03*
D30*
X182167935Y-77992000D03*
D32*
X169889000Y-137449000D03*
X169889000Y-138469000D03*
D26*
X213516500Y-141554000D03*
X215591500Y-141554000D03*
D23*
X221742000Y-93395800D03*
D24*
X221742000Y-88315800D03*
D25*
X208654000Y-83946500D03*
X208654000Y-86021500D03*
D11*
X214291500Y-117354000D03*
X212216500Y-117354000D03*
D33*
X185446500Y-140929000D03*
X184176500Y-140929000D03*
X182906500Y-140929000D03*
X181636500Y-140929000D03*
X180366500Y-140929000D03*
X179096500Y-140929000D03*
X177826500Y-140929000D03*
X176556500Y-140929000D03*
X175286500Y-140929000D03*
X174016500Y-140929000D03*
X172746500Y-140929000D03*
X171476500Y-140929000D03*
X170206500Y-140929000D03*
X168936500Y-140929000D03*
X168936500Y-150229000D03*
X170206500Y-150229000D03*
X171476500Y-150229000D03*
X172746500Y-150229000D03*
X174016500Y-150229000D03*
X175286500Y-150229000D03*
X176556500Y-150229000D03*
X177826500Y-150229000D03*
X179096500Y-150229000D03*
X180366500Y-150229000D03*
X181636500Y-150229000D03*
X182906500Y-150229000D03*
X184176500Y-150229000D03*
X185446500Y-150229000D03*
D23*
X221707400Y-150676120D03*
D24*
X221707400Y-145596120D03*
D11*
X214291500Y-155454000D03*
X212216500Y-155454000D03*
D34*
X166030000Y-152855000D03*
X165030000Y-152855000D03*
X164030000Y-152855000D03*
X163030000Y-152855000D03*
D35*
X167330000Y-155380000D03*
X161730000Y-155380000D03*
D25*
X208654000Y-103116500D03*
X208654000Y-105191500D03*
D36*
X174752000Y-81278000D03*
X174752000Y-87378000D03*
D37*
X187148000Y-90349500D03*
X187148000Y-88049500D03*
D38*
X180848000Y-88049500D03*
D37*
X187148000Y-85749500D03*
D39*
X156180000Y-141187500D03*
X156180000Y-144312500D03*
D40*
X153510000Y-144292500D03*
X153510000Y-141167500D03*
D11*
X212491500Y-153454000D03*
X210416500Y-153454000D03*
D41*
X169136750Y-109855902D03*
X169136750Y-107315902D03*
D11*
X204891500Y-122304000D03*
X202816500Y-122304000D03*
D15*
X208554000Y-153054000D03*
X208554000Y-155054000D03*
D42*
X157226000Y-93975000D03*
X159006000Y-92959000D03*
X157226000Y-91943000D03*
X159006000Y-90927000D03*
X157226000Y-89911000D03*
X159006000Y-88895000D03*
X157226000Y-87879000D03*
X159006000Y-86863000D03*
X157226000Y-109725000D03*
X159006000Y-108709000D03*
X157226000Y-107693000D03*
X159006000Y-106677000D03*
X157226000Y-105661000D03*
X159006000Y-104645000D03*
X157226000Y-103629000D03*
X159006000Y-102613000D03*
D17*
X211709000Y-78424500D03*
X211709000Y-77404500D03*
D43*
X181801500Y-136689000D03*
X183376500Y-136689000D03*
D36*
X169952000Y-81278000D03*
X169952000Y-87378000D03*
D18*
X217501000Y-160020000D03*
X218445581Y-157739581D03*
X218445581Y-162300419D03*
X220726000Y-156795000D03*
D19*
X220726000Y-160020000D03*
D18*
X220726000Y-163245000D03*
X223006419Y-157739581D03*
X223006419Y-162300419D03*
X223951000Y-160020000D03*
D16*
X215391500Y-139054000D03*
X218516500Y-139054000D03*
D10*
X201054000Y-156054000D03*
X199054000Y-156054000D03*
D44*
X186274000Y-136689000D03*
X185254000Y-136689000D03*
D26*
X213516500Y-84284000D03*
X215591500Y-84284000D03*
D32*
X171159000Y-137449000D03*
X171159000Y-138469000D03*
D45*
X178670750Y-95728000D03*
X178670750Y-93728000D03*
D46*
X209979001Y-93383999D03*
X210629002Y-93383999D03*
X211279001Y-93383999D03*
X211929002Y-93383999D03*
X212579001Y-93383999D03*
X213229002Y-93383999D03*
X213879001Y-93383999D03*
X214529002Y-93383999D03*
X214529002Y-87584001D03*
X213879001Y-87584001D03*
X213229002Y-87584001D03*
X212579001Y-87584001D03*
X211929002Y-87584001D03*
X211279001Y-87584001D03*
X210629002Y-87584001D03*
X209979001Y-87584001D03*
D47*
X212254000Y-90484000D03*
D11*
X212791500Y-100854000D03*
X210716500Y-100854000D03*
X204891500Y-141354000D03*
X202816500Y-141354000D03*
D44*
X165584600Y-159613600D03*
X164564600Y-159613600D03*
D25*
X192532000Y-85576500D03*
X192532000Y-87651500D03*
D27*
X201630500Y-75049500D03*
D28*
X198130500Y-75049500D03*
D26*
X181156700Y-92760800D03*
X183231700Y-92760800D03*
D22*
X201279000Y-105109000D03*
X201279000Y-106379000D03*
X201279000Y-107649000D03*
X201279000Y-108919000D03*
X201279000Y-110189000D03*
X201279000Y-111459000D03*
X201279000Y-112729000D03*
X201279000Y-113999000D03*
X206429000Y-113999000D03*
X206429000Y-112729000D03*
X206429000Y-111459000D03*
X206429000Y-110189000D03*
X206429000Y-108919000D03*
X206429000Y-107649000D03*
X206429000Y-106379000D03*
X206429000Y-105109000D03*
D46*
X209979001Y-131603999D03*
X210629002Y-131603999D03*
X211279001Y-131603999D03*
X211929002Y-131603999D03*
X212579001Y-131603999D03*
X213229002Y-131603999D03*
X213879001Y-131603999D03*
X214529002Y-131603999D03*
X214529002Y-125804001D03*
X213879001Y-125804001D03*
X213229002Y-125804001D03*
X212579001Y-125804001D03*
X211929002Y-125804001D03*
X211279001Y-125804001D03*
X210629002Y-125804001D03*
X209979001Y-125804001D03*
D47*
X212254000Y-128704000D03*
D22*
X201279000Y-143209000D03*
X201279000Y-144479000D03*
X201279000Y-145749000D03*
X201279000Y-147019000D03*
X201279000Y-148289000D03*
X201279000Y-149559000D03*
X201279000Y-150829000D03*
X201279000Y-152099000D03*
X206429000Y-152099000D03*
X206429000Y-150829000D03*
X206429000Y-149559000D03*
X206429000Y-148289000D03*
X206429000Y-147019000D03*
X206429000Y-145749000D03*
X206429000Y-144479000D03*
X206429000Y-143209000D03*
D32*
X159000000Y-145490000D03*
X159000000Y-146510000D03*
D21*
X186716500Y-154871500D03*
X186716500Y-152796500D03*
D48*
X164938200Y-146024600D03*
X166938200Y-146024600D03*
D49*
X184261935Y-81788000D03*
X179261935Y-81788000D03*
D40*
X190905935Y-78016500D03*
X190905935Y-74891500D03*
D26*
X213516500Y-103454000D03*
X215591500Y-103454000D03*
D18*
X154001000Y-160020000D03*
X154945581Y-157739581D03*
X154945581Y-162300419D03*
X157226000Y-156795000D03*
D19*
X157226000Y-160020000D03*
D18*
X157226000Y-163245000D03*
X159506419Y-157739581D03*
X159506419Y-162300419D03*
X160451000Y-160020000D03*
D25*
X186716500Y-156606500D03*
X186716500Y-158681500D03*
X208654000Y-122166500D03*
X208654000Y-124241500D03*
D50*
X152224000Y-135281000D03*
X153494000Y-135281000D03*
X154764000Y-135281000D03*
X156034000Y-135281000D03*
X157304000Y-135281000D03*
X158574000Y-135281000D03*
X159844000Y-135281000D03*
X161114000Y-135281000D03*
X162384000Y-135281000D03*
X163654000Y-135281000D03*
X164924000Y-135281000D03*
X166194000Y-135281000D03*
X167464000Y-135281000D03*
X168734000Y-135281000D03*
X168734000Y-117781000D03*
X167464000Y-117781000D03*
X166194000Y-117781000D03*
X164924000Y-117781000D03*
X163654000Y-117781000D03*
X162384000Y-117781000D03*
X161114000Y-117781000D03*
X159844000Y-117781000D03*
X158574000Y-117781000D03*
X157304000Y-117781000D03*
X156034000Y-117781000D03*
X154764000Y-117781000D03*
X153494000Y-117781000D03*
X152224000Y-117781000D03*
D51*
X156694000Y-129286000D03*
X157944000Y-129286000D03*
X159194000Y-129286000D03*
X156694000Y-128036000D03*
X157944000Y-128036000D03*
X159194000Y-128036000D03*
X156694000Y-126786000D03*
X157944000Y-126786000D03*
X159194000Y-126786000D03*
D11*
X212491500Y-96184000D03*
X210416500Y-96184000D03*
D26*
X181105900Y-94894400D03*
X183180900Y-94894400D03*
D45*
X166636750Y-110905902D03*
X166636750Y-108905902D03*
D21*
X193294000Y-77491500D03*
X193294000Y-75416500D03*
D20*
X153490200Y-149707600D03*
X154510200Y-149707600D03*
D21*
X179730000Y-74927500D03*
X179730000Y-72852500D03*
D16*
X215391500Y-100954000D03*
X218516500Y-100954000D03*
D52*
X177311750Y-110110902D03*
X177311750Y-108840902D03*
X177311750Y-107570902D03*
X177311750Y-106300902D03*
X172361750Y-106300902D03*
X172361750Y-107570902D03*
X172361750Y-108840902D03*
X172361750Y-110110902D03*
D15*
X208554000Y-134004000D03*
X208554000Y-136004000D03*
D39*
X189992000Y-85559500D03*
X189992000Y-88684500D03*
D53*
X176080000Y-127860000D03*
X176080000Y-128650000D03*
X176080000Y-129440000D03*
X176080000Y-130230000D03*
X176080000Y-131020000D03*
X176080000Y-131810000D03*
X176080000Y-132600000D03*
X176080000Y-133390000D03*
X174560000Y-133390000D03*
X174560000Y-132600000D03*
X174560000Y-131810000D03*
X174560000Y-131020000D03*
X174560000Y-130230000D03*
X174560000Y-129440000D03*
X174560000Y-128650000D03*
X174560000Y-127860000D03*
D54*
X177470000Y-128240000D03*
X173170000Y-128240000D03*
X177470000Y-133040000D03*
X173170000Y-133040000D03*
D55*
X190882435Y-81788000D03*
X195882435Y-81788000D03*
D11*
X214291500Y-136404000D03*
X212216500Y-136404000D03*
D26*
X172661500Y-137959000D03*
X174736500Y-137959000D03*
D56*
X209804000Y-75712000D03*
X209804000Y-78212000D03*
D46*
X209979001Y-150653999D03*
X210629002Y-150653999D03*
X211279001Y-150653999D03*
X211929002Y-150653999D03*
X212579001Y-150653999D03*
X213229002Y-150653999D03*
X213879001Y-150653999D03*
X214529002Y-150653999D03*
X214529002Y-144854001D03*
X213879001Y-144854001D03*
X213229002Y-144854001D03*
X212579001Y-144854001D03*
X211929002Y-144854001D03*
X211279001Y-144854001D03*
X210629002Y-144854001D03*
X209979001Y-144854001D03*
D47*
X212254000Y-147754000D03*
D57*
X207566500Y-78229500D03*
X207566500Y-76329500D03*
X205691500Y-77279500D03*
D18*
X154001000Y-77470000D03*
X154945581Y-75189581D03*
X154945581Y-79750419D03*
X157226000Y-74245000D03*
D19*
X157226000Y-77470000D03*
D18*
X157226000Y-80695000D03*
X159506419Y-75189581D03*
X159506419Y-79750419D03*
X160451000Y-77470000D03*
D32*
X179425600Y-132052600D03*
X179425600Y-133072600D03*
D11*
X212491500Y-134404000D03*
X210416500Y-134404000D03*
D58*
X177282500Y-90800000D03*
X174157500Y-90800000D03*
D11*
X176208250Y-93010000D03*
X174133250Y-93010000D03*
D10*
X201054000Y-137004000D03*
X199054000Y-137004000D03*
D39*
X177546000Y-75653500D03*
X177546000Y-78778500D03*
D11*
X171557500Y-104440000D03*
X169482500Y-104440000D03*
D25*
X155498800Y-137316300D03*
X155498800Y-139391300D03*
D11*
X212791500Y-138954000D03*
X210716500Y-138954000D03*
D25*
X158546800Y-149025700D03*
X158546800Y-151100700D03*
D40*
X214885000Y-81747500D03*
X214885000Y-78622500D03*
D26*
X179402500Y-108050000D03*
X181477500Y-108050000D03*
D11*
X204891500Y-84084000D03*
X202816500Y-84084000D03*
D15*
X208554000Y-95784000D03*
X208554000Y-97784000D03*
D23*
X221674912Y-131620232D03*
D24*
X221674912Y-126540232D03*
D46*
X209979001Y-112553999D03*
X210629002Y-112553999D03*
X211279001Y-112553999D03*
X211929002Y-112553999D03*
X212579001Y-112553999D03*
X213229002Y-112553999D03*
X213879001Y-112553999D03*
X214529002Y-112553999D03*
X214529002Y-106754001D03*
X213879001Y-106754001D03*
X213229002Y-106754001D03*
X212579001Y-106754001D03*
X211929002Y-106754001D03*
X211279001Y-106754001D03*
X210629002Y-106754001D03*
X209979001Y-106754001D03*
D47*
X212254000Y-109654000D03*
D11*
X214291500Y-98184000D03*
X212216500Y-98184000D03*
D12*
X171184000Y-153924000D03*
D13*
X171184000Y-156464000D03*
X173724000Y-153924000D03*
X173724000Y-156464000D03*
X176264000Y-153924000D03*
X176264000Y-156464000D03*
X178804000Y-153924000D03*
X178804000Y-156464000D03*
X181344000Y-153924000D03*
X181344000Y-156464000D03*
X183884000Y-153924000D03*
X183884000Y-156464000D03*
D59*
X177311750Y-108840902D03*
X211649000Y-110486500D03*
X205054000Y-86984000D03*
X202816500Y-141354000D03*
X211054000Y-136404000D03*
X216654000Y-84584000D03*
X216654000Y-122804000D03*
X212919000Y-108581500D03*
X156694000Y-126786000D03*
X156694000Y-129286000D03*
X210379000Y-108581500D03*
X202654000Y-113954000D03*
X152224000Y-117781000D03*
X159194000Y-129286000D03*
X202754000Y-124104000D03*
X158546800Y-149025700D03*
X174560000Y-127860000D03*
X202759000Y-82864000D03*
X202754000Y-85884000D03*
X217354000Y-139754000D03*
X217354000Y-101654000D03*
X183231700Y-92760800D03*
X153510000Y-141167500D03*
X211649000Y-108581500D03*
X205254000Y-131404000D03*
X157944000Y-129286000D03*
X156553300Y-147523200D03*
X202654000Y-152054000D03*
X174736500Y-137959000D03*
X212919000Y-127631500D03*
X211649000Y-146681500D03*
X169482500Y-104440000D03*
X217354000Y-119604000D03*
X199054000Y-117954000D03*
X213554000Y-90484000D03*
X210654000Y-152454000D03*
X211014000Y-128584000D03*
X210379000Y-89531500D03*
X205054000Y-106154000D03*
X180615500Y-102616000D03*
X186143857Y-90347800D03*
X202654000Y-94784000D03*
X205054000Y-125204000D03*
X199054000Y-137004000D03*
X202654000Y-133004000D03*
X211649000Y-91436500D03*
X210654000Y-95184000D03*
X212919000Y-129536500D03*
X210654000Y-114354000D03*
X212254000Y-147634000D03*
X210379000Y-148586500D03*
X202754000Y-143154000D03*
X187148000Y-90349500D03*
X211014000Y-147634000D03*
X176582338Y-133378469D03*
X210379000Y-110486500D03*
X202816500Y-122304000D03*
X202654000Y-148254000D03*
X174133250Y-93010000D03*
X202654000Y-110154000D03*
X212919000Y-146681500D03*
X202654000Y-90984000D03*
X174157500Y-90800000D03*
X214504000Y-77645000D03*
X211649000Y-148586500D03*
X212919000Y-91436500D03*
X212919000Y-148586500D03*
X212254000Y-109534000D03*
X214189000Y-108581500D03*
X213554000Y-128584000D03*
X212254000Y-90484000D03*
X186716500Y-158681500D03*
X210379000Y-146681500D03*
X202816500Y-103254000D03*
X214189000Y-146681500D03*
X181477500Y-108050000D03*
X211054000Y-155454000D03*
X155498800Y-139391300D03*
X174061928Y-133367062D03*
X166030000Y-152855000D03*
X159194000Y-126786000D03*
X183180900Y-94894400D03*
X214189000Y-148586500D03*
X205054000Y-144254000D03*
X156180000Y-144312500D03*
X211649000Y-127631500D03*
X174365000Y-98695000D03*
X216654000Y-83684000D03*
X211014000Y-90484000D03*
X186716500Y-152796500D03*
X185446500Y-140929000D03*
X211649000Y-129536500D03*
X215266000Y-77645000D03*
X202754000Y-105054000D03*
X214189000Y-110486500D03*
X217354000Y-120704000D03*
X152224000Y-135281000D03*
X211054000Y-98184000D03*
X214189000Y-127631500D03*
X213247500Y-163870000D03*
X212919000Y-89531500D03*
X212919000Y-110486500D03*
X216654000Y-103754000D03*
X210379000Y-91436500D03*
X210379000Y-129536500D03*
X157944000Y-126786000D03*
X199054000Y-156054000D03*
X156694000Y-128036000D03*
X216654000Y-102854000D03*
X212254000Y-128584000D03*
X217354000Y-100554000D03*
X189992000Y-88684500D03*
X216654000Y-140954000D03*
X202654000Y-129204000D03*
X192532000Y-87651500D03*
X214189000Y-89531500D03*
X205254000Y-150454000D03*
X211054000Y-117354000D03*
X216654000Y-141854000D03*
X199054000Y-98784000D03*
X172361750Y-110110902D03*
X210379000Y-127631500D03*
X211836000Y-76708000D03*
X211014000Y-109534000D03*
X159194000Y-128036000D03*
X211649000Y-89531500D03*
X176176400Y-124764800D03*
X164564600Y-159613600D03*
X205254000Y-112354000D03*
X216654000Y-121904000D03*
X176080000Y-127860000D03*
X153370000Y-139337500D03*
X214189000Y-129536500D03*
X217354000Y-138654000D03*
X205254000Y-93184000D03*
X213554000Y-109534000D03*
X210654000Y-133404000D03*
X179400200Y-128090200D03*
X213554000Y-147634000D03*
X214189000Y-91436500D03*
X179425600Y-133072600D03*
X162220000Y-86430000D03*
X188140044Y-90347800D03*
X157944000Y-128036000D03*
X207454000Y-153154000D03*
X212579001Y-132704000D03*
X178670750Y-100328000D03*
X183793935Y-74060000D03*
X212579001Y-94484000D03*
X171159000Y-137449000D03*
X171557500Y-104440000D03*
X178670750Y-92628000D03*
X212579001Y-113654000D03*
X183857435Y-75946000D03*
X205654000Y-142454000D03*
X178670750Y-101428000D03*
X172661500Y-137959000D03*
X165030000Y-152855000D03*
X156180000Y-141187500D03*
X185825935Y-74930000D03*
X185127435Y-75946000D03*
X205654000Y-123404000D03*
X207454000Y-95884000D03*
X186333935Y-74168000D03*
X211154000Y-132704000D03*
X169889000Y-137449000D03*
X205654000Y-85184000D03*
X184301935Y-74930000D03*
X180695600Y-100076000D03*
X185063935Y-74168000D03*
X153490200Y-149707600D03*
X186716500Y-156606500D03*
X155498800Y-137316300D03*
X153510000Y-144292500D03*
X209454000Y-144854000D03*
X207454000Y-134104000D03*
X207454000Y-115054000D03*
X211154000Y-151754000D03*
X180771800Y-101066600D03*
X164938200Y-146024600D03*
X211154000Y-94484000D03*
X186716500Y-154871500D03*
X209454000Y-125804000D03*
X205654000Y-104354000D03*
X186274000Y-136689000D03*
X186333935Y-75946000D03*
X179729935Y-75438000D03*
X153370000Y-137262500D03*
X212579001Y-151754000D03*
X211154000Y-113654000D03*
X153494000Y-135281000D03*
X180237935Y-74930000D03*
X209454000Y-87584000D03*
X209454000Y-106754000D03*
X153670000Y-133273800D03*
X152476200Y-132689600D03*
X203954000Y-90984000D03*
X203954000Y-110154000D03*
X202754000Y-127104000D03*
X202754000Y-146154000D03*
X202754000Y-108054000D03*
X203954000Y-129204000D03*
X202754000Y-88884000D03*
X203954000Y-148254000D03*
X174365000Y-97425000D03*
X204664000Y-89749000D03*
X174365000Y-96155000D03*
X204664000Y-108919000D03*
X157304000Y-135281000D03*
X204664000Y-127969000D03*
X204664000Y-147019000D03*
X183896000Y-87630000D03*
X185191400Y-88163400D03*
X187148000Y-88049500D03*
X179366250Y-108013750D03*
X182626000Y-89154000D03*
X182626000Y-86868000D03*
X182676800Y-88087200D03*
X183896000Y-88646000D03*
X182700000Y-112300000D03*
X195800000Y-112600000D03*
X184500000Y-112300000D03*
X197600000Y-112600000D03*
X211754000Y-83884000D03*
X212354000Y-122704000D03*
X223520000Y-72390000D03*
X212754000Y-142754000D03*
X211754000Y-103054000D03*
X212954000Y-140554000D03*
X213254000Y-105354000D03*
X213254000Y-86184000D03*
X214054000Y-139254000D03*
X213954000Y-121504000D03*
X213254000Y-124404000D03*
X212598000Y-74422000D03*
X220819500Y-82471000D03*
X218948000Y-72136000D03*
X212354000Y-103654000D03*
X212954000Y-83284000D03*
X225552000Y-73152000D03*
X211754000Y-141154000D03*
X213954000Y-102454000D03*
X211754000Y-122104000D03*
X226060000Y-78486000D03*
X225645500Y-81201000D03*
X212754000Y-104654000D03*
X219803500Y-83487000D03*
X216916000Y-73152000D03*
X213954000Y-140554000D03*
X212054000Y-82884000D03*
X225137500Y-79677000D03*
X223613500Y-82217000D03*
X221835500Y-83741000D03*
X215231500Y-82979000D03*
X214054000Y-120204000D03*
X225552000Y-74676000D03*
X212954000Y-102454000D03*
X212354000Y-84484000D03*
X213961500Y-82979000D03*
X212054000Y-121104000D03*
X212354000Y-141754000D03*
X212054000Y-140154000D03*
X214884000Y-72898000D03*
X214884000Y-74676000D03*
X212852000Y-72390000D03*
X213254000Y-143454000D03*
X225645500Y-83995000D03*
X212754000Y-123704000D03*
X212754000Y-85484000D03*
X214054000Y-101154000D03*
X212054000Y-102054000D03*
X212954000Y-121504000D03*
X223867500Y-83995000D03*
X217771500Y-81455000D03*
X175156400Y-124764800D03*
X171800000Y-119900000D03*
X197900000Y-89500000D03*
X172600000Y-127100000D03*
X182400000Y-134300000D03*
X182906500Y-140929000D03*
X195600000Y-89400000D03*
X165100000Y-133000000D03*
X163600000Y-128900000D03*
X180700000Y-138900000D03*
X180700000Y-140100000D03*
X188300000Y-133100000D03*
X174100000Y-134400000D03*
X194000000Y-131000000D03*
X173200000Y-135300000D03*
X178600000Y-138200000D03*
X181800000Y-138900000D03*
X159000000Y-143875000D03*
X165000000Y-143875000D03*
X157000000Y-139000000D03*
X165000000Y-140125000D03*
X153428300Y-147523200D03*
X159000000Y-140125000D03*
X154764000Y-135281000D03*
X164287200Y-150368000D03*
X164924000Y-117781000D03*
X170206500Y-140929000D03*
X185300000Y-112000000D03*
X182000000Y-140100000D03*
X176900000Y-140200000D03*
X181700000Y-117600000D03*
X193000000Y-113200000D03*
X193000000Y-112000000D03*
X163654000Y-117781000D03*
X171476500Y-140929000D03*
X168173400Y-145440400D03*
X170206500Y-150229000D03*
X174016500Y-150229000D03*
X162384000Y-117781000D03*
X180365400Y-150215600D03*
X181636500Y-150229000D03*
X182906500Y-150229000D03*
X184176500Y-150229000D03*
X155000000Y-133900000D03*
X157600000Y-136600000D03*
X189000000Y-141900000D03*
X165600000Y-122600000D03*
X186000000Y-135400000D03*
X171400000Y-128400000D03*
X181000000Y-119200000D03*
X181000000Y-118000000D03*
X177000000Y-124200000D03*
X192200000Y-132600000D03*
X170500000Y-117700000D03*
X189800000Y-131600000D03*
X181000000Y-120200000D03*
X191100000Y-130300000D03*
X172500000Y-111700000D03*
X193200000Y-132400000D03*
X172200000Y-142500000D03*
X189900000Y-141900000D03*
X188900000Y-142700000D03*
X160200000Y-128000000D03*
X179261935Y-81456092D03*
X180314600Y-81473905D03*
X174560000Y-128650000D03*
X178748408Y-82163433D03*
X176080000Y-128650000D03*
X176080000Y-132600000D03*
X178187900Y-81456092D03*
X179832000Y-82159795D03*
X174560000Y-132600000D03*
X174560000Y-130230000D03*
X176080000Y-131020000D03*
X167464000Y-135281000D03*
X174560000Y-131020000D03*
X168734000Y-135281000D03*
X179425600Y-132052600D03*
X174560000Y-131810000D03*
D60*
X206054000Y-118554000D02*
X204954000Y-118554000D01*
X213229002Y-114509390D02*
X213854000Y-115134388D01*
X162800000Y-134900000D02*
X162800000Y-134400000D01*
X204054000Y-117654000D02*
X200554000Y-117654000D01*
X213854000Y-115134388D02*
X213854000Y-117354000D01*
X213229002Y-112553999D02*
X213229002Y-114509390D01*
X162400000Y-135300000D02*
X162800000Y-134900000D01*
X213854000Y-117354000D02*
X212654000Y-118554000D01*
X212654000Y-118554000D02*
X206054000Y-118554000D01*
X200354000Y-117454000D02*
X199700000Y-116800000D01*
X199700000Y-116800000D02*
X197800000Y-116800000D01*
X204954000Y-118554000D02*
X204054000Y-117654000D01*
X200554000Y-117654000D02*
X200354000Y-117454000D01*
X197800000Y-116800000D02*
X196000000Y-118600000D01*
X196000000Y-118600000D02*
X178600000Y-118600000D01*
X162800000Y-134400000D02*
X178600000Y-118600000D01*
D61*
X210416500Y-152691500D02*
X210654000Y-152454000D01*
X215266000Y-77645000D02*
X215266000Y-78241500D01*
X214529002Y-107944001D02*
X212819003Y-109654000D01*
X213871500Y-156841500D02*
X215141500Y-156841500D01*
X218516500Y-139054000D02*
X218054000Y-139054000D01*
X216654000Y-83684000D02*
X216191500Y-83684000D01*
X202816500Y-82921500D02*
X202759000Y-82864000D01*
X215141500Y-156841500D02*
X215459000Y-156524000D01*
X210416500Y-96184000D02*
X210416500Y-95421500D01*
X215891500Y-122804000D02*
X215591500Y-122504000D01*
X213879001Y-130329001D02*
X212254000Y-128704000D01*
X210416500Y-114591500D02*
X210654000Y-114354000D01*
X213879001Y-93383999D02*
X213879001Y-95269131D01*
X217754000Y-120004000D02*
X217354000Y-119604000D01*
X214909018Y-137538300D02*
X213871500Y-137538300D01*
X201279000Y-129239000D02*
X202619000Y-129239000D01*
X213879001Y-150653999D02*
X213879001Y-149379001D01*
X213879001Y-133354001D02*
X215141500Y-134616500D01*
X202699000Y-124159000D02*
X202754000Y-124104000D01*
X213879001Y-131603999D02*
X213879001Y-130329001D01*
X202816500Y-84084000D02*
X202816500Y-82921500D01*
X206429000Y-144479000D02*
X205279000Y-144479000D01*
X201279000Y-143209000D02*
X202699000Y-143209000D01*
X210629002Y-88859002D02*
X212254000Y-90484000D01*
X201279000Y-133049000D02*
X202609000Y-133049000D01*
X212819003Y-147754000D02*
X212254000Y-147754000D01*
X218516500Y-100954000D02*
X217754000Y-100954000D01*
X218516500Y-120004000D02*
X218054000Y-120004000D01*
X202699000Y-143209000D02*
X202754000Y-143154000D01*
X202619000Y-110189000D02*
X202654000Y-110154000D01*
X214504000Y-78241500D02*
X214504000Y-77645000D01*
X215459000Y-156524000D02*
X215459000Y-153666500D01*
X212819003Y-90484000D02*
X212254000Y-90484000D01*
X211709000Y-76835000D02*
X211836000Y-76708000D01*
X214529002Y-125804001D02*
X214529002Y-126994001D01*
X215288300Y-99055382D02*
X214969682Y-99374000D01*
X216654000Y-84584000D02*
X215891500Y-84584000D01*
X157986800Y-147523200D02*
X159000000Y-146510000D01*
X202609000Y-94829000D02*
X202654000Y-94784000D01*
X213879001Y-95269131D02*
X215288300Y-96678430D01*
X201279000Y-148289000D02*
X202619000Y-148289000D01*
X215141500Y-134616500D02*
X215141500Y-135502182D01*
X215288300Y-135648982D02*
X215288300Y-137159018D01*
X202699000Y-105109000D02*
X202754000Y-105054000D01*
X201279000Y-152099000D02*
X202609000Y-152099000D01*
X215266000Y-78241500D02*
X214885000Y-78622500D01*
X217754000Y-139054000D02*
X217354000Y-138654000D01*
X215459000Y-153666500D02*
X213879001Y-152086501D01*
X201279000Y-124159000D02*
X202699000Y-124159000D01*
X212819003Y-109654000D02*
X212254000Y-109654000D01*
X201279000Y-94829000D02*
X202609000Y-94829000D01*
X210629002Y-144854001D02*
X210629002Y-146129002D01*
X218054000Y-120004000D02*
X217354000Y-120704000D01*
X213879001Y-111279001D02*
X212254000Y-109654000D01*
X202619000Y-91019000D02*
X202654000Y-90984000D01*
X216654000Y-121904000D02*
X216191500Y-121904000D01*
X201279000Y-105109000D02*
X202699000Y-105109000D01*
X201279000Y-85939000D02*
X202699000Y-85939000D01*
X215891500Y-103754000D02*
X215591500Y-103454000D01*
X213236500Y-157476500D02*
X213871500Y-156841500D01*
X206429000Y-150829000D02*
X205629000Y-150829000D01*
X213879001Y-149379001D02*
X212254000Y-147754000D01*
X210629002Y-87584001D02*
X210629002Y-88859002D01*
X213879001Y-152086501D02*
X213879001Y-150653999D01*
X214529002Y-146044001D02*
X212819003Y-147754000D01*
X215288300Y-118109018D02*
X214909018Y-118488300D01*
X210629002Y-125804001D02*
X210629002Y-127079002D01*
X213879001Y-112553999D02*
X213879001Y-114439131D01*
X205279000Y-106379000D02*
X205054000Y-106154000D01*
X202609000Y-133049000D02*
X202654000Y-133004000D01*
X214529002Y-88774001D02*
X212819003Y-90484000D01*
X214529002Y-126994001D02*
X212819003Y-128704000D01*
X218054000Y-100954000D02*
X217354000Y-101654000D01*
X206429000Y-112729000D02*
X205629000Y-112729000D01*
X211854000Y-155454000D02*
X211054000Y-155454000D01*
X214529002Y-144854001D02*
X214529002Y-146044001D01*
X215288300Y-96678430D02*
X215288300Y-99055382D01*
X156553300Y-147523200D02*
X157986800Y-147523200D01*
X216191500Y-102854000D02*
X215591500Y-103454000D01*
X205279000Y-87209000D02*
X205054000Y-86984000D01*
X210629002Y-127079002D02*
X212254000Y-128704000D01*
X210416500Y-115354000D02*
X210416500Y-114591500D01*
X214529002Y-87584001D02*
X214529002Y-88774001D01*
X202609000Y-152099000D02*
X202654000Y-152054000D01*
X218516500Y-100954000D02*
X218054000Y-100954000D01*
X211854000Y-136404000D02*
X211054000Y-136404000D01*
X212819003Y-128704000D02*
X212254000Y-128704000D01*
X218516500Y-139054000D02*
X217754000Y-139054000D01*
X158546800Y-146963200D02*
X159000000Y-146510000D01*
X205629000Y-112729000D02*
X205254000Y-112354000D01*
X215288300Y-137159018D02*
X214909018Y-137538300D01*
X210629002Y-108029002D02*
X212254000Y-109654000D01*
X205629000Y-131779000D02*
X205254000Y-131404000D01*
X210416500Y-95421500D02*
X210654000Y-95184000D01*
X206429000Y-131779000D02*
X205629000Y-131779000D01*
X218054000Y-139054000D02*
X217354000Y-139754000D01*
X215891500Y-141854000D02*
X215591500Y-141554000D01*
X210416500Y-133641500D02*
X210654000Y-133404000D01*
X202699000Y-85939000D02*
X202754000Y-85884000D01*
X210416500Y-153454000D02*
X210416500Y-152691500D01*
X215141500Y-135502182D02*
X215288300Y-135648982D01*
X211854000Y-117354000D02*
X211054000Y-117354000D01*
X213879001Y-131603999D02*
X213879001Y-133354001D01*
X202609000Y-113999000D02*
X202654000Y-113954000D01*
X202619000Y-129239000D02*
X202654000Y-129204000D01*
X210416500Y-134404000D02*
X210416500Y-133641500D01*
X213879001Y-93383999D02*
X213879001Y-92109001D01*
X205629000Y-150829000D02*
X205254000Y-150454000D01*
X218516500Y-120004000D02*
X217754000Y-120004000D01*
X217754000Y-100954000D02*
X217354000Y-100554000D01*
X211854000Y-98184000D02*
X211054000Y-98184000D01*
X213879001Y-92109001D02*
X212254000Y-90484000D01*
X216191500Y-83684000D02*
X215591500Y-84284000D01*
X216191500Y-121904000D02*
X215591500Y-122504000D01*
X216654000Y-102854000D02*
X216191500Y-102854000D01*
X205279000Y-125429000D02*
X205054000Y-125204000D01*
X214969682Y-99374000D02*
X213871500Y-99374000D01*
X215891500Y-84584000D02*
X215591500Y-84284000D01*
X206429000Y-125429000D02*
X205279000Y-125429000D01*
X205279000Y-144479000D02*
X205054000Y-144254000D01*
X211709000Y-77404500D02*
X211709000Y-76835000D01*
X201279000Y-91019000D02*
X202619000Y-91019000D01*
X214909018Y-118488300D02*
X213871500Y-118488300D01*
X213879001Y-114439131D02*
X215288300Y-115848430D01*
X206429000Y-106379000D02*
X205279000Y-106379000D01*
X201279000Y-113999000D02*
X202609000Y-113999000D01*
X215288300Y-115848430D02*
X215288300Y-118109018D01*
X216191500Y-140954000D02*
X215591500Y-141554000D01*
X210629002Y-146129002D02*
X212254000Y-147754000D01*
X216654000Y-140954000D02*
X216191500Y-140954000D01*
X202619000Y-148289000D02*
X202654000Y-148254000D01*
X205629000Y-93559000D02*
X205254000Y-93184000D01*
X210629002Y-106754001D02*
X210629002Y-108029002D01*
X214885000Y-78622500D02*
X214504000Y-78241500D01*
X206429000Y-93559000D02*
X205629000Y-93559000D01*
X213879001Y-112553999D02*
X213879001Y-111279001D01*
X216654000Y-103754000D02*
X215891500Y-103754000D01*
X216654000Y-141854000D02*
X215891500Y-141854000D01*
X206429000Y-87209000D02*
X205279000Y-87209000D01*
X214529002Y-106754001D02*
X214529002Y-107944001D01*
X216654000Y-122804000D02*
X215891500Y-122804000D01*
X201279000Y-110189000D02*
X202619000Y-110189000D01*
D62*
X188213935Y-75946000D02*
X188467935Y-75692000D01*
X211279001Y-132578999D02*
X211154000Y-132704000D01*
D63*
X155498800Y-137316300D02*
X153423800Y-137316300D01*
D62*
X207554000Y-134004000D02*
X207454000Y-134104000D01*
X171557500Y-104440000D02*
X176716500Y-104440000D01*
X172361750Y-105244250D02*
X171557500Y-104440000D01*
X208554000Y-114954000D02*
X207554000Y-114954000D01*
X209454001Y-125804001D02*
X209454000Y-125804000D01*
X205654000Y-85184000D02*
X204954000Y-84484000D01*
X204954000Y-103316500D02*
X204891500Y-103254000D01*
X172361750Y-106300902D02*
X172361750Y-105244250D01*
X178670750Y-100328000D02*
X178670750Y-101428000D01*
X205654000Y-85184000D02*
X206409000Y-85939000D01*
X153370000Y-137090500D02*
X153494000Y-136966500D01*
X186333935Y-75946000D02*
X188213935Y-75946000D01*
X178540500Y-101558250D02*
X178670750Y-101428000D01*
X211279001Y-93383999D02*
X211279001Y-94358999D01*
X209454001Y-87584001D02*
X209454000Y-87584000D01*
X212579001Y-153366499D02*
X212491500Y-153454000D01*
X209454001Y-144854001D02*
X209454000Y-144854000D01*
X206409000Y-105109000D02*
X206429000Y-105109000D01*
X212579001Y-96096499D02*
X212491500Y-96184000D01*
X212579001Y-134316499D02*
X212491500Y-134404000D01*
X177546000Y-75653500D02*
X179004000Y-75653500D01*
X208554000Y-153054000D02*
X207554000Y-153054000D01*
X209979001Y-144854001D02*
X209454001Y-144854001D01*
D63*
X153494000Y-137138500D02*
X153370000Y-137262500D01*
D62*
X209454001Y-106754001D02*
X209454000Y-106754000D01*
X205654000Y-142454000D02*
X204954000Y-141754000D01*
D63*
X153494000Y-135281000D02*
X153494000Y-137138500D01*
D62*
X211279001Y-131603999D02*
X211279001Y-132578999D01*
X212579001Y-112553999D02*
X212579001Y-113654000D01*
X153370000Y-137262500D02*
X153370000Y-137090500D01*
X212579001Y-150653999D02*
X212579001Y-151754000D01*
X176716500Y-104440000D02*
X178540500Y-102616000D01*
X179004000Y-75653500D02*
X179730000Y-74927500D01*
X183603435Y-75692000D02*
X183857435Y-75946000D01*
X172746500Y-138044000D02*
X172661500Y-137959000D01*
X212579001Y-131603999D02*
X212579001Y-132704000D01*
X178540500Y-102616000D02*
X178540500Y-101558250D01*
X212579001Y-93383999D02*
X212579001Y-94484000D01*
X212579001Y-113654000D02*
X212579001Y-115266499D01*
X205654000Y-123404000D02*
X204954000Y-122704000D01*
X209979001Y-106754001D02*
X209454001Y-106754001D01*
X211279001Y-94358999D02*
X211154000Y-94484000D01*
X204954000Y-141416500D02*
X204891500Y-141354000D01*
X209979001Y-87584001D02*
X209454001Y-87584001D01*
X181105900Y-94894400D02*
X179837150Y-94894400D01*
X182167935Y-75692000D02*
X183603435Y-75692000D01*
X204954000Y-84146500D02*
X204891500Y-84084000D01*
X212579001Y-132704000D02*
X212579001Y-134316499D01*
X211279001Y-112553999D02*
X211279001Y-113528999D01*
X212579001Y-115266499D02*
X212491500Y-115354000D01*
X204954000Y-122704000D02*
X204954000Y-122366500D01*
X205654000Y-123404000D02*
X206409000Y-124159000D01*
D63*
X153423800Y-137316300D02*
X153370000Y-137262500D01*
D62*
X212579001Y-151754000D02*
X212579001Y-153366499D01*
X205654000Y-142454000D02*
X206409000Y-143209000D01*
X211279001Y-150653999D02*
X211279001Y-151628999D01*
X179837150Y-94894400D02*
X178670750Y-93728000D01*
X206409000Y-124159000D02*
X206429000Y-124159000D01*
X212579001Y-94484000D02*
X212579001Y-96096499D01*
X204954000Y-84484000D02*
X204954000Y-84146500D01*
X205654000Y-104354000D02*
X204954000Y-103654000D01*
X208554000Y-95784000D02*
X207554000Y-95784000D01*
X206409000Y-143209000D02*
X206429000Y-143209000D01*
X211279001Y-113528999D02*
X211154000Y-113654000D01*
X205654000Y-104354000D02*
X206409000Y-105109000D01*
X208554000Y-134004000D02*
X207554000Y-134004000D01*
X207554000Y-95784000D02*
X207454000Y-95884000D01*
X204954000Y-122366500D02*
X204891500Y-122304000D01*
X204954000Y-141754000D02*
X204954000Y-141416500D01*
X207554000Y-153054000D02*
X207454000Y-153154000D01*
X211279001Y-151628999D02*
X211154000Y-151754000D01*
X209979001Y-125804001D02*
X209454001Y-125804001D01*
X207554000Y-114954000D02*
X207454000Y-115054000D01*
X206409000Y-85939000D02*
X206429000Y-85939000D01*
X172746500Y-140929000D02*
X172746500Y-138044000D01*
X178670750Y-93728000D02*
X178670750Y-92628000D01*
X204954000Y-103654000D02*
X204954000Y-103316500D01*
D60*
X153670000Y-123367800D02*
X153670000Y-133273800D01*
X157304000Y-117781000D02*
X157304000Y-119733800D01*
X157304000Y-119733800D02*
X153670000Y-123367800D01*
X156034000Y-117781000D02*
X156034000Y-119073400D01*
X152323800Y-132537200D02*
X152476200Y-132689600D01*
X156034000Y-119073400D02*
X152323800Y-122783600D01*
X152323800Y-122783600D02*
X152323800Y-132537200D01*
D64*
X165646500Y-93231500D02*
X165646500Y-90043000D01*
D63*
X167300000Y-94885000D02*
X169415000Y-94885000D01*
D64*
X165646500Y-90043000D02*
X165646500Y-75049500D01*
X167300000Y-94885000D02*
X167300000Y-97425000D01*
D63*
X167300000Y-97425000D02*
X169415000Y-97425000D01*
D64*
X167300000Y-94885000D02*
X165646500Y-93231500D01*
D63*
X170389999Y-98695000D02*
X169415000Y-98695000D01*
D64*
X171690000Y-88154000D02*
X172466000Y-87378000D01*
X171690000Y-92049370D02*
X171690000Y-88154000D01*
X171677499Y-97407499D02*
X171677499Y-92061871D01*
D63*
X171677499Y-97407499D02*
X171642498Y-97407499D01*
D64*
X174752000Y-87378000D02*
X172466000Y-87378000D01*
D63*
X171677499Y-97407499D02*
X170389999Y-98695000D01*
X170389999Y-96155000D02*
X169415000Y-96155000D01*
D64*
X171677499Y-92061871D02*
X171690000Y-92049370D01*
D63*
X171642498Y-97407499D02*
X170389999Y-96155000D01*
D64*
X172466000Y-87378000D02*
X169952000Y-87378000D01*
D60*
X202349000Y-88479000D02*
X201279000Y-88479000D01*
X177930000Y-97590000D02*
X177932750Y-97590000D01*
X204354000Y-148254000D02*
X204389000Y-148289000D01*
X202349000Y-126699000D02*
X201279000Y-126699000D01*
X177780000Y-97440000D02*
X177930000Y-97590000D01*
X203954000Y-90984000D02*
X204354000Y-90984000D01*
X202349000Y-107649000D02*
X201279000Y-107649000D01*
X204389000Y-129239000D02*
X206429000Y-129239000D01*
X204354000Y-129204000D02*
X204389000Y-129239000D01*
X202754000Y-108054000D02*
X202349000Y-107649000D01*
X204389000Y-110189000D02*
X206429000Y-110189000D01*
X202754000Y-127104000D02*
X202349000Y-126699000D01*
X204389000Y-91019000D02*
X206429000Y-91019000D01*
X203954000Y-110154000D02*
X204354000Y-110154000D01*
X202349000Y-145749000D02*
X201279000Y-145749000D01*
X174380000Y-97440000D02*
X177780000Y-97440000D01*
X203954000Y-129204000D02*
X204354000Y-129204000D01*
X204354000Y-110154000D02*
X204389000Y-110189000D01*
X203954000Y-148254000D02*
X204354000Y-148254000D01*
X204354000Y-90984000D02*
X204389000Y-91019000D01*
X174365000Y-97425000D02*
X174380000Y-97440000D01*
X202754000Y-146154000D02*
X202349000Y-145749000D01*
X177932750Y-97590000D02*
X178670750Y-98328000D01*
X204389000Y-148289000D02*
X206429000Y-148289000D01*
X202754000Y-88884000D02*
X202349000Y-88479000D01*
X174380000Y-96140000D02*
X178258750Y-96140000D01*
X204664000Y-147019000D02*
X206429000Y-147019000D01*
X204664000Y-108919000D02*
X206429000Y-108919000D01*
X204664000Y-127969000D02*
X206429000Y-127969000D01*
X201279000Y-147019000D02*
X204664000Y-147019000D01*
X201279000Y-89749000D02*
X204664000Y-89749000D01*
X201279000Y-127969000D02*
X204664000Y-127969000D01*
X201279000Y-108919000D02*
X204664000Y-108919000D01*
X178258750Y-96140000D02*
X178670750Y-95728000D01*
X174365000Y-96155000D02*
X174380000Y-96140000D01*
X204664000Y-89749000D02*
X206429000Y-89749000D01*
D63*
X181156700Y-88358200D02*
X180848000Y-88049500D01*
D62*
X176208250Y-94241750D02*
X176208250Y-93010000D01*
X174365000Y-94885000D02*
X175565000Y-94885000D01*
X179366250Y-108013750D02*
X179402500Y-108050000D01*
X177311750Y-107570902D02*
X178923402Y-107570902D01*
X177282500Y-90800000D02*
X177282500Y-91935750D01*
D63*
X181156700Y-92760800D02*
X181156700Y-88358200D01*
D62*
X178923402Y-107570902D02*
X179366250Y-108013750D01*
X177282500Y-91935750D02*
X176208250Y-93010000D01*
X176208250Y-93031750D02*
X176022000Y-93218000D01*
X175565000Y-94885000D02*
X176208250Y-94241750D01*
D60*
X184800000Y-112600000D02*
X195800000Y-112600000D01*
X159800000Y-135300000D02*
X160300000Y-134800000D01*
X211554000Y-115673738D02*
X210773738Y-116454000D01*
X211929002Y-112553999D02*
X211929002Y-113778998D01*
X209254000Y-116454000D02*
X201454000Y-116454000D01*
X211929002Y-113778998D02*
X211554000Y-114154000D01*
X160300000Y-134400000D02*
X178200000Y-116500000D01*
X178200000Y-116500000D02*
X182400000Y-112300000D01*
X201454000Y-116454000D02*
X197600000Y-112600000D01*
X159844000Y-135281000D02*
X159800000Y-135300000D01*
X210773738Y-116454000D02*
X209254000Y-116454000D01*
X160300000Y-134800000D02*
X160300000Y-134400000D01*
X211554000Y-114154000D02*
X211554000Y-115673738D01*
X184500000Y-112300000D02*
X184800000Y-112600000D01*
X182400000Y-112300000D02*
X182700000Y-112300000D01*
X179070400Y-129440000D02*
X179400200Y-129110200D01*
X176080000Y-129440000D02*
X179070400Y-129440000D01*
X196900000Y-99000000D02*
X196900000Y-98900000D01*
X200354000Y-98284000D02*
X199670000Y-97600000D01*
X213854000Y-98184000D02*
X212654000Y-99384000D01*
X161600000Y-134400000D02*
X161600000Y-134300000D01*
X161500000Y-134900000D02*
X161500000Y-134500000D01*
X206054000Y-99384000D02*
X204954000Y-99384000D01*
X161500000Y-134500000D02*
X161600000Y-134400000D01*
X213229002Y-95339390D02*
X213854000Y-95964388D01*
X213854000Y-95964388D02*
X213854000Y-98184000D01*
X196900000Y-98900000D02*
X197500000Y-98300000D01*
X197800000Y-97900000D02*
X197800000Y-97600000D01*
X197500000Y-98200000D02*
X197800000Y-97900000D01*
X213229002Y-93383999D02*
X213229002Y-95339390D01*
X199670000Y-97600000D02*
X197800000Y-97600000D01*
X200554000Y-98484000D02*
X200354000Y-98284000D01*
X204054000Y-98484000D02*
X200554000Y-98484000D01*
X197500000Y-98300000D02*
X197500000Y-98200000D01*
X204954000Y-99384000D02*
X204054000Y-98484000D01*
X161600000Y-134300000D02*
X196900000Y-99000000D01*
X161100000Y-135300000D02*
X161500000Y-134900000D01*
X212654000Y-99384000D02*
X206054000Y-99384000D01*
X182906500Y-140929000D02*
X182900000Y-140900000D01*
X182400000Y-130200000D02*
X182400000Y-134300000D01*
X177700000Y-127400000D02*
X177800000Y-127500000D01*
X179700000Y-127500000D02*
X182400000Y-130200000D01*
X175100000Y-126200000D02*
X175500000Y-126200000D01*
X197800000Y-87200000D02*
X198247000Y-87200000D01*
X187700000Y-101500000D02*
X197900000Y-91300000D01*
X175500000Y-126200000D02*
X175600000Y-126300000D01*
X176800000Y-127400000D02*
X177700000Y-127400000D01*
X182900000Y-108800000D02*
X171800000Y-119900000D01*
X200470000Y-87200000D02*
X197900000Y-87200000D01*
X195600000Y-89400000D02*
X197800000Y-87200000D01*
X187700000Y-101500000D02*
X182900000Y-106300000D01*
X200470000Y-87200000D02*
X200504000Y-87200000D01*
X182906500Y-140929000D02*
X182906500Y-140906500D01*
X182906500Y-140906500D02*
X182900000Y-140900000D01*
X172600000Y-127100000D02*
X174200000Y-127100000D01*
X182900000Y-106300000D02*
X182900000Y-108800000D01*
X177800000Y-127500000D02*
X179700000Y-127500000D01*
X174200000Y-127100000D02*
X175100000Y-126200000D01*
X201279000Y-87209000D02*
X200479000Y-87209000D01*
X175700000Y-126300000D02*
X176800000Y-127400000D01*
X175600000Y-126300000D02*
X175700000Y-126300000D01*
X197900000Y-91300000D02*
X197900000Y-89500000D01*
X163600000Y-135200000D02*
X163600000Y-134500000D01*
X163600000Y-134500000D02*
X165100000Y-133000000D01*
X201279000Y-92289000D02*
X200211000Y-92289000D01*
X201279000Y-92289000D02*
X206429000Y-92289000D01*
X200211000Y-92289000D02*
X163700000Y-128800000D01*
X207254000Y-94184000D02*
X203854000Y-94184000D01*
X209979001Y-93383999D02*
X208054001Y-93383999D01*
X203854000Y-94184000D02*
X203254000Y-93584000D01*
X208054001Y-93383999D02*
X207254000Y-94184000D01*
X203254000Y-93584000D02*
X201304000Y-93584000D01*
X201304000Y-93584000D02*
X201279000Y-93559000D01*
X207609000Y-94829000D02*
X207754000Y-94684000D01*
X206429000Y-94829000D02*
X207609000Y-94829000D01*
X210054000Y-94684000D02*
X210629002Y-94108998D01*
X210629002Y-94108998D02*
X210629002Y-93383999D01*
X207754000Y-94684000D02*
X210054000Y-94684000D01*
X204970000Y-87900000D02*
X197900000Y-87900000D01*
X156000000Y-133800000D02*
X156000000Y-135300000D01*
X197900000Y-87900000D02*
X180400000Y-105400000D01*
X180400000Y-105400000D02*
X180400000Y-108700000D01*
X205549000Y-88479000D02*
X204970000Y-87900000D01*
X156000000Y-135300000D02*
X156034000Y-135281000D01*
X180400000Y-108700000D02*
X180400000Y-109400000D01*
X180400000Y-109400000D02*
X156000000Y-133800000D01*
X196871000Y-125429000D02*
X186300000Y-136000000D01*
X180400000Y-140900000D02*
X180366500Y-140929000D01*
X186300000Y-136000000D02*
X182800000Y-136000000D01*
X180700000Y-140100000D02*
X180400000Y-140400000D01*
X182600000Y-136200000D02*
X182600000Y-137000000D01*
X180400000Y-140400000D02*
X180400000Y-140900000D01*
X182600000Y-137000000D02*
X180700000Y-138900000D01*
X182800000Y-136000000D02*
X182600000Y-136200000D01*
X200479000Y-125429000D02*
X201279000Y-125429000D01*
X200479000Y-125429000D02*
X196871000Y-125429000D01*
X200788000Y-131000000D02*
X194000000Y-131000000D01*
X166900000Y-136400000D02*
X166200000Y-135700000D01*
X173200000Y-135300000D02*
X170400000Y-135300000D01*
X201279000Y-130509000D02*
X200788000Y-131000000D01*
X201279000Y-130509000D02*
X206429000Y-130509000D01*
X174900000Y-135500000D02*
X174100000Y-134700000D01*
X176756400Y-134800000D02*
X176056400Y-135500000D01*
X169300000Y-136400000D02*
X166900000Y-136400000D01*
X188300000Y-133100000D02*
X186600000Y-134800000D01*
X170400000Y-135300000D02*
X169300000Y-136400000D01*
X176056400Y-135500000D02*
X174900000Y-135500000D01*
X166200000Y-135700000D02*
X166200000Y-135300000D01*
X186600000Y-134800000D02*
X176756400Y-134800000D01*
X203254000Y-131804000D02*
X201304000Y-131804000D01*
X201304000Y-131804000D02*
X201279000Y-131779000D01*
X209979001Y-131603999D02*
X208054001Y-131603999D01*
X208054001Y-131603999D02*
X207254000Y-132404000D01*
X207254000Y-132404000D02*
X203854000Y-132404000D01*
X203854000Y-132404000D02*
X203254000Y-131804000D01*
X210054000Y-132904000D02*
X210629002Y-132328998D01*
X207609000Y-133049000D02*
X207754000Y-132904000D01*
X207754000Y-132904000D02*
X210054000Y-132904000D01*
X206429000Y-133049000D02*
X207609000Y-133049000D01*
X210629002Y-132328998D02*
X210629002Y-131603999D01*
X185100000Y-138900000D02*
X181800000Y-138900000D01*
X175300000Y-140400000D02*
X175300000Y-140900000D01*
X197900000Y-126100000D02*
X185100000Y-138900000D01*
X205549000Y-126699000D02*
X204950000Y-126100000D01*
X175300000Y-140900000D02*
X175286500Y-140929000D01*
X204950000Y-126100000D02*
X197900000Y-126100000D01*
X176100000Y-139600000D02*
X175300000Y-140400000D01*
X177200000Y-139600000D02*
X176100000Y-139600000D01*
X178600000Y-138200000D02*
X177200000Y-139600000D01*
X209316500Y-141216500D02*
X208654000Y-141216500D01*
X211929002Y-143829002D02*
X209316500Y-141216500D01*
X211929002Y-144854001D02*
X211929002Y-143829002D01*
X211279001Y-144854001D02*
X211279001Y-143616501D01*
X211279001Y-143616501D02*
X210954000Y-143291500D01*
X210954000Y-143291500D02*
X208654000Y-143291500D01*
D64*
X172646500Y-75049500D02*
X172646500Y-79172500D01*
X172646500Y-75049500D02*
X172646500Y-78583500D01*
X172646500Y-78583500D02*
X169952000Y-81278000D01*
X172646500Y-79172500D02*
X174752000Y-81278000D01*
D60*
X211454000Y-123704000D02*
X211454000Y-123204000D01*
X211454000Y-123204000D02*
X210854000Y-122604000D01*
X210854000Y-122604000D02*
X210854000Y-120041500D01*
X212579001Y-125804001D02*
X212554000Y-125779000D01*
X212354000Y-124604000D02*
X211454000Y-123704000D01*
X212554000Y-125779000D02*
X212554000Y-125004000D01*
X212554000Y-125004000D02*
X212354000Y-124804000D01*
X210854000Y-120041500D02*
X210716500Y-119904000D01*
X212354000Y-124804000D02*
X212354000Y-124604000D01*
X159000000Y-145490000D02*
X159000000Y-143875000D01*
X154510200Y-149707600D02*
X157153700Y-149707600D01*
X157153700Y-149707600D02*
X158546800Y-151100700D01*
X154510200Y-149707600D02*
X154510200Y-148605100D01*
X154510200Y-148605100D02*
X153428300Y-147523200D01*
X158125000Y-140125000D02*
X157000000Y-139000000D01*
X159000000Y-140125000D02*
X158125000Y-140125000D01*
X212354000Y-86384000D02*
X211454000Y-85484000D01*
X212554000Y-87559000D02*
X212554000Y-86784000D01*
X212554000Y-86784000D02*
X212354000Y-86584000D01*
X211454000Y-85484000D02*
X211454000Y-84984000D01*
X210854000Y-84384000D02*
X210854000Y-81821500D01*
X212579001Y-87584001D02*
X212554000Y-87559000D01*
X210854000Y-81821500D02*
X210716500Y-81684000D01*
X212354000Y-86584000D02*
X212354000Y-86384000D01*
X211454000Y-84984000D02*
X210854000Y-84384000D01*
X170206500Y-139396300D02*
X170206500Y-140929000D01*
X169889000Y-139078800D02*
X170206500Y-139396300D01*
X169889000Y-138469000D02*
X169889000Y-139078800D01*
X164030000Y-152855000D02*
X164030000Y-150625200D01*
X164030000Y-150625200D02*
X164287200Y-150368000D01*
X211929002Y-86559002D02*
X209316500Y-83946500D01*
X209316500Y-83946500D02*
X208654000Y-83946500D01*
X211929002Y-87584001D02*
X211929002Y-86559002D01*
X211279001Y-87584001D02*
X211279001Y-86346501D01*
X211279001Y-86346501D02*
X210954000Y-86021500D01*
X210954000Y-86021500D02*
X208654000Y-86021500D01*
X200479000Y-106379000D02*
X201279000Y-106379000D01*
X190921000Y-106379000D02*
X185300000Y-112000000D01*
X182000000Y-140100000D02*
X181600000Y-140500000D01*
X181600000Y-140500000D02*
X181600000Y-140900000D01*
X181600000Y-140900000D02*
X181636500Y-140929000D01*
X200479000Y-106379000D02*
X190921000Y-106379000D01*
X200479000Y-144479000D02*
X195600000Y-139600000D01*
X179900000Y-139600000D02*
X179100000Y-140400000D01*
X201279000Y-144479000D02*
X200479000Y-144479000D01*
X179100000Y-140900000D02*
X179096500Y-140929000D01*
X195600000Y-139600000D02*
X179900000Y-139600000D01*
X179100000Y-140400000D02*
X179100000Y-140900000D01*
X177826500Y-139904001D02*
X181041501Y-136689000D01*
X177826500Y-140929000D02*
X177826500Y-139904001D01*
X181041501Y-136689000D02*
X181801500Y-136689000D01*
X197900000Y-107100000D02*
X193000000Y-112000000D01*
X193000000Y-113200000D02*
X188600000Y-117600000D01*
X205000000Y-107100000D02*
X197900000Y-107100000D01*
X176600000Y-140500000D02*
X176600000Y-140900000D01*
X188600000Y-117600000D02*
X181700000Y-117600000D01*
X176600000Y-140900000D02*
X176556500Y-140929000D01*
X205549000Y-107649000D02*
X205000000Y-107100000D01*
X176900000Y-140200000D02*
X176600000Y-140500000D01*
X197700000Y-145100000D02*
X193900000Y-141300000D01*
X197854000Y-145154000D02*
X204954000Y-145154000D01*
X174900000Y-142300000D02*
X174000000Y-141400000D01*
X193900000Y-141300000D02*
X186800000Y-141300000D01*
X174000000Y-140900000D02*
X174016500Y-140929000D01*
X197794000Y-145094000D02*
X197854000Y-145154000D01*
X185800000Y-142300000D02*
X174900000Y-142300000D01*
X204954000Y-145154000D02*
X205549000Y-145749000D01*
X186800000Y-141300000D02*
X185800000Y-142300000D01*
X174000000Y-141400000D02*
X174000000Y-140900000D01*
X171476500Y-139167700D02*
X171476500Y-140929000D01*
X167665400Y-147828000D02*
X171476500Y-144016900D01*
X171476500Y-144016900D02*
X171476500Y-140929000D01*
X171159000Y-138469000D02*
X171159000Y-138850200D01*
X163030000Y-150228200D02*
X165430200Y-147828000D01*
X165430200Y-147828000D02*
X167665400Y-147828000D01*
X163030000Y-152855000D02*
X163030000Y-150228200D01*
X171159000Y-138850200D02*
X171476500Y-139167700D01*
X166649400Y-159613600D02*
X167005000Y-159258000D01*
X165584600Y-159613600D02*
X166649400Y-159613600D01*
X168936500Y-150229000D02*
X168936500Y-157326500D01*
X168936500Y-157326500D02*
X167005000Y-159258000D01*
X166938200Y-146024600D02*
X167589200Y-146024600D01*
X167589200Y-146024600D02*
X168173400Y-145440400D01*
X175286500Y-151253999D02*
X175004099Y-151536400D01*
X173571600Y-151536400D02*
X171184000Y-153924000D01*
X175004099Y-151536400D02*
X173571600Y-151536400D01*
X175286500Y-150229000D02*
X175286500Y-151253999D01*
X173724000Y-153924000D02*
X176556500Y-151091500D01*
X176556500Y-151091500D02*
X176556500Y-150229000D01*
X177826500Y-152361500D02*
X177826500Y-150229000D01*
X176264000Y-153924000D02*
X177826500Y-152361500D01*
X179096500Y-151890900D02*
X179096500Y-150229000D01*
X178804000Y-153924000D02*
X178804000Y-152183400D01*
X178804000Y-152183400D02*
X179096500Y-151890900D01*
X180366500Y-150216700D02*
X180365400Y-150215600D01*
X180366500Y-150229000D02*
X180366500Y-150216700D01*
X204054000Y-155754000D02*
X200554000Y-155754000D01*
X154800000Y-119700000D02*
X151800000Y-122700000D01*
X166700000Y-150800000D02*
X168700000Y-148800000D01*
X157600000Y-136600000D02*
X162300000Y-141300000D01*
X166500000Y-154000000D02*
X166700000Y-153800000D01*
X151800000Y-132900000D02*
X152800000Y-133900000D01*
X200554000Y-155754000D02*
X199700000Y-154900000D01*
X204954000Y-156654000D02*
X204054000Y-155754000D01*
X199700000Y-154900000D02*
X199700000Y-154854000D01*
X213229002Y-152609390D02*
X213854000Y-153234388D01*
X192400000Y-148800000D02*
X197600000Y-154000000D01*
X154800000Y-117800000D02*
X154800000Y-119700000D01*
X199700000Y-154900000D02*
X199729000Y-154929000D01*
X162300000Y-153600000D02*
X162700000Y-154000000D01*
X151800000Y-122700000D02*
X151800000Y-132900000D01*
X152800000Y-133900000D02*
X155000000Y-133900000D01*
X213854000Y-155454000D02*
X212654000Y-156654000D01*
X154764000Y-117781000D02*
X154800000Y-117800000D01*
X162700000Y-154000000D02*
X166500000Y-154000000D01*
X197600000Y-154000000D02*
X198500000Y-154900000D01*
X166700000Y-153800000D02*
X166700000Y-150800000D01*
X213229002Y-150653999D02*
X213229002Y-152609390D01*
X162300000Y-141300000D02*
X162300000Y-153600000D01*
X198500000Y-154900000D02*
X199700000Y-154900000D01*
X199729000Y-154929000D02*
X199700000Y-154854000D01*
X168700000Y-148800000D02*
X192400000Y-148800000D01*
X213854000Y-153234388D02*
X213854000Y-155454000D01*
X212654000Y-156654000D02*
X204954000Y-156654000D01*
X211929002Y-106754001D02*
X211929002Y-105729002D01*
X211929002Y-105729002D02*
X209316500Y-103116500D01*
X209316500Y-103116500D02*
X208654000Y-103116500D01*
X210954000Y-105191500D02*
X208654000Y-105191500D01*
X211279001Y-106754001D02*
X211279001Y-105516501D01*
X211279001Y-105516501D02*
X210954000Y-105191500D01*
X166636750Y-110905902D02*
X168086750Y-110905902D01*
X168086750Y-110905902D02*
X169136750Y-109855902D01*
X153855000Y-99423198D02*
X153855000Y-105019801D01*
X172361750Y-107570902D02*
X170899249Y-107570902D01*
X158165800Y-94364167D02*
X157833001Y-94696966D01*
X167263415Y-107366833D02*
X167300000Y-107400000D01*
X166700000Y-107400000D02*
X166663415Y-107366833D01*
X159571999Y-109274999D02*
X159006000Y-108709000D01*
X170899249Y-107570902D02*
X170489249Y-107980902D01*
X166300000Y-108000000D02*
X166303415Y-107980902D01*
X159006000Y-92959000D02*
X158165800Y-93799200D01*
X167263415Y-107740902D02*
X167263415Y-107242143D01*
X167600000Y-108000000D02*
X167606375Y-107980902D01*
X170489249Y-107980902D02*
X167503415Y-107980902D01*
X166663415Y-107242143D02*
X166663415Y-107366833D01*
X167263415Y-107242143D02*
X167263415Y-107366833D01*
X157470999Y-108635800D02*
X157544199Y-108709000D01*
X166700000Y-107600000D02*
X166300000Y-108000000D01*
X167606375Y-107980902D02*
X167542158Y-107942158D01*
X156286200Y-108077000D02*
X156845000Y-108635800D01*
X161706803Y-109274999D02*
X159571999Y-109274999D01*
X167300000Y-107400000D02*
X167400000Y-107300000D01*
X166423415Y-107980902D02*
X166303415Y-107980902D01*
X167503415Y-107980902D02*
X167542158Y-107942158D01*
X167023415Y-107002143D02*
X166903415Y-107002143D01*
X166663415Y-107616212D02*
X166611256Y-107688744D01*
X166303415Y-107980902D02*
X164338153Y-107980902D01*
X157544199Y-108709000D02*
X159006000Y-108709000D01*
X164338153Y-107980902D02*
X163000900Y-107980902D01*
X169100000Y-107300000D02*
X169136750Y-107315902D01*
X163000900Y-107980902D02*
X161706803Y-109274999D01*
X157833001Y-95445197D02*
X153855000Y-99423198D01*
X167300000Y-107700000D02*
X167600000Y-108000000D01*
X167300000Y-107400000D02*
X166700000Y-107400000D01*
X156286200Y-107451001D02*
X156286200Y-108077000D01*
X157833001Y-94696966D02*
X157833001Y-95445197D01*
X153855000Y-105019801D02*
X156286200Y-107451001D01*
X167263415Y-107740902D02*
X167300000Y-107700000D01*
X156845000Y-108635800D02*
X157470999Y-108635800D01*
X158165800Y-93799200D02*
X158165800Y-94364167D01*
X166663415Y-107740902D02*
X166611256Y-107688744D01*
X166423415Y-107980902D02*
X166371257Y-107928744D01*
X167400000Y-107300000D02*
X169100000Y-107300000D01*
X166663415Y-107242143D02*
X166663415Y-107740902D01*
X166663415Y-107616212D02*
X166700000Y-107600000D01*
X166903415Y-107002143D02*
G75*
G03*
X166663443Y-107242143I-15J-239957D01*
G01*
X167263415Y-107242143D02*
G75*
G03*
X167023415Y-107002085I-240015J43D01*
G01*
X166663415Y-107740902D02*
G75*
G02*
X166423415Y-107980915I-240015J2D01*
G01*
X167503415Y-107980902D02*
G75*
G02*
X167263398Y-107740902I-15J240002D01*
G01*
X172300000Y-133400000D02*
X174700000Y-135800000D01*
X174700000Y-135800000D02*
X182400000Y-135800000D01*
X211929002Y-151878998D02*
X211554000Y-152254000D01*
X182800000Y-135400000D02*
X186000000Y-135400000D01*
X172200000Y-133200000D02*
X172300000Y-133300000D01*
X161600000Y-118700000D02*
X165500000Y-122600000D01*
X161600000Y-118600000D02*
X161600000Y-118700000D01*
X172200000Y-129200000D02*
X172200000Y-133200000D01*
X210773738Y-154554000D02*
X209254000Y-154554000D01*
X211554000Y-152254000D02*
X211554000Y-153773738D01*
X211929002Y-150653999D02*
X211929002Y-151878998D01*
X209254000Y-154554000D02*
X201654000Y-154554000D01*
X171400000Y-128400000D02*
X172200000Y-129200000D01*
X201654000Y-154554000D02*
X189000000Y-141900000D01*
X211554000Y-153773738D02*
X210773738Y-154554000D01*
X172300000Y-133300000D02*
X172300000Y-133400000D01*
X161500000Y-118500000D02*
X161600000Y-118600000D01*
X161500000Y-118200000D02*
X161500000Y-118500000D01*
X182400000Y-135800000D02*
X182800000Y-135400000D01*
X161100000Y-117800000D02*
X161500000Y-118200000D01*
X153405000Y-102119316D02*
X153405000Y-104060246D01*
X153165000Y-99959316D02*
X152906329Y-99959316D01*
X157226000Y-93975000D02*
X157382999Y-94131999D01*
X157226000Y-109066980D02*
X157226000Y-109725000D01*
X152906329Y-100559316D02*
X153165000Y-100559316D01*
X170489249Y-108430902D02*
X170899249Y-108840902D01*
X152906329Y-101759316D02*
X153165000Y-101759316D01*
X153405000Y-101999316D02*
X153400000Y-102000000D01*
X170899249Y-108840902D02*
X172361750Y-108840902D01*
X153165000Y-101159316D02*
X152906329Y-101159316D01*
X166600000Y-108400000D02*
X166600000Y-108900000D01*
X156656878Y-109066980D02*
X157226000Y-109066980D01*
X157382999Y-94131999D02*
X157382999Y-95258803D01*
X166588206Y-108430902D02*
X166600000Y-108400000D01*
X153405000Y-101999316D02*
X153405000Y-102119316D01*
X155852020Y-107653219D02*
X155852020Y-108262122D01*
X157382999Y-95258803D02*
X153405000Y-99236802D01*
X157226000Y-109725000D02*
X161893198Y-109725000D01*
X153405000Y-100799316D02*
X153405000Y-100919316D01*
X152666329Y-101399316D02*
X152666329Y-101519316D01*
X155852020Y-108262122D02*
X156656878Y-109066980D01*
X153405000Y-105206199D02*
X155852020Y-107653219D01*
X153405000Y-99236802D02*
X153405000Y-99719316D01*
X166600000Y-108900000D02*
X166636750Y-108905902D01*
X161893198Y-109725000D02*
X163187296Y-108430902D01*
X152666329Y-100199316D02*
X152666329Y-100319316D01*
X163187296Y-108430902D02*
X170489249Y-108430902D01*
X153405000Y-104060246D02*
X153405000Y-105206199D01*
X152906329Y-99959316D02*
G75*
G03*
X152666316Y-100199316I-29J-239984D01*
G01*
X152906329Y-101159316D02*
G75*
G03*
X152666316Y-101399316I-29J-239984D01*
G01*
X152666329Y-101519316D02*
G75*
G03*
X152906329Y-101759271I239971J16D01*
G01*
X153405000Y-100919316D02*
G75*
G02*
X153165000Y-101159300I-240000J16D01*
G01*
X152666329Y-100319316D02*
G75*
G03*
X152906329Y-100559271I239971J16D01*
G01*
X153165000Y-101759316D02*
G75*
G02*
X153404984Y-101999316I0J-239984D01*
G01*
X153165000Y-100559316D02*
G75*
G02*
X153404984Y-100799316I0J-239984D01*
G01*
X153405000Y-99719316D02*
G75*
G02*
X153165000Y-99959300I-240000J16D01*
G01*
D63*
X207761500Y-78424500D02*
X211709000Y-78424500D01*
X207566500Y-78229500D02*
X207761500Y-78424500D01*
D60*
X183376500Y-136689000D02*
X185254000Y-136689000D01*
X209254000Y-97284000D02*
X208870000Y-96900000D01*
X211929002Y-93383999D02*
X211929002Y-94608998D01*
X197400000Y-97300000D02*
X197800000Y-96900000D01*
X211929002Y-94608998D02*
X211554000Y-94984000D01*
X208870000Y-96900000D02*
X197800000Y-96900000D01*
X211554000Y-96503738D02*
X210773738Y-97284000D01*
X158574000Y-135281000D02*
X158600000Y-135300000D01*
X159000000Y-134900000D02*
X159000000Y-134400000D01*
X211554000Y-94984000D02*
X211554000Y-96503738D01*
X159000000Y-134400000D02*
X196100000Y-97300000D01*
X210773738Y-97284000D02*
X209254000Y-97284000D01*
X158600000Y-135300000D02*
X159000000Y-134900000D01*
X196100000Y-97300000D02*
X197400000Y-97300000D01*
X211454000Y-104154000D02*
X210854000Y-103554000D01*
X211454000Y-104654000D02*
X211454000Y-104154000D01*
X212554000Y-105954000D02*
X212354000Y-105754000D01*
X210854000Y-103554000D02*
X210854000Y-100991500D01*
X210854000Y-100991500D02*
X210716500Y-100854000D01*
X212354000Y-105554000D02*
X211454000Y-104654000D01*
X212579001Y-106754001D02*
X212554000Y-106729000D01*
X212354000Y-105754000D02*
X212354000Y-105554000D01*
X212554000Y-106729000D02*
X212554000Y-105954000D01*
X176100000Y-124100000D02*
X174800000Y-124100000D01*
X181000000Y-119200000D02*
X176100000Y-124100000D01*
X201279000Y-111459000D02*
X197841000Y-111459000D01*
X197841000Y-111459000D02*
X191100000Y-118200000D01*
X181200000Y-118200000D02*
X181000000Y-118000000D01*
X164900000Y-135300000D02*
X164924000Y-135281000D01*
X201279000Y-111459000D02*
X206429000Y-111459000D01*
X191100000Y-118200000D02*
X181200000Y-118200000D01*
X174800000Y-124100000D02*
X164900000Y-134000000D01*
X164900000Y-134000000D02*
X164900000Y-135300000D01*
X209979001Y-112553999D02*
X208054001Y-112553999D01*
X208054001Y-112553999D02*
X207254000Y-113354000D01*
X203854000Y-113354000D02*
X203254000Y-112754000D01*
X201304000Y-112754000D02*
X201279000Y-112729000D01*
X207254000Y-113354000D02*
X203854000Y-113354000D01*
X203254000Y-112754000D02*
X201304000Y-112754000D01*
X206429000Y-113999000D02*
X207609000Y-113999000D01*
X210054000Y-113854000D02*
X210629002Y-113278998D01*
X210629002Y-113278998D02*
X210629002Y-112553999D01*
X207609000Y-113999000D02*
X207754000Y-113854000D01*
X207754000Y-113854000D02*
X210054000Y-113854000D01*
X209254000Y-135504000D02*
X201104000Y-135504000D01*
X211929002Y-131603999D02*
X211929002Y-132828998D01*
X177000000Y-124200000D02*
X184400000Y-131600000D01*
X184400000Y-131600000D02*
X189800000Y-131600000D01*
X192200000Y-132500000D02*
X193100000Y-131600000D01*
X193100000Y-131600000D02*
X193300000Y-131600000D01*
X168800000Y-117700000D02*
X170500000Y-117700000D01*
X211554000Y-134723738D02*
X210773738Y-135504000D01*
X193300000Y-131600000D02*
X197200000Y-131600000D01*
X168700000Y-117800000D02*
X168800000Y-117700000D01*
X168734000Y-117781000D02*
X168700000Y-117800000D01*
X211554000Y-133204000D02*
X211554000Y-134723738D01*
X210773738Y-135504000D02*
X209254000Y-135504000D01*
X201104000Y-135504000D02*
X197200000Y-131600000D01*
X211929002Y-132828998D02*
X211554000Y-133204000D01*
X204954000Y-137604000D02*
X204054000Y-136704000D01*
X200354000Y-136504000D02*
X196250000Y-132400000D01*
X213854000Y-136404000D02*
X212654000Y-137604000D01*
X159943800Y-114985800D02*
X165514200Y-114985800D01*
X167900000Y-112600000D02*
X171600000Y-112600000D01*
X213854000Y-134184388D02*
X213854000Y-136404000D01*
X206054000Y-137604000D02*
X204954000Y-137604000D01*
X153494000Y-117781000D02*
X153494000Y-116076200D01*
X196250000Y-132400000D02*
X193200000Y-132400000D01*
X212654000Y-137604000D02*
X206054000Y-137604000D01*
X200554000Y-136704000D02*
X200354000Y-136504000D01*
X213229002Y-133559390D02*
X213854000Y-134184388D01*
X181000000Y-120200000D02*
X191100000Y-130300000D01*
X213229002Y-131603999D02*
X213229002Y-133559390D01*
X204054000Y-136704000D02*
X200554000Y-136704000D01*
X154584400Y-114985800D02*
X159943800Y-114985800D01*
X171600000Y-112600000D02*
X172500000Y-111700000D01*
X153494000Y-116076200D02*
X154584400Y-114985800D01*
X165514200Y-114985800D02*
X167900000Y-112600000D01*
X209316500Y-122166500D02*
X208654000Y-122166500D01*
X211929002Y-125804001D02*
X211929002Y-124779002D01*
X211929002Y-124779002D02*
X209316500Y-122166500D01*
X211279001Y-124566501D02*
X210954000Y-124241500D01*
X211279001Y-125804001D02*
X211279001Y-124566501D01*
X210954000Y-124241500D02*
X208654000Y-124241500D01*
X201279000Y-149559000D02*
X197559000Y-149559000D01*
X197559000Y-149559000D02*
X189900000Y-141900000D01*
X160200000Y-128000000D02*
X160200000Y-126500000D01*
X188900000Y-142700000D02*
X172400000Y-142700000D01*
X158600000Y-124900000D02*
X158600000Y-117800000D01*
X160200000Y-126500000D02*
X158600000Y-124900000D01*
X201279000Y-149559000D02*
X206429000Y-149559000D01*
X172400000Y-142700000D02*
X172200000Y-142500000D01*
X158600000Y-117800000D02*
X158574000Y-117781000D01*
X201304000Y-150854000D02*
X201279000Y-150829000D01*
X203254000Y-150854000D02*
X201304000Y-150854000D01*
X203854000Y-151454000D02*
X203254000Y-150854000D01*
X207254000Y-151454000D02*
X203854000Y-151454000D01*
X209979001Y-150653999D02*
X208054001Y-150653999D01*
X208054001Y-150653999D02*
X207254000Y-151454000D01*
X207754000Y-151954000D02*
X210054000Y-151954000D01*
X207609000Y-152099000D02*
X207754000Y-151954000D01*
X206429000Y-152099000D02*
X207609000Y-152099000D01*
X210629002Y-151378998D02*
X210629002Y-150653999D01*
X210054000Y-151954000D02*
X210629002Y-151378998D01*
X174560000Y-131020000D02*
X175059999Y-131020000D01*
X175849999Y-130230000D02*
X176080000Y-130230000D01*
X175059999Y-131020000D02*
X175849999Y-130230000D01*
X175060000Y-111480000D02*
X175060000Y-110670000D01*
X172390000Y-114150000D02*
X175060000Y-111480000D01*
X168460000Y-114150000D02*
X172390000Y-114150000D01*
X175619098Y-110110902D02*
X177311750Y-110110902D01*
X167464000Y-115146000D02*
X168460000Y-114150000D01*
X167464000Y-117781000D02*
X167464000Y-115146000D01*
X175060000Y-110670000D02*
X175619098Y-110110902D01*
X177302652Y-106310000D02*
X175300000Y-106310000D01*
X168010000Y-113070000D02*
X166194000Y-114886000D01*
X166194000Y-114886000D02*
X166194000Y-117781000D01*
X171970000Y-113070000D02*
X168010000Y-113070000D01*
X174300000Y-107310000D02*
X174300000Y-110740000D01*
X174300000Y-110740000D02*
X171970000Y-113070000D01*
X177311750Y-106300902D02*
X177302652Y-106310000D01*
X175300000Y-106310000D02*
X174300000Y-107310000D01*
X179296600Y-132181600D02*
X179425600Y-132052600D01*
X211454000Y-142754000D02*
X211454000Y-142254000D01*
X210854000Y-141654000D02*
X210854000Y-139091500D01*
X212354000Y-143654000D02*
X211454000Y-142754000D01*
X212554000Y-144054000D02*
X212354000Y-143854000D01*
X211454000Y-142254000D02*
X210854000Y-141654000D01*
X212579001Y-144854001D02*
X212554000Y-144829000D01*
X212354000Y-143854000D02*
X212354000Y-143654000D01*
X210854000Y-139091500D02*
X210716500Y-138954000D01*
X212554000Y-144829000D02*
X212554000Y-144054000D01*
G04 #@! TA.AperFunction,Conductor*
G36*
X183850479Y-73765149D02*
G01*
X183851094Y-73765179D01*
X183852379Y-73765220D01*
X183859198Y-73765444D01*
X183862647Y-73765500D01*
X187489768Y-73765500D01*
X187556807Y-73785185D01*
X187602562Y-73837989D01*
X187612506Y-73907147D01*
X187589035Y-73963811D01*
X187524583Y-74049907D01*
X187524581Y-74049910D01*
X187474337Y-74184621D01*
X187474335Y-74184628D01*
X187467935Y-74244146D01*
X187467935Y-76244320D01*
X187448250Y-76311359D01*
X187395446Y-76357114D01*
X187326288Y-76367058D01*
X187309006Y-76363299D01*
X187290260Y-76357795D01*
X187275551Y-76354596D01*
X187240620Y-76349574D01*
X187240622Y-76349574D01*
X187225606Y-76348500D01*
X183271375Y-76348500D01*
X183204336Y-76328815D01*
X183158581Y-76276011D01*
X183148637Y-76206853D01*
X183155378Y-76184964D01*
X183154471Y-76184684D01*
X183157312Y-76175487D01*
X183157312Y-76175485D01*
X183157314Y-76175482D01*
X183167935Y-76102582D01*
X183167935Y-75281417D01*
X183157314Y-75208517D01*
X183102347Y-75096081D01*
X183102346Y-75096080D01*
X183102346Y-75096079D01*
X183013854Y-75007587D01*
X182901418Y-74952620D01*
X182828517Y-74942000D01*
X181507353Y-74942000D01*
X181434452Y-74952620D01*
X181434450Y-74952621D01*
X181322014Y-75007587D01*
X181233522Y-75096079D01*
X181178555Y-75208515D01*
X181167935Y-75281417D01*
X181167935Y-76102581D01*
X181178555Y-76175483D01*
X181233522Y-76287919D01*
X181322014Y-76376411D01*
X181322015Y-76376411D01*
X181322016Y-76376412D01*
X181434452Y-76431379D01*
X181446963Y-76433201D01*
X181510463Y-76462345D01*
X181548128Y-76521193D01*
X181547998Y-76591063D01*
X181544491Y-76600442D01*
X181544685Y-76600515D01*
X181543137Y-76604665D01*
X181538732Y-76619668D01*
X181535531Y-76634382D01*
X181530509Y-76669312D01*
X181529435Y-76684328D01*
X181529435Y-77028533D01*
X181509750Y-77095572D01*
X181456946Y-77141327D01*
X181447919Y-77144421D01*
X181448089Y-77144875D01*
X181312710Y-77195370D01*
X181312707Y-77195372D01*
X181203248Y-77277313D01*
X181121306Y-77386774D01*
X181121179Y-77387016D01*
X181120544Y-77388817D01*
X181078803Y-77500730D01*
X181078802Y-77500734D01*
X181073520Y-77514893D01*
X181071738Y-77522436D01*
X181068943Y-77521775D01*
X181047370Y-77573820D01*
X180989967Y-77613653D01*
X180941993Y-77619672D01*
X180925607Y-77618500D01*
X180925605Y-77618500D01*
X176656032Y-77618500D01*
X176588993Y-77598815D01*
X176543238Y-77546011D01*
X176532034Y-77495261D01*
X176529170Y-77028533D01*
X176525015Y-76351532D01*
X176544288Y-76284375D01*
X176596810Y-76238297D01*
X176665906Y-76227929D01*
X176717902Y-76247670D01*
X176798455Y-76301494D01*
X176798459Y-76301496D01*
X176863731Y-76314479D01*
X176866465Y-76315203D01*
X176871373Y-76316000D01*
X178220626Y-76316000D01*
X178220807Y-76316000D01*
X178222804Y-76315566D01*
X178293540Y-76301496D01*
X178293544Y-76301494D01*
X178376239Y-76246239D01*
X178431494Y-76163544D01*
X178431496Y-76163540D01*
X178445566Y-76092804D01*
X178446000Y-76090807D01*
X178446000Y-75216189D01*
X178445564Y-75214184D01*
X178431496Y-75143460D01*
X178431494Y-75143455D01*
X178376239Y-75060760D01*
X178293544Y-75005505D01*
X178293545Y-75005505D01*
X178293543Y-75005504D01*
X178293537Y-75005502D01*
X178244709Y-74995790D01*
X178220627Y-74991000D01*
X178220626Y-74991000D01*
X176871374Y-74991000D01*
X176871373Y-74991000D01*
X176856871Y-74993884D01*
X176798460Y-75005502D01*
X176798455Y-75005504D01*
X176709383Y-75065021D01*
X176642705Y-75085899D01*
X176575325Y-75067414D01*
X176528635Y-75015436D01*
X176516494Y-74962680D01*
X176516432Y-74952621D01*
X176514056Y-74565369D01*
X179005000Y-74565369D01*
X179005000Y-75289629D01*
X179019503Y-75362539D01*
X179019504Y-75362543D01*
X179019505Y-75362544D01*
X179074760Y-75445239D01*
X179157455Y-75500494D01*
X179157459Y-75500496D01*
X179222731Y-75513479D01*
X179225465Y-75514203D01*
X179230373Y-75515000D01*
X180229626Y-75515000D01*
X180229807Y-75515000D01*
X180231804Y-75514566D01*
X180302540Y-75500496D01*
X180302544Y-75500494D01*
X180385239Y-75445239D01*
X180440494Y-75362544D01*
X180440496Y-75362540D01*
X180454566Y-75291804D01*
X180455000Y-75289807D01*
X180455000Y-74565189D01*
X180454564Y-74563184D01*
X180440496Y-74492460D01*
X180440494Y-74492455D01*
X180385239Y-74409760D01*
X180302544Y-74354505D01*
X180302545Y-74354505D01*
X180302543Y-74354504D01*
X180302537Y-74354502D01*
X180253709Y-74344790D01*
X180229627Y-74340000D01*
X180229626Y-74340000D01*
X179230374Y-74340000D01*
X179230373Y-74340000D01*
X179215871Y-74342884D01*
X179157460Y-74354502D01*
X179157455Y-74354504D01*
X179074760Y-74409760D01*
X179019504Y-74492455D01*
X179019503Y-74492459D01*
X179005000Y-74565369D01*
X176514056Y-74565369D01*
X176509914Y-73890259D01*
X176529187Y-73823102D01*
X176581709Y-73777024D01*
X176633912Y-73765500D01*
X180950999Y-73765500D01*
X181018038Y-73785185D01*
X181063793Y-73837989D01*
X181070342Y-73861890D01*
X181071737Y-73861561D01*
X181073522Y-73869114D01*
X181078801Y-73883266D01*
X181121307Y-73997226D01*
X181203248Y-74106687D01*
X181291112Y-74172461D01*
X181307365Y-74184628D01*
X181312709Y-74188628D01*
X181440821Y-74236412D01*
X181497450Y-74242500D01*
X182838419Y-74242499D01*
X182895049Y-74236412D01*
X183023161Y-74188628D01*
X183132622Y-74106687D01*
X183214563Y-73997226D01*
X183262347Y-73869114D01*
X183262347Y-73869105D01*
X183264130Y-73861566D01*
X183267347Y-73862326D01*
X183288314Y-73811699D01*
X183345704Y-73771848D01*
X183384870Y-73765500D01*
X183725199Y-73765500D01*
X183725223Y-73765500D01*
X183728672Y-73765444D01*
X183736774Y-73765179D01*
X183737251Y-73765155D01*
X183737365Y-73765150D01*
X183743461Y-73765000D01*
X183844400Y-73765000D01*
X183850479Y-73765149D01*
G37*
G04 #@! TD.AperFunction*
G04 #@! TA.AperFunction,Conductor*
G36*
X179796918Y-85857021D02*
G01*
X179807771Y-85860207D01*
X179866552Y-85897977D01*
X179895581Y-85961531D01*
X179885642Y-86030690D01*
X179885635Y-86030705D01*
X179882450Y-86037678D01*
X179857341Y-86073840D01*
X179752526Y-86178655D01*
X179752525Y-86178657D01*
X179669622Y-86313064D01*
X179659991Y-86328678D01*
X179659988Y-86328686D01*
X179614849Y-86464908D01*
X179606401Y-86477855D01*
X179594000Y-86599239D01*
X179594000Y-86599247D01*
X179594000Y-86599249D01*
X179594000Y-87541500D01*
X182101999Y-87541500D01*
X182101999Y-86599264D01*
X182101998Y-86599247D01*
X182091450Y-86495989D01*
X182053973Y-86382892D01*
X182051571Y-86313064D01*
X182087303Y-86253022D01*
X182149823Y-86221829D01*
X182219283Y-86229390D01*
X182240462Y-86240714D01*
X183468980Y-87059727D01*
X183469035Y-87059763D01*
X183470879Y-87060981D01*
X183471542Y-87061415D01*
X183472616Y-87062118D01*
X183472629Y-87062125D01*
X183540519Y-87093465D01*
X183568386Y-87101647D01*
X183607559Y-87113150D01*
X183607563Y-87113150D01*
X183607565Y-87113151D01*
X183619196Y-87114823D01*
X183679544Y-87123500D01*
X185900701Y-87123500D01*
X185967740Y-87143185D01*
X186013495Y-87195989D01*
X186023439Y-87265147D01*
X186007433Y-87310621D01*
X185941144Y-87422709D01*
X185941144Y-87422710D01*
X185906634Y-87541500D01*
X187006170Y-87541500D01*
X187041106Y-87546523D01*
X187056104Y-87550927D01*
X187114855Y-87588672D01*
X187116042Y-87590041D01*
X187143518Y-87644902D01*
X187145163Y-87652460D01*
X187148000Y-87678831D01*
X187148000Y-88415670D01*
X187142975Y-88450614D01*
X187138570Y-88465612D01*
X187100827Y-88524355D01*
X187099458Y-88525542D01*
X187044597Y-88553018D01*
X187037039Y-88554663D01*
X187010668Y-88557500D01*
X185906634Y-88557500D01*
X185941144Y-88676289D01*
X186022043Y-88813082D01*
X186022045Y-88813085D01*
X186022046Y-88813086D01*
X186107919Y-88898959D01*
X186110842Y-88901985D01*
X186150600Y-88944564D01*
X186181966Y-89006997D01*
X186174598Y-89076477D01*
X186130894Y-89130904D01*
X186130111Y-89131450D01*
X186079116Y-89152124D01*
X186077496Y-89152388D01*
X186057570Y-89154000D01*
X183642000Y-89154000D01*
X182118000Y-90423998D01*
X182118000Y-91552170D01*
X182112975Y-91587114D01*
X182108570Y-91602112D01*
X182070827Y-91660855D01*
X182069458Y-91662042D01*
X182014597Y-91689518D01*
X182007039Y-91691163D01*
X181980668Y-91694000D01*
X178333826Y-91694000D01*
X178298893Y-91688978D01*
X178298886Y-91688976D01*
X178284869Y-91684860D01*
X178226092Y-91647087D01*
X178197401Y-91585715D01*
X178195376Y-91573219D01*
X178194492Y-91540140D01*
X178198999Y-91498224D01*
X178199000Y-91498210D01*
X178199000Y-91308000D01*
X176366001Y-91308000D01*
X176366001Y-91498222D01*
X176370387Y-91539024D01*
X176369126Y-91574295D01*
X176366532Y-91588671D01*
X176335256Y-91651150D01*
X176277319Y-91686231D01*
X176265119Y-91689579D01*
X176232303Y-91694000D01*
X175347121Y-91694000D01*
X175312182Y-91688976D01*
X175293235Y-91683412D01*
X175239642Y-91651258D01*
X175233449Y-91644943D01*
X175216375Y-91623109D01*
X174947913Y-91186858D01*
X174934207Y-91155642D01*
X174925185Y-91123769D01*
X174920500Y-91090003D01*
X174920500Y-90116740D01*
X174920442Y-90116342D01*
X174920443Y-90116341D01*
X174920440Y-90116329D01*
X174918318Y-90101763D01*
X176366000Y-90101763D01*
X176366000Y-90101772D01*
X176366000Y-90292000D01*
X176774500Y-90292000D01*
X176774500Y-89651083D01*
X177790500Y-89651083D01*
X177790500Y-90292000D01*
X178198999Y-90292000D01*
X178198999Y-90101792D01*
X178198998Y-90101783D01*
X178192547Y-90041764D01*
X178192546Y-90041761D01*
X178141900Y-89905978D01*
X178141896Y-89905972D01*
X178069625Y-89809426D01*
X178055047Y-89789951D01*
X177973100Y-89728609D01*
X177939027Y-89703103D01*
X177939021Y-89703099D01*
X177803237Y-89652452D01*
X177803238Y-89652452D01*
X177790500Y-89651082D01*
X177790500Y-89651083D01*
X176774500Y-89651083D01*
X176761763Y-89652453D01*
X176761761Y-89652453D01*
X176761758Y-89652454D01*
X176625977Y-89703099D01*
X176509951Y-89789951D01*
X176423103Y-89905971D01*
X176423095Y-89905988D01*
X176372452Y-90041764D01*
X176372451Y-90041770D01*
X176366000Y-90101763D01*
X174918318Y-90101763D01*
X174911869Y-90057502D01*
X174911521Y-90052706D01*
X174910573Y-90048608D01*
X174908796Y-90044974D01*
X174860877Y-89946952D01*
X174859434Y-89943753D01*
X174859196Y-89943514D01*
X174776485Y-89860803D01*
X174671391Y-89809426D01*
X174603261Y-89799500D01*
X174603260Y-89799500D01*
X174603255Y-89799500D01*
X174181275Y-89799500D01*
X174146336Y-89794476D01*
X174127389Y-89788912D01*
X174073796Y-89756758D01*
X174067603Y-89750443D01*
X174050529Y-89728609D01*
X173909700Y-89499762D01*
X179594001Y-89499762D01*
X179604548Y-89603006D01*
X179604548Y-89603007D01*
X179604549Y-89603010D01*
X179631665Y-89684841D01*
X179659986Y-89770307D01*
X179659990Y-89770320D01*
X179659992Y-89770324D01*
X179659993Y-89770325D01*
X179752525Y-89920342D01*
X179877157Y-90044974D01*
X180027174Y-90137506D01*
X180027179Y-90137508D01*
X180027189Y-90137511D01*
X180027196Y-90137514D01*
X180163407Y-90182649D01*
X180176354Y-90191097D01*
X180194491Y-90192949D01*
X180194491Y-90192950D01*
X180286966Y-90202396D01*
X180297726Y-90203496D01*
X180297756Y-90203499D01*
X180340000Y-90203499D01*
X181356000Y-90203499D01*
X181398225Y-90203499D01*
X181398236Y-90203499D01*
X181398252Y-90203498D01*
X181501510Y-90192950D01*
X181668820Y-90137508D01*
X181668825Y-90137506D01*
X181818842Y-90044974D01*
X181943474Y-89920342D01*
X182036006Y-89770325D01*
X182036008Y-89770320D01*
X182081149Y-89634090D01*
X182089597Y-89621143D01*
X182091450Y-89603008D01*
X182101999Y-89499750D01*
X182102000Y-89499737D01*
X182102000Y-88557500D01*
X181356000Y-88557500D01*
X181356000Y-90203499D01*
X180340000Y-90203499D01*
X180340000Y-88557500D01*
X179594001Y-88557500D01*
X179594001Y-89499762D01*
X173909700Y-89499762D01*
X173556280Y-88925455D01*
X173384289Y-88645970D01*
X173370257Y-88613581D01*
X173366609Y-88600193D01*
X173367976Y-88530337D01*
X173406864Y-88472335D01*
X173407404Y-88471885D01*
X173461624Y-88445724D01*
X173468113Y-88444378D01*
X173493273Y-88441800D01*
X174860896Y-88441800D01*
X174868745Y-88439418D01*
X175021123Y-88409109D01*
X175022051Y-88409192D01*
X175096520Y-88394382D01*
X175120707Y-88392000D01*
X176784000Y-88392000D01*
X176784000Y-85993829D01*
X176789023Y-85958893D01*
X176793427Y-85943895D01*
X176831172Y-85885144D01*
X176832541Y-85883957D01*
X176887420Y-85856477D01*
X176894979Y-85854833D01*
X176921332Y-85852000D01*
X179761991Y-85852000D01*
X179796918Y-85857021D01*
G37*
G04 #@! TD.AperFunction*
G04 #@! TA.AperFunction,Conductor*
G36*
X223296977Y-147768718D02*
G01*
X223342764Y-147821494D01*
X223354000Y-147873073D01*
X223354000Y-152030000D01*
X223334315Y-152097039D01*
X223281511Y-152142794D01*
X223230000Y-152154000D01*
X214451117Y-152154000D01*
X214384078Y-152134315D01*
X214363436Y-152117681D01*
X214235820Y-151990065D01*
X214202335Y-151928742D01*
X214199501Y-151902384D01*
X214199501Y-151451247D01*
X214201884Y-151427053D01*
X214204501Y-151413898D01*
X214204500Y-149894101D01*
X214201883Y-149880941D01*
X214199501Y-149856755D01*
X214199501Y-149678500D01*
X214219186Y-149611461D01*
X214271990Y-149565706D01*
X214323501Y-149554500D01*
X214763895Y-149554500D01*
X214763898Y-149554500D01*
X214793213Y-149548670D01*
X214826457Y-149526458D01*
X214848669Y-149493214D01*
X214854500Y-149463900D01*
X214855689Y-149457925D01*
X214857374Y-149458260D01*
X214880460Y-149401070D01*
X214937490Y-149360704D01*
X214949257Y-149358742D01*
X214954000Y-149354000D01*
X214954000Y-147877926D01*
X214973685Y-147810887D01*
X215026489Y-147765132D01*
X215077924Y-147753926D01*
X223229928Y-147749073D01*
X223296977Y-147768718D01*
G37*
G04 #@! TD.AperFunction*
G04 #@! TA.AperFunction,Conductor*
G36*
X223296977Y-128718718D02*
G01*
X223342764Y-128771494D01*
X223354000Y-128823073D01*
X223354000Y-132980000D01*
X223334315Y-133047039D01*
X223281511Y-133092794D01*
X223230000Y-133104000D01*
X214323501Y-133104000D01*
X214256462Y-133084315D01*
X214210707Y-133031511D01*
X214199501Y-132980000D01*
X214199501Y-132401247D01*
X214201884Y-132377053D01*
X214204501Y-132363898D01*
X214204500Y-130844101D01*
X214201883Y-130830941D01*
X214199501Y-130806755D01*
X214199501Y-130628500D01*
X214219186Y-130561461D01*
X214271990Y-130515706D01*
X214323501Y-130504500D01*
X214763895Y-130504500D01*
X214763898Y-130504500D01*
X214793213Y-130498670D01*
X214826457Y-130476458D01*
X214848669Y-130443214D01*
X214854500Y-130413900D01*
X214855689Y-130407925D01*
X214857374Y-130408260D01*
X214880460Y-130351070D01*
X214937490Y-130310704D01*
X214949257Y-130308742D01*
X214954000Y-130304000D01*
X214954000Y-128827926D01*
X214973685Y-128760887D01*
X215026489Y-128715132D01*
X215077924Y-128703926D01*
X223229928Y-128699073D01*
X223296977Y-128718718D01*
G37*
G04 #@! TD.AperFunction*
G04 #@! TA.AperFunction,Conductor*
G36*
X187260542Y-76459023D02*
G01*
X187275540Y-76463427D01*
X187334291Y-76501172D01*
X187335478Y-76502541D01*
X187362954Y-76557402D01*
X187364599Y-76564960D01*
X187367436Y-76591331D01*
X187367436Y-77131363D01*
X187382888Y-77248752D01*
X187382893Y-77248769D01*
X187443398Y-77394839D01*
X187443399Y-77394841D01*
X187539653Y-77520282D01*
X187665094Y-77616536D01*
X187811173Y-77677044D01*
X187928574Y-77692500D01*
X189007295Y-77692499D01*
X189007298Y-77692499D01*
X189007300Y-77692499D01*
X189116647Y-77678105D01*
X189120690Y-77677839D01*
X189124818Y-77677158D01*
X189128720Y-77675377D01*
X189270776Y-77616536D01*
X189396217Y-77520282D01*
X189492471Y-77394841D01*
X189552979Y-77248762D01*
X189568435Y-77131361D01*
X189568435Y-76595829D01*
X189573458Y-76560893D01*
X189577862Y-76545895D01*
X189615607Y-76487144D01*
X189616976Y-76485957D01*
X189671855Y-76458477D01*
X189679414Y-76456833D01*
X189705767Y-76454000D01*
X194066105Y-76454000D01*
X194101041Y-76459023D01*
X194116039Y-76463427D01*
X194174790Y-76501172D01*
X194175977Y-76502541D01*
X194203453Y-76557402D01*
X194205098Y-76564960D01*
X194207935Y-76591331D01*
X194207935Y-78612999D01*
X194188250Y-78680038D01*
X194135446Y-78725793D01*
X194084171Y-78736998D01*
X193670186Y-78737784D01*
X193417265Y-78738265D01*
X193363221Y-78744155D01*
X193363218Y-78744155D01*
X193363213Y-78744156D01*
X193363208Y-78744156D01*
X193363189Y-78744160D01*
X193311945Y-78755360D01*
X193285800Y-78762546D01*
X193199177Y-78811873D01*
X193199173Y-78811876D01*
X193146371Y-78857628D01*
X193114743Y-78890405D01*
X193068534Y-78978742D01*
X193068533Y-78978742D01*
X193048851Y-79045774D01*
X193048848Y-79045786D01*
X193038500Y-79117763D01*
X193038500Y-82424500D01*
X193018815Y-82491539D01*
X192966011Y-82537294D01*
X192914500Y-82548500D01*
X192769956Y-82548500D01*
X192763880Y-82548608D01*
X192760840Y-82548663D01*
X192751993Y-82548979D01*
X192751988Y-82548979D01*
X192671828Y-82564924D01*
X192606362Y-82589342D01*
X192542528Y-82624198D01*
X192515327Y-82644559D01*
X192484358Y-82661470D01*
X192447603Y-82675180D01*
X192404266Y-82682999D01*
X189360602Y-82682999D01*
X189317269Y-82675181D01*
X189280515Y-82661472D01*
X189249542Y-82644560D01*
X189247830Y-82643279D01*
X189222337Y-82624195D01*
X189214918Y-82618846D01*
X189207646Y-82613798D01*
X189207645Y-82613797D01*
X189207643Y-82613796D01*
X189207637Y-82613793D01*
X189133941Y-82578538D01*
X189133942Y-82578538D01*
X189133937Y-82578536D01*
X189133934Y-82578535D01*
X189066895Y-82558850D01*
X189066893Y-82558849D01*
X189066891Y-82558849D01*
X189066888Y-82558848D01*
X188994911Y-82548500D01*
X188994910Y-82548500D01*
X186149460Y-82548500D01*
X186149456Y-82548500D01*
X186143380Y-82548608D01*
X186140340Y-82548663D01*
X186131493Y-82548979D01*
X186131488Y-82548979D01*
X186051328Y-82564924D01*
X185985862Y-82589342D01*
X185922028Y-82624198D01*
X185894827Y-82644559D01*
X185863858Y-82661470D01*
X185827103Y-82675180D01*
X185783766Y-82682999D01*
X182740102Y-82682999D01*
X182696769Y-82675181D01*
X182660015Y-82661472D01*
X182629042Y-82644560D01*
X182627330Y-82643279D01*
X182601837Y-82624195D01*
X182594418Y-82618846D01*
X182587146Y-82613798D01*
X182587145Y-82613797D01*
X182587143Y-82613796D01*
X182587137Y-82613793D01*
X182513441Y-82578538D01*
X182513442Y-82578538D01*
X182513437Y-82578536D01*
X182513434Y-82578535D01*
X182446395Y-82558850D01*
X182446393Y-82558849D01*
X182446391Y-82558849D01*
X182446388Y-82558848D01*
X182374411Y-82548500D01*
X182374410Y-82548500D01*
X181756377Y-82548500D01*
X181756373Y-82548500D01*
X181753468Y-82548516D01*
X181750748Y-82548546D01*
X181748032Y-82548779D01*
X181747088Y-82548587D01*
X181746140Y-82548598D01*
X181746137Y-82548394D01*
X181679559Y-82534879D01*
X181629470Y-82486167D01*
X181613469Y-82424098D01*
X181634935Y-80073462D01*
X181634935Y-76684328D01*
X181639958Y-76649392D01*
X181644362Y-76634394D01*
X181682137Y-76575616D01*
X181682141Y-76575613D01*
X181683511Y-76574426D01*
X181738350Y-76546977D01*
X181745907Y-76545333D01*
X181772266Y-76542499D01*
X182838416Y-76542499D01*
X182838419Y-76542499D01*
X182895049Y-76536412D01*
X183023161Y-76488628D01*
X183023167Y-76488623D01*
X183030945Y-76484377D01*
X183031035Y-76484542D01*
X183053082Y-76472502D01*
X183081728Y-76461817D01*
X183125061Y-76454000D01*
X187225606Y-76454000D01*
X187260542Y-76459023D01*
G37*
G04 #@! TD.AperFunction*
G04 #@! TA.AperFunction,Conductor*
G36*
X216189959Y-138173685D02*
G01*
X216235714Y-138226489D01*
X216246729Y-138284878D01*
X216158101Y-139880166D01*
X216134728Y-139946011D01*
X216087091Y-139985485D01*
X214454000Y-140753999D01*
X214454000Y-142087637D01*
X214434315Y-142154676D01*
X214398783Y-142190811D01*
X213554000Y-142753999D01*
X213554000Y-143880405D01*
X213534315Y-143947444D01*
X213518079Y-143967592D01*
X213476153Y-144030337D01*
X213465201Y-144085400D01*
X213465201Y-145628689D01*
X213462679Y-145628689D01*
X213451709Y-145686502D01*
X213403639Y-145737208D01*
X213341330Y-145754000D01*
X213116672Y-145754000D01*
X213049633Y-145734315D01*
X213003878Y-145681511D01*
X212995074Y-145628689D01*
X212992801Y-145628689D01*
X212992801Y-144085404D01*
X212992800Y-144085400D01*
X212981848Y-144030336D01*
X212981847Y-144030335D01*
X212940118Y-143967883D01*
X212877666Y-143926154D01*
X212859004Y-143922442D01*
X212797093Y-143890057D01*
X212785520Y-143877095D01*
X212679119Y-143770694D01*
X212645634Y-143709371D01*
X212642800Y-143683013D01*
X212642800Y-143615981D01*
X212642800Y-143615979D01*
X212623119Y-143542527D01*
X212601469Y-143505029D01*
X212585097Y-143476672D01*
X212585092Y-143476667D01*
X212580150Y-143470226D01*
X212582826Y-143468172D01*
X212556834Y-143420571D01*
X212554000Y-143394213D01*
X212554000Y-143354000D01*
X211768920Y-142344610D01*
X211743300Y-142279607D01*
X211742800Y-142268481D01*
X211742800Y-142215981D01*
X211742799Y-142215977D01*
X211723121Y-142142532D01*
X211723119Y-142142528D01*
X211723119Y-142142527D01*
X211718467Y-142134469D01*
X211685097Y-142076672D01*
X211685096Y-142076671D01*
X211685095Y-142076669D01*
X211190319Y-141581893D01*
X211156834Y-141520570D01*
X211154000Y-141494212D01*
X211154000Y-139946878D01*
X211173685Y-139879839D01*
X211226489Y-139834084D01*
X211237033Y-139829841D01*
X211261353Y-139821332D01*
X211367783Y-139742783D01*
X211446332Y-139636353D01*
X211490020Y-139511499D01*
X211492800Y-139481852D01*
X211492800Y-138426148D01*
X211490020Y-138396501D01*
X211462884Y-138318952D01*
X211459324Y-138249176D01*
X211494053Y-138188548D01*
X211556046Y-138156321D01*
X211579927Y-138154000D01*
X216122920Y-138154000D01*
X216189959Y-138173685D01*
G37*
G04 #@! TD.AperFunction*
G04 #@! TA.AperFunction,Conductor*
G36*
X206506197Y-71440185D02*
G01*
X206551952Y-71492989D01*
X206562842Y-71553343D01*
X206562200Y-71562318D01*
X206562200Y-75910912D01*
X206569101Y-75962161D01*
X206586449Y-76025420D01*
X206606664Y-76073032D01*
X206606665Y-76073035D01*
X206609336Y-76077536D01*
X206609337Y-76077539D01*
X206609340Y-76077542D01*
X206609342Y-76077546D01*
X206612759Y-76081787D01*
X206639491Y-76146338D01*
X206640200Y-76159583D01*
X206640200Y-76507039D01*
X206620516Y-76574078D01*
X206601897Y-76603050D01*
X206578980Y-76653234D01*
X206577500Y-76658277D01*
X206539729Y-76717058D01*
X206476175Y-76746086D01*
X206439125Y-76745823D01*
X206310796Y-76725500D01*
X206310795Y-76725500D01*
X205991500Y-76725500D01*
X205991500Y-77833499D01*
X206310799Y-77833499D01*
X206334478Y-77833499D01*
X206343624Y-77828504D01*
X206350577Y-77827198D01*
X206388004Y-77821271D01*
X206395759Y-77820043D01*
X206400638Y-77819659D01*
X206405395Y-77818517D01*
X206482239Y-77779362D01*
X206550907Y-77766466D01*
X206615648Y-77792742D01*
X206639315Y-77817603D01*
X206650910Y-77833779D01*
X206650912Y-77833780D01*
X206650914Y-77833783D01*
X206696072Y-77869172D01*
X206736695Y-77926016D01*
X206741202Y-77990960D01*
X206728500Y-78054822D01*
X206728500Y-78404176D01*
X206740415Y-78464080D01*
X206734186Y-78533671D01*
X206705579Y-78576842D01*
X206639742Y-78641347D01*
X206639741Y-78641348D01*
X206601972Y-78700118D01*
X206601963Y-78700134D01*
X206589370Y-78727711D01*
X206543615Y-78780515D01*
X206476576Y-78800200D01*
X199503396Y-78800200D01*
X199436357Y-78780515D01*
X199390602Y-78727711D01*
X199380658Y-78658553D01*
X199384429Y-78641231D01*
X199386802Y-78633160D01*
X199386803Y-78633154D01*
X199386804Y-78633150D01*
X199391084Y-78603442D01*
X199391085Y-78603438D01*
X199391148Y-78404176D01*
X199391407Y-77579500D01*
X204727010Y-77579500D01*
X204773085Y-77669926D01*
X204773088Y-77669932D01*
X204863566Y-77760410D01*
X204863568Y-77760411D01*
X204863569Y-77760412D01*
X204863573Y-77760415D01*
X204977605Y-77818517D01*
X205072198Y-77833498D01*
X205072199Y-77833499D01*
X205072204Y-77833499D01*
X205391499Y-77833499D01*
X205391500Y-77833498D01*
X205391500Y-77579500D01*
X204727010Y-77579500D01*
X199391407Y-77579500D01*
X199391409Y-77573882D01*
X199392704Y-73451263D01*
X200476500Y-73451263D01*
X200476500Y-74541500D01*
X201016200Y-74541500D01*
X201083239Y-74561185D01*
X201128994Y-74613989D01*
X201138938Y-74683147D01*
X201123587Y-74727501D01*
X201071389Y-74817908D01*
X201030500Y-74970509D01*
X201030500Y-75128490D01*
X201071389Y-75281091D01*
X201123587Y-75371499D01*
X201140060Y-75439399D01*
X201117208Y-75505426D01*
X201062287Y-75548617D01*
X201016200Y-75557500D01*
X200476501Y-75557500D01*
X200476501Y-76647722D01*
X200481429Y-76693568D01*
X200482952Y-76707735D01*
X200482953Y-76707738D01*
X200517491Y-76800336D01*
X200533599Y-76843521D01*
X200620451Y-76959547D01*
X200707300Y-77024558D01*
X200736472Y-77046396D01*
X200736474Y-77046397D01*
X200736480Y-77046399D01*
X200736488Y-77046403D01*
X200852183Y-77089555D01*
X200872268Y-77097047D01*
X200932280Y-77103499D01*
X201122499Y-77103499D01*
X201122500Y-77103498D01*
X201122500Y-75663800D01*
X201142185Y-75596761D01*
X201194989Y-75551006D01*
X201264147Y-75541062D01*
X201308498Y-75556412D01*
X201398909Y-75608611D01*
X201551509Y-75649500D01*
X201709489Y-75649500D01*
X201709491Y-75649500D01*
X201862091Y-75608611D01*
X201952500Y-75556412D01*
X202020399Y-75539940D01*
X202086426Y-75562792D01*
X202129617Y-75617713D01*
X202138500Y-75663800D01*
X202138500Y-77103499D01*
X202328707Y-77103499D01*
X202328718Y-77103498D01*
X202328918Y-77103476D01*
X202388735Y-77097047D01*
X202388738Y-77097046D01*
X202524521Y-77046400D01*
X202524527Y-77046396D01*
X202613893Y-76979499D01*
X204727008Y-76979499D01*
X204727010Y-76979500D01*
X205391500Y-76979500D01*
X205391500Y-76725500D01*
X205048511Y-76725500D01*
X205039358Y-76730497D01*
X205032406Y-76731802D01*
X204987243Y-76738955D01*
X204982363Y-76739339D01*
X204977605Y-76740481D01*
X204863577Y-76798581D01*
X204863566Y-76798588D01*
X204773088Y-76889066D01*
X204773079Y-76889080D01*
X204727009Y-76979497D01*
X204727009Y-76979499D01*
X204727008Y-76979499D01*
X202613893Y-76979499D01*
X202640545Y-76959548D01*
X202677061Y-76910769D01*
X202677062Y-76910767D01*
X202727396Y-76843527D01*
X202727397Y-76843525D01*
X202744159Y-76798587D01*
X202778046Y-76707734D01*
X202778047Y-76707729D01*
X202784498Y-76647739D01*
X202784498Y-76647737D01*
X202784500Y-76647710D01*
X202784500Y-75557500D01*
X202244800Y-75557500D01*
X202177761Y-75537815D01*
X202132006Y-75485011D01*
X202122062Y-75415853D01*
X202137413Y-75371499D01*
X202189611Y-75281091D01*
X202230500Y-75128491D01*
X202230500Y-74970509D01*
X202189611Y-74817909D01*
X202137412Y-74727499D01*
X202120940Y-74659601D01*
X202143792Y-74593574D01*
X202198713Y-74550383D01*
X202244800Y-74541500D01*
X202784499Y-74541500D01*
X202784499Y-73451292D01*
X202784498Y-73451283D01*
X202784450Y-73450840D01*
X202778047Y-73391264D01*
X202778046Y-73391261D01*
X202727400Y-73255478D01*
X202727396Y-73255472D01*
X202684139Y-73197686D01*
X202640547Y-73139451D01*
X202524527Y-73052603D01*
X202524510Y-73052595D01*
X202388734Y-73001952D01*
X202388728Y-73001951D01*
X202328735Y-72995500D01*
X202328727Y-72995500D01*
X202138500Y-72995500D01*
X202138500Y-74435199D01*
X202118815Y-74502238D01*
X202066011Y-74547993D01*
X201996853Y-74557937D01*
X201952500Y-74542586D01*
X201862094Y-74490390D01*
X201862091Y-74490389D01*
X201709491Y-74449500D01*
X201709490Y-74449500D01*
X201551509Y-74449500D01*
X201398909Y-74490389D01*
X201398908Y-74490389D01*
X201398906Y-74490390D01*
X201398905Y-74490390D01*
X201308500Y-74542586D01*
X201240600Y-74559059D01*
X201174573Y-74536206D01*
X201131382Y-74481285D01*
X201122500Y-74435199D01*
X201122500Y-72995500D01*
X200932293Y-72995500D01*
X200932291Y-72995500D01*
X200872263Y-73001952D01*
X200736477Y-73052599D01*
X200620451Y-73139451D01*
X200533603Y-73255471D01*
X200533595Y-73255488D01*
X200482952Y-73391264D01*
X200482951Y-73391270D01*
X200476500Y-73451263D01*
X199392704Y-73451263D01*
X199392705Y-73447912D01*
X199393298Y-71557945D01*
X199393298Y-71557929D01*
X199393297Y-71557928D01*
X199393298Y-71557913D01*
X199392934Y-71551107D01*
X199409017Y-71483117D01*
X199459306Y-71434612D01*
X199516758Y-71420500D01*
X206439158Y-71420500D01*
X206506197Y-71440185D01*
G37*
G04 #@! TD.AperFunction*
G04 #@! TA.AperFunction,Conductor*
G36*
X199180909Y-71425523D02*
G01*
X199195907Y-71429927D01*
X199254656Y-71467669D01*
X199255837Y-71469031D01*
X199283324Y-71523936D01*
X199284970Y-71531511D01*
X199287798Y-71557880D01*
X199285585Y-78603405D01*
X199265879Y-78670438D01*
X199213061Y-78716177D01*
X199161821Y-78727365D01*
X195253957Y-78734779D01*
X194437670Y-78736328D01*
X194370594Y-78716770D01*
X194324739Y-78664053D01*
X194313435Y-78612328D01*
X194313435Y-76591330D01*
X194313380Y-76590305D01*
X194312830Y-76580046D01*
X194309993Y-76553675D01*
X194308185Y-76542523D01*
X194306540Y-76534965D01*
X194297784Y-76510158D01*
X194270308Y-76455297D01*
X194255687Y-76433428D01*
X194254500Y-76432059D01*
X194231815Y-76412412D01*
X194231812Y-76412409D01*
X194173072Y-76374672D01*
X194173064Y-76374667D01*
X194145763Y-76362201D01*
X194145758Y-76362199D01*
X194145757Y-76362199D01*
X194130760Y-76357795D01*
X194116050Y-76354596D01*
X194081119Y-76349574D01*
X194081121Y-76349574D01*
X194066105Y-76348500D01*
X189705767Y-76348500D01*
X189704409Y-76348572D01*
X189699057Y-76348859D01*
X189631062Y-76332783D01*
X189582552Y-76282498D01*
X189568434Y-76225039D01*
X189568434Y-74252636D01*
X189554040Y-74143288D01*
X189553774Y-74139237D01*
X189553203Y-74135780D01*
X189552979Y-74135239D01*
X189552979Y-74135238D01*
X189498110Y-74002775D01*
X189491055Y-73979514D01*
X189486382Y-73956018D01*
X189484000Y-73931830D01*
X189484000Y-73660000D01*
X183862647Y-73660000D01*
X183854545Y-73659735D01*
X183852020Y-73659569D01*
X183850957Y-73659500D01*
X183850956Y-73659500D01*
X183736914Y-73659500D01*
X183736913Y-73659500D01*
X183735849Y-73659569D01*
X183733325Y-73659735D01*
X183725223Y-73660000D01*
X176403001Y-73660000D01*
X176403000Y-73660000D01*
X176427935Y-77724000D01*
X180925605Y-77724000D01*
X180960541Y-77729023D01*
X180975539Y-77733427D01*
X181034290Y-77771172D01*
X181035477Y-77772541D01*
X181062953Y-77827402D01*
X181064598Y-77834960D01*
X181067435Y-77861331D01*
X181067435Y-78412481D01*
X181067436Y-78412490D01*
X181067484Y-78412934D01*
X181073521Y-78469112D01*
X181073522Y-78469114D01*
X181096379Y-78530393D01*
X181112009Y-78572299D01*
X181121307Y-78597227D01*
X181132612Y-78612328D01*
X181203248Y-78706687D01*
X181312709Y-78788628D01*
X181440821Y-78836412D01*
X181440824Y-78836412D01*
X181448089Y-78839122D01*
X181446939Y-78842204D01*
X181494585Y-78869276D01*
X181527029Y-78931156D01*
X181529435Y-78955464D01*
X181529435Y-79948782D01*
X181509750Y-80015821D01*
X181456946Y-80061576D01*
X181405048Y-80072781D01*
X175100294Y-80053103D01*
X175065377Y-80047972D01*
X175040094Y-80040463D01*
X174987717Y-80009276D01*
X173759226Y-78780785D01*
X173738074Y-78752529D01*
X173725467Y-78729440D01*
X173710300Y-78670015D01*
X173710300Y-76777026D01*
X173712051Y-76756261D01*
X173712053Y-76756251D01*
X173715507Y-76735918D01*
X173720712Y-76715743D01*
X173732520Y-76681999D01*
X173735300Y-76652352D01*
X173735300Y-73446648D01*
X173732520Y-73417001D01*
X173688832Y-73292147D01*
X173610283Y-73185717D01*
X173503853Y-73107168D01*
X173503851Y-73107167D01*
X173379017Y-73063485D01*
X173379002Y-73063480D01*
X173378999Y-73063479D01*
X173378997Y-73063479D01*
X173349356Y-73060700D01*
X173349352Y-73060700D01*
X173349350Y-73060700D01*
X171943650Y-73060700D01*
X171943648Y-73060700D01*
X171943644Y-73060700D01*
X171914002Y-73063479D01*
X171913999Y-73063479D01*
X171913997Y-73063480D01*
X171913995Y-73063480D01*
X171913981Y-73063485D01*
X171789145Y-73107167D01*
X171682716Y-73185716D01*
X171604167Y-73292145D01*
X171560485Y-73416981D01*
X171560480Y-73416995D01*
X171560480Y-73416997D01*
X171560480Y-73416999D01*
X171560479Y-73417002D01*
X171557700Y-73446643D01*
X171557700Y-76652356D01*
X171558919Y-76665364D01*
X171560478Y-76681991D01*
X171560480Y-76682000D01*
X171572287Y-76715743D01*
X171577492Y-76735921D01*
X171580947Y-76756251D01*
X171582700Y-76777026D01*
X171582700Y-78073667D01*
X171577676Y-78108604D01*
X171570264Y-78133845D01*
X171538969Y-78186589D01*
X169738429Y-79987127D01*
X169710176Y-80008278D01*
X169687147Y-80020853D01*
X169627332Y-80036020D01*
X166851742Y-80027357D01*
X166816824Y-80022226D01*
X166801838Y-80017775D01*
X166743192Y-79979834D01*
X166741943Y-79978384D01*
X166714685Y-79923616D01*
X166713091Y-79916230D01*
X166710300Y-79890071D01*
X166710300Y-76207667D01*
X166710682Y-76197939D01*
X166711445Y-76188243D01*
X166712589Y-76178579D01*
X166714361Y-76167393D01*
X166735300Y-76035190D01*
X166735300Y-74063810D01*
X166708490Y-73894539D01*
X166667213Y-73767500D01*
X166655532Y-73731548D01*
X166655531Y-73731545D01*
X166602382Y-73627237D01*
X166577725Y-73578844D01*
X166566208Y-73562992D01*
X166566206Y-73562990D01*
X166530519Y-73513871D01*
X166476993Y-73440197D01*
X166355808Y-73319012D01*
X166355806Y-73319010D01*
X166217156Y-73218275D01*
X166064454Y-73140468D01*
X166064451Y-73140467D01*
X166064450Y-73140466D01*
X166064447Y-73140465D01*
X166064427Y-73140458D01*
X165901469Y-73087511D01*
X165901462Y-73087510D01*
X165816825Y-73074105D01*
X165787750Y-73069500D01*
X165732190Y-73060700D01*
X165732189Y-73060700D01*
X165560811Y-73060700D01*
X165560810Y-73060700D01*
X165505249Y-73069500D01*
X165391536Y-73087510D01*
X165391529Y-73087511D01*
X165228571Y-73140458D01*
X165228552Y-73140465D01*
X165228551Y-73140465D01*
X165075839Y-73218277D01*
X164996737Y-73275748D01*
X164949063Y-73310385D01*
X164941686Y-73314516D01*
X164811517Y-73444685D01*
X164807385Y-73452064D01*
X164715273Y-73578845D01*
X164637465Y-73731551D01*
X164637465Y-73731552D01*
X164637458Y-73731571D01*
X164584510Y-73894533D01*
X164569153Y-73991496D01*
X164557700Y-74063805D01*
X164557700Y-76035189D01*
X164578639Y-76167394D01*
X164578640Y-76167400D01*
X164580410Y-76178579D01*
X164581553Y-76188231D01*
X164582317Y-76197927D01*
X164582700Y-76207667D01*
X164582700Y-79878059D01*
X164577675Y-79913003D01*
X164573270Y-79928001D01*
X164535553Y-79986722D01*
X164534262Y-79987842D01*
X164479173Y-80015384D01*
X164471438Y-80017054D01*
X164444882Y-80019846D01*
X161431442Y-80010440D01*
X161396524Y-80005309D01*
X161381538Y-80000858D01*
X161322892Y-79962917D01*
X161321643Y-79961467D01*
X161294385Y-79906699D01*
X161292791Y-79899313D01*
X161290000Y-79873154D01*
X161290000Y-79203165D01*
X161291883Y-79181639D01*
X161291920Y-79181424D01*
X161295595Y-79160586D01*
X161301182Y-79139730D01*
X161358375Y-78982593D01*
X161426829Y-78794516D01*
X161526283Y-78423350D01*
X161593009Y-78044928D01*
X161626500Y-77662130D01*
X161626500Y-77277870D01*
X161593009Y-76895072D01*
X161526283Y-76516650D01*
X161435694Y-76178569D01*
X161426830Y-76145487D01*
X161349681Y-75933521D01*
X161301188Y-75800285D01*
X161295594Y-75779407D01*
X161291884Y-75758366D01*
X161290000Y-75736834D01*
X161290000Y-71562329D01*
X161295023Y-71527393D01*
X161299427Y-71512395D01*
X161337172Y-71453644D01*
X161338541Y-71452457D01*
X161393420Y-71424977D01*
X161400979Y-71423333D01*
X161427332Y-71420500D01*
X199145973Y-71420500D01*
X199180909Y-71425523D01*
G37*
G04 #@! TD.AperFunction*
G04 #@! TA.AperFunction,Conductor*
G36*
X212054478Y-83784369D02*
G01*
X213554000Y-85898695D01*
X213554000Y-86610405D01*
X213534315Y-86677444D01*
X213518079Y-86697592D01*
X213476153Y-86760337D01*
X213465201Y-86815400D01*
X213465201Y-88358689D01*
X213462679Y-88358689D01*
X213451709Y-88416502D01*
X213403639Y-88467208D01*
X213341330Y-88484000D01*
X213116672Y-88484000D01*
X213049633Y-88464315D01*
X213003878Y-88411511D01*
X212995074Y-88358689D01*
X212992801Y-88358689D01*
X212992801Y-86815404D01*
X212992800Y-86815400D01*
X212981848Y-86760336D01*
X212981847Y-86760335D01*
X212940118Y-86697883D01*
X212877666Y-86656154D01*
X212859004Y-86652442D01*
X212797093Y-86620057D01*
X212785520Y-86607095D01*
X212679119Y-86500694D01*
X212645634Y-86439371D01*
X212642800Y-86413013D01*
X212642800Y-86345981D01*
X212642800Y-86345979D01*
X212623119Y-86272527D01*
X212601469Y-86235029D01*
X212585097Y-86206672D01*
X212585092Y-86206667D01*
X212580150Y-86200226D01*
X212582826Y-86198172D01*
X212556834Y-86150571D01*
X212554000Y-86124213D01*
X212554000Y-86084000D01*
X211768920Y-85074610D01*
X211743300Y-85009607D01*
X211742800Y-84998481D01*
X211742800Y-84945981D01*
X211742799Y-84945977D01*
X211723121Y-84872532D01*
X211723119Y-84872528D01*
X211723119Y-84872527D01*
X211718467Y-84864469D01*
X211685097Y-84806672D01*
X211685096Y-84806671D01*
X211685095Y-84806669D01*
X211190319Y-84311893D01*
X211156834Y-84250570D01*
X211154000Y-84224212D01*
X211154000Y-82741561D01*
X211314500Y-82741000D01*
X212054478Y-83784369D01*
G37*
G04 #@! TD.AperFunction*
G04 #@! TA.AperFunction,Conductor*
G36*
X213902709Y-83563790D02*
G01*
X213951537Y-83573502D01*
X213951543Y-83573504D01*
X213951545Y-83573505D01*
X213951544Y-83573505D01*
X214034239Y-83628760D01*
X214075727Y-83690852D01*
X214089495Y-83711456D01*
X214089495Y-83711457D01*
X214089496Y-83711459D01*
X214092488Y-83726502D01*
X214098385Y-83756143D01*
X214102620Y-83777434D01*
X214102621Y-83777442D01*
X214104000Y-83784373D01*
X214104000Y-84783807D01*
X214103566Y-84785804D01*
X214089496Y-84856540D01*
X214089494Y-84856544D01*
X214034239Y-84939239D01*
X213951544Y-84994494D01*
X213951540Y-84994496D01*
X213880804Y-85008566D01*
X213878807Y-85009000D01*
X213878626Y-85009000D01*
X213154373Y-85009000D01*
X213149465Y-85008203D01*
X213146731Y-85007479D01*
X213081459Y-84994496D01*
X213081455Y-84994494D01*
X212998760Y-84939239D01*
X212943505Y-84856544D01*
X212943504Y-84856543D01*
X212943503Y-84856539D01*
X212929000Y-84783629D01*
X212929000Y-83784369D01*
X212943503Y-83711459D01*
X212943504Y-83711455D01*
X212998760Y-83628760D01*
X213081455Y-83573504D01*
X213081460Y-83573502D01*
X213139871Y-83561884D01*
X213154373Y-83559000D01*
X213154374Y-83559000D01*
X213878626Y-83559000D01*
X213878627Y-83559000D01*
X213902709Y-83563790D01*
G37*
G04 #@! TD.AperFunction*
G04 #@! TA.AperFunction,Conductor*
G36*
X211154000Y-82661118D02*
G01*
X211154000Y-82634418D01*
X211173707Y-82607996D01*
X211154000Y-82661118D01*
G37*
G04 #@! TD.AperFunction*
G04 #@! TA.AperFunction,Conductor*
G36*
X211177164Y-82603362D02*
G01*
X211193718Y-82581169D01*
X211218197Y-82568097D01*
X211177164Y-82603362D01*
G37*
G04 #@! TD.AperFunction*
G04 #@! TA.AperFunction,Conductor*
G36*
X215583709Y-81089790D02*
G01*
X215632537Y-81099502D01*
X215632543Y-81099504D01*
X215650436Y-81111460D01*
X215715239Y-81154760D01*
X215770494Y-81237455D01*
X215770496Y-81237460D01*
X215784564Y-81308184D01*
X215785000Y-81310189D01*
X215785000Y-82184807D01*
X215784566Y-82186804D01*
X215770496Y-82257540D01*
X215770494Y-82257544D01*
X215715239Y-82340239D01*
X215632544Y-82395494D01*
X215632540Y-82395496D01*
X215561804Y-82409566D01*
X215559807Y-82410000D01*
X215559626Y-82410000D01*
X214210373Y-82410000D01*
X214205465Y-82409203D01*
X214202731Y-82408479D01*
X214137459Y-82395496D01*
X214137455Y-82395494D01*
X214054760Y-82340239D01*
X213999505Y-82257544D01*
X213999504Y-82257543D01*
X213999503Y-82257539D01*
X213996312Y-82241500D01*
X213985236Y-82185814D01*
X213985000Y-82184629D01*
X213985000Y-81310369D01*
X213999503Y-81237459D01*
X213999504Y-81237455D01*
X214054760Y-81154760D01*
X214137455Y-81099504D01*
X214137460Y-81099502D01*
X214195871Y-81087884D01*
X214210373Y-81085000D01*
X214210374Y-81085000D01*
X215559626Y-81085000D01*
X215559627Y-81085000D01*
X215583709Y-81089790D01*
G37*
G04 #@! TD.AperFunction*
G04 #@! TA.AperFunction,Conductor*
G36*
X213177709Y-80963790D02*
G01*
X213226537Y-80973502D01*
X213226543Y-80973504D01*
X213226545Y-80973505D01*
X213226544Y-80973505D01*
X213309239Y-81028760D01*
X213364494Y-81111455D01*
X213364496Y-81111459D01*
X213378999Y-81184371D01*
X213379000Y-81184373D01*
X213379000Y-81305474D01*
X213379000Y-81310369D01*
X213379000Y-82183807D01*
X213378566Y-82185804D01*
X213364496Y-82256540D01*
X213364494Y-82256544D01*
X213309239Y-82339239D01*
X213226544Y-82394494D01*
X213226540Y-82394496D01*
X213155804Y-82408566D01*
X213153807Y-82409000D01*
X213153626Y-82409000D01*
X212429373Y-82409000D01*
X212424465Y-82408203D01*
X212421731Y-82407479D01*
X212356459Y-82394496D01*
X212356455Y-82394494D01*
X212273760Y-82339239D01*
X212219173Y-82257544D01*
X212218504Y-82256543D01*
X212218503Y-82256539D01*
X212204000Y-82183629D01*
X212204000Y-81184369D01*
X212218503Y-81111459D01*
X212218504Y-81111455D01*
X212273760Y-81028760D01*
X212356455Y-80973504D01*
X212356460Y-80973502D01*
X212414871Y-80961884D01*
X212429373Y-80959000D01*
X212429374Y-80959000D01*
X213153626Y-80959000D01*
X213153627Y-80959000D01*
X213177709Y-80963790D01*
G37*
G04 #@! TD.AperFunction*
G04 #@! TA.AperFunction,Conductor*
G36*
X216189959Y-100073685D02*
G01*
X216235714Y-100126489D01*
X216246729Y-100184878D01*
X216158101Y-101780166D01*
X216134728Y-101846011D01*
X216087091Y-101885485D01*
X214454000Y-102653999D01*
X214454000Y-103987637D01*
X214434315Y-104054676D01*
X214398783Y-104090811D01*
X213554000Y-104653999D01*
X213554000Y-105780405D01*
X213534315Y-105847444D01*
X213518079Y-105867592D01*
X213476153Y-105930337D01*
X213465201Y-105985400D01*
X213465201Y-107528689D01*
X213462679Y-107528689D01*
X213451709Y-107586502D01*
X213403639Y-107637208D01*
X213341330Y-107654000D01*
X213116672Y-107654000D01*
X213049633Y-107634315D01*
X213003878Y-107581511D01*
X212995074Y-107528689D01*
X212992801Y-107528689D01*
X212992801Y-105985404D01*
X212992800Y-105985400D01*
X212981848Y-105930336D01*
X212981847Y-105930335D01*
X212940118Y-105867883D01*
X212877666Y-105826154D01*
X212859004Y-105822442D01*
X212797093Y-105790057D01*
X212785520Y-105777095D01*
X212679119Y-105670694D01*
X212645634Y-105609371D01*
X212642800Y-105583013D01*
X212642800Y-105515981D01*
X212642800Y-105515979D01*
X212623119Y-105442527D01*
X212601469Y-105405029D01*
X212585097Y-105376672D01*
X212585092Y-105376667D01*
X212580150Y-105370226D01*
X212582826Y-105368172D01*
X212556834Y-105320571D01*
X212554000Y-105294213D01*
X212554000Y-105254000D01*
X211768920Y-104244610D01*
X211743300Y-104179607D01*
X211742800Y-104168481D01*
X211742800Y-104115981D01*
X211742799Y-104115977D01*
X211723121Y-104042532D01*
X211723119Y-104042528D01*
X211723119Y-104042527D01*
X211718467Y-104034469D01*
X211685097Y-103976672D01*
X211685096Y-103976671D01*
X211685095Y-103976669D01*
X211190319Y-103481893D01*
X211156834Y-103420570D01*
X211154000Y-103394212D01*
X211154000Y-101846878D01*
X211173685Y-101779839D01*
X211226489Y-101734084D01*
X211237033Y-101729841D01*
X211261353Y-101721332D01*
X211367783Y-101642783D01*
X211446332Y-101536353D01*
X211490020Y-101411499D01*
X211492800Y-101381852D01*
X211492800Y-100326148D01*
X211490020Y-100296501D01*
X211462884Y-100218952D01*
X211459324Y-100149176D01*
X211494053Y-100088548D01*
X211556046Y-100056321D01*
X211579927Y-100054000D01*
X216122920Y-100054000D01*
X216189959Y-100073685D01*
G37*
G04 #@! TD.AperFunction*
G04 #@! TA.AperFunction,Conductor*
G36*
X223296891Y-86324856D02*
G01*
X223342721Y-86377595D01*
X223354000Y-86429267D01*
X223354000Y-90249572D01*
X223334315Y-90316611D01*
X223281511Y-90362366D01*
X223230074Y-90373572D01*
X215078074Y-90378425D01*
X215011023Y-90358780D01*
X214965236Y-90306004D01*
X214954000Y-90254425D01*
X214954000Y-88484000D01*
X214944224Y-88474224D01*
X214930828Y-88466276D01*
X214931410Y-88465293D01*
X214887436Y-88437029D01*
X214858841Y-88376216D01*
X214856188Y-88360297D01*
X214854501Y-88339925D01*
X214854501Y-86824103D01*
X214848671Y-86794788D01*
X214839897Y-86781656D01*
X214827994Y-86763840D01*
X214825352Y-86755400D01*
X214793215Y-86739332D01*
X214793210Y-86739330D01*
X214793213Y-86739330D01*
X214771229Y-86734958D01*
X214763903Y-86733501D01*
X214763902Y-86733501D01*
X214294103Y-86733501D01*
X214294092Y-86733503D01*
X214264791Y-86739330D01*
X214264789Y-86739330D01*
X214264789Y-86739331D01*
X214253659Y-86746766D01*
X214231543Y-86761543D01*
X214209335Y-86794783D01*
X214209331Y-86794791D01*
X214203502Y-86824099D01*
X214203502Y-88338246D01*
X214201330Y-88361354D01*
X214197813Y-88379896D01*
X214165980Y-88442093D01*
X214108260Y-88476514D01*
X214096345Y-88479726D01*
X214064070Y-88484000D01*
X213784503Y-88484000D01*
X213749570Y-88478978D01*
X213748068Y-88478537D01*
X213689289Y-88440763D01*
X213660263Y-88377208D01*
X213659001Y-88359559D01*
X213659001Y-86875323D01*
X213678686Y-86808284D01*
X213683914Y-86801032D01*
X213685213Y-86799050D01*
X213685217Y-86799046D01*
X213720264Y-86732045D01*
X213739949Y-86665006D01*
X213747800Y-86610405D01*
X213747800Y-86442575D01*
X213767485Y-86375536D01*
X213820289Y-86329781D01*
X213871621Y-86318575D01*
X223229825Y-86305267D01*
X223296891Y-86324856D01*
G37*
G04 #@! TD.AperFunction*
G04 #@! TA.AperFunction,Conductor*
G36*
X223247106Y-142559023D02*
G01*
X223262104Y-142563427D01*
X223320855Y-142601172D01*
X223322042Y-142602541D01*
X223349518Y-142657402D01*
X223351163Y-142664960D01*
X223354000Y-142691331D01*
X223354000Y-147519572D01*
X223334315Y-147586611D01*
X223281511Y-147632366D01*
X223230074Y-147643572D01*
X215078074Y-147648425D01*
X215011023Y-147628780D01*
X214965236Y-147576004D01*
X214954000Y-147524425D01*
X214954000Y-145754000D01*
X214944224Y-145744224D01*
X214930828Y-145736276D01*
X214931410Y-145735293D01*
X214887436Y-145707029D01*
X214858841Y-145646216D01*
X214856188Y-145630297D01*
X214854501Y-145609925D01*
X214854501Y-144094103D01*
X214848671Y-144064788D01*
X214839897Y-144051656D01*
X214827994Y-144033840D01*
X214825352Y-144025400D01*
X214793215Y-144009332D01*
X214793210Y-144009330D01*
X214793213Y-144009330D01*
X214771229Y-144004958D01*
X214763903Y-144003501D01*
X214763902Y-144003501D01*
X214294103Y-144003501D01*
X214294092Y-144003503D01*
X214264791Y-144009330D01*
X214264789Y-144009330D01*
X214264789Y-144009331D01*
X214253659Y-144016766D01*
X214231543Y-144031543D01*
X214209335Y-144064783D01*
X214209331Y-144064791D01*
X214203502Y-144094099D01*
X214203502Y-145608246D01*
X214201330Y-145631354D01*
X214197813Y-145649896D01*
X214165980Y-145712093D01*
X214108260Y-145746514D01*
X214096345Y-145749726D01*
X214064070Y-145754000D01*
X213784503Y-145754000D01*
X213749570Y-145748978D01*
X213748068Y-145748537D01*
X213689289Y-145710763D01*
X213660263Y-145647208D01*
X213659001Y-145629559D01*
X213659001Y-144145323D01*
X213678686Y-144078284D01*
X213683914Y-144071032D01*
X213685213Y-144069050D01*
X213685217Y-144069046D01*
X213720264Y-144002045D01*
X213739949Y-143935006D01*
X213747800Y-143880405D01*
X213747800Y-142924079D01*
X213767485Y-142857040D01*
X213803014Y-142820907D01*
X214172137Y-142574826D01*
X214238837Y-142554018D01*
X214240920Y-142554000D01*
X223212170Y-142554000D01*
X223247106Y-142559023D01*
G37*
G04 #@! TD.AperFunction*
G04 #@! TA.AperFunction,Conductor*
G36*
X223296977Y-109668718D02*
G01*
X223342764Y-109721494D01*
X223354000Y-109773073D01*
X223354000Y-113930000D01*
X223334315Y-113997039D01*
X223281511Y-114042794D01*
X223230000Y-114054000D01*
X214323501Y-114054000D01*
X214256462Y-114034315D01*
X214210707Y-113981511D01*
X214199501Y-113930000D01*
X214199501Y-113351247D01*
X214201884Y-113327053D01*
X214204501Y-113313898D01*
X214204500Y-111794101D01*
X214201883Y-111780941D01*
X214199501Y-111756755D01*
X214199501Y-111578500D01*
X214219186Y-111511461D01*
X214271990Y-111465706D01*
X214323501Y-111454500D01*
X214763895Y-111454500D01*
X214763898Y-111454500D01*
X214793213Y-111448670D01*
X214826457Y-111426458D01*
X214848669Y-111393214D01*
X214854500Y-111363900D01*
X214855689Y-111357925D01*
X214857374Y-111358260D01*
X214880460Y-111301070D01*
X214937490Y-111260704D01*
X214949257Y-111258742D01*
X214954000Y-111254000D01*
X214954000Y-109777926D01*
X214973685Y-109710887D01*
X215026489Y-109665132D01*
X215077924Y-109653926D01*
X223229928Y-109649073D01*
X223296977Y-109668718D01*
G37*
G04 #@! TD.AperFunction*
G04 #@! TA.AperFunction,Conductor*
G36*
X181198686Y-99385260D02*
G01*
X181245170Y-99437423D01*
X181257073Y-99487801D01*
X181302028Y-101555722D01*
X181283805Y-101623173D01*
X181232008Y-101670065D01*
X181163082Y-101681509D01*
X181134724Y-101674599D01*
X181060486Y-101646910D01*
X181060485Y-101646909D01*
X181060483Y-101646909D01*
X181000873Y-101640500D01*
X181000863Y-101640500D01*
X180230129Y-101640500D01*
X180230123Y-101640501D01*
X180170516Y-101646908D01*
X180035671Y-101697202D01*
X180035664Y-101697206D01*
X179920455Y-101783452D01*
X179920452Y-101783455D01*
X179834206Y-101898664D01*
X179834202Y-101898671D01*
X179783908Y-102033517D01*
X179777501Y-102093116D01*
X179777500Y-102093135D01*
X179777500Y-103138870D01*
X179777501Y-103138876D01*
X179783908Y-103198483D01*
X179834202Y-103333328D01*
X179834206Y-103333335D01*
X179920452Y-103448544D01*
X179920455Y-103448547D01*
X180035664Y-103534793D01*
X180035673Y-103534798D01*
X180096112Y-103557340D01*
X180152046Y-103599210D01*
X180176464Y-103664674D01*
X180161613Y-103732948D01*
X180160834Y-103734352D01*
X179410116Y-105067866D01*
X179360075Y-105116628D01*
X179302811Y-105131034D01*
X171125116Y-105180447D01*
X171057959Y-105161168D01*
X171011886Y-105108641D01*
X171000694Y-105047455D01*
X171088864Y-103835115D01*
X171113359Y-103769680D01*
X171164842Y-103729648D01*
X175056800Y-102108000D01*
X177560793Y-99453767D01*
X177621114Y-99418512D01*
X177649264Y-99414871D01*
X181131382Y-99366508D01*
X181198686Y-99385260D01*
G37*
G04 #@! TD.AperFunction*
G04 #@! TA.AperFunction,Conductor*
G36*
X216189959Y-119123685D02*
G01*
X216235714Y-119176489D01*
X216246729Y-119234878D01*
X216158101Y-120830166D01*
X216134728Y-120896011D01*
X216087091Y-120935485D01*
X214454000Y-121703999D01*
X214454000Y-123037637D01*
X214434315Y-123104676D01*
X214398783Y-123140811D01*
X213554000Y-123703999D01*
X213554000Y-124830405D01*
X213534315Y-124897444D01*
X213518079Y-124917592D01*
X213476153Y-124980337D01*
X213465201Y-125035400D01*
X213465201Y-126578689D01*
X213462679Y-126578689D01*
X213451709Y-126636502D01*
X213403639Y-126687208D01*
X213341330Y-126704000D01*
X213116672Y-126704000D01*
X213049633Y-126684315D01*
X213003878Y-126631511D01*
X212995074Y-126578689D01*
X212992801Y-126578689D01*
X212992801Y-125035404D01*
X212992800Y-125035400D01*
X212981848Y-124980336D01*
X212981847Y-124980335D01*
X212940118Y-124917883D01*
X212877666Y-124876154D01*
X212859004Y-124872442D01*
X212797093Y-124840057D01*
X212785520Y-124827095D01*
X212679119Y-124720694D01*
X212645634Y-124659371D01*
X212642800Y-124633013D01*
X212642800Y-124565981D01*
X212642800Y-124565979D01*
X212623119Y-124492527D01*
X212601469Y-124455029D01*
X212585097Y-124426672D01*
X212585092Y-124426667D01*
X212580150Y-124420226D01*
X212582826Y-124418172D01*
X212556834Y-124370571D01*
X212554000Y-124344213D01*
X212554000Y-124304000D01*
X211768920Y-123294610D01*
X211743300Y-123229607D01*
X211742800Y-123218481D01*
X211742800Y-123165981D01*
X211742799Y-123165977D01*
X211723121Y-123092532D01*
X211723119Y-123092528D01*
X211723119Y-123092527D01*
X211718467Y-123084469D01*
X211685097Y-123026672D01*
X211685096Y-123026671D01*
X211685095Y-123026669D01*
X211190319Y-122531893D01*
X211156834Y-122470570D01*
X211154000Y-122444212D01*
X211154000Y-120896878D01*
X211173685Y-120829839D01*
X211226489Y-120784084D01*
X211237033Y-120779841D01*
X211261353Y-120771332D01*
X211367783Y-120692783D01*
X211446332Y-120586353D01*
X211490020Y-120461499D01*
X211492800Y-120431852D01*
X211492800Y-119376148D01*
X211490020Y-119346501D01*
X211462884Y-119268952D01*
X211459324Y-119199176D01*
X211494053Y-119138548D01*
X211556046Y-119106321D01*
X211579927Y-119104000D01*
X216122920Y-119104000D01*
X216189959Y-119123685D01*
G37*
G04 #@! TD.AperFunction*
G04 #@! TA.AperFunction,Conductor*
G36*
X223247106Y-123509023D02*
G01*
X223262104Y-123513427D01*
X223320855Y-123551172D01*
X223322042Y-123552541D01*
X223349518Y-123607402D01*
X223351163Y-123614960D01*
X223354000Y-123641331D01*
X223354000Y-128469572D01*
X223334315Y-128536611D01*
X223281511Y-128582366D01*
X223230074Y-128593572D01*
X215078074Y-128598425D01*
X215011023Y-128578780D01*
X214965236Y-128526004D01*
X214954000Y-128474425D01*
X214954000Y-126704000D01*
X214944224Y-126694224D01*
X214930828Y-126686276D01*
X214931410Y-126685293D01*
X214887436Y-126657029D01*
X214858841Y-126596216D01*
X214856188Y-126580297D01*
X214854501Y-126559925D01*
X214854501Y-125044103D01*
X214848671Y-125014788D01*
X214839897Y-125001656D01*
X214827994Y-124983840D01*
X214825352Y-124975400D01*
X214793215Y-124959332D01*
X214793210Y-124959330D01*
X214793213Y-124959330D01*
X214771229Y-124954958D01*
X214763903Y-124953501D01*
X214763902Y-124953501D01*
X214294103Y-124953501D01*
X214294092Y-124953503D01*
X214264791Y-124959330D01*
X214264789Y-124959330D01*
X214264789Y-124959331D01*
X214253659Y-124966766D01*
X214231543Y-124981543D01*
X214209335Y-125014783D01*
X214209331Y-125014791D01*
X214203502Y-125044099D01*
X214203502Y-126558246D01*
X214201330Y-126581354D01*
X214197813Y-126599896D01*
X214165980Y-126662093D01*
X214108260Y-126696514D01*
X214096345Y-126699726D01*
X214064070Y-126704000D01*
X213784503Y-126704000D01*
X213749570Y-126698978D01*
X213748068Y-126698537D01*
X213689289Y-126660763D01*
X213660263Y-126597208D01*
X213659001Y-126579559D01*
X213659001Y-125095323D01*
X213678686Y-125028284D01*
X213683914Y-125021032D01*
X213685213Y-125019050D01*
X213685217Y-125019046D01*
X213720264Y-124952045D01*
X213739949Y-124885006D01*
X213747800Y-124830405D01*
X213747800Y-123874079D01*
X213767485Y-123807040D01*
X213803014Y-123770907D01*
X214172137Y-123524826D01*
X214238837Y-123504018D01*
X214240920Y-123504000D01*
X223212170Y-123504000D01*
X223247106Y-123509023D01*
G37*
G04 #@! TD.AperFunction*
G04 #@! TA.AperFunction,Conductor*
G36*
X223296977Y-90498718D02*
G01*
X223342764Y-90551494D01*
X223354000Y-90603073D01*
X223354000Y-94760000D01*
X223334315Y-94827039D01*
X223281511Y-94872794D01*
X223230000Y-94884000D01*
X214323501Y-94884000D01*
X214256462Y-94864315D01*
X214210707Y-94811511D01*
X214199501Y-94760000D01*
X214199501Y-94181247D01*
X214201884Y-94157053D01*
X214204501Y-94143898D01*
X214204500Y-92624101D01*
X214201883Y-92610941D01*
X214199501Y-92586755D01*
X214199501Y-92408500D01*
X214219186Y-92341461D01*
X214271990Y-92295706D01*
X214323501Y-92284500D01*
X214763895Y-92284500D01*
X214763898Y-92284500D01*
X214793213Y-92278670D01*
X214826457Y-92256458D01*
X214848669Y-92223214D01*
X214854500Y-92193900D01*
X214855689Y-92187925D01*
X214857374Y-92188260D01*
X214880460Y-92131070D01*
X214937490Y-92090704D01*
X214949257Y-92088742D01*
X214954000Y-92084000D01*
X214954000Y-90607926D01*
X214973685Y-90540887D01*
X215026489Y-90495132D01*
X215077924Y-90483926D01*
X223229928Y-90479073D01*
X223296977Y-90498718D01*
G37*
G04 #@! TD.AperFunction*
G04 #@! TA.AperFunction,Conductor*
G36*
X226668606Y-71425523D02*
G01*
X226683604Y-71429927D01*
X226742355Y-71467672D01*
X226743542Y-71469041D01*
X226771018Y-71523902D01*
X226772663Y-71531460D01*
X226775500Y-71557831D01*
X226775500Y-85964773D01*
X226770475Y-85999717D01*
X226766070Y-86014715D01*
X226728319Y-86073465D01*
X226726914Y-86074683D01*
X226672136Y-86102136D01*
X226664660Y-86103768D01*
X226638390Y-86106621D01*
X213796516Y-86124882D01*
X213761574Y-86119908D01*
X213740601Y-86113782D01*
X213689784Y-86084486D01*
X213686019Y-86080895D01*
X213670457Y-86062899D01*
X213554000Y-85898695D01*
X212054478Y-83784369D01*
X212929000Y-83784369D01*
X212929000Y-84783629D01*
X212943503Y-84856539D01*
X212943504Y-84856543D01*
X212943505Y-84856544D01*
X212998760Y-84939239D01*
X213081455Y-84994494D01*
X213081459Y-84994496D01*
X213146731Y-85007479D01*
X213149465Y-85008203D01*
X213154373Y-85009000D01*
X213878626Y-85009000D01*
X213878807Y-85009000D01*
X213880804Y-85008566D01*
X213951540Y-84994496D01*
X213951544Y-84994494D01*
X214034239Y-84939239D01*
X214089494Y-84856544D01*
X214089496Y-84856540D01*
X214103566Y-84785804D01*
X214104000Y-84783807D01*
X214104000Y-83784373D01*
X214102621Y-83777442D01*
X214102620Y-83777434D01*
X214098385Y-83756143D01*
X214815200Y-83756143D01*
X214815200Y-84811856D01*
X214817361Y-84834910D01*
X214817979Y-84841499D01*
X214817991Y-84841534D01*
X214832897Y-84884132D01*
X214852180Y-84939239D01*
X214861668Y-84966353D01*
X214940217Y-85072783D01*
X215046647Y-85151332D01*
X215084660Y-85164633D01*
X215171493Y-85195018D01*
X215171496Y-85195018D01*
X215171501Y-85195020D01*
X215177421Y-85195575D01*
X215177431Y-85195579D01*
X215177431Y-85195576D01*
X215191635Y-85196908D01*
X215201132Y-85197799D01*
X215201134Y-85197799D01*
X215201144Y-85197800D01*
X215201148Y-85197800D01*
X215981852Y-85197800D01*
X215981856Y-85197800D01*
X216001616Y-85195946D01*
X216001616Y-85195950D01*
X216001631Y-85195944D01*
X216011499Y-85195020D01*
X216136353Y-85151332D01*
X216174804Y-85122954D01*
X216234184Y-85079129D01*
X216238060Y-85076755D01*
X216239757Y-85075328D01*
X216244588Y-85071518D01*
X216248955Y-85064419D01*
X216250098Y-85062870D01*
X216274908Y-85037714D01*
X216287355Y-85028264D01*
X216352644Y-85003404D01*
X216358121Y-85002975D01*
X216412084Y-85010770D01*
X216412617Y-85010973D01*
X216413258Y-85011219D01*
X216430982Y-85019658D01*
X216465325Y-85039486D01*
X216465326Y-85039487D01*
X216465330Y-85039489D01*
X216589648Y-85072800D01*
X216589651Y-85072800D01*
X216718349Y-85072800D01*
X216718352Y-85072800D01*
X216842670Y-85039489D01*
X216954130Y-84975137D01*
X217045137Y-84884130D01*
X217109489Y-84772670D01*
X217142800Y-84648352D01*
X217142800Y-84519648D01*
X217109489Y-84395330D01*
X217045137Y-84283870D01*
X216995555Y-84234288D01*
X216974403Y-84206032D01*
X216966911Y-84192311D01*
X216952059Y-84124051D01*
X216952188Y-84122242D01*
X216971554Y-84064047D01*
X216975747Y-84057523D01*
X216992369Y-84036897D01*
X217045137Y-83984130D01*
X217109489Y-83872670D01*
X217142800Y-83748352D01*
X217142800Y-83619648D01*
X217109489Y-83495330D01*
X217045137Y-83383870D01*
X216954130Y-83292863D01*
X216842670Y-83228511D01*
X216718352Y-83195200D01*
X216718349Y-83195200D01*
X216589651Y-83195200D01*
X216589648Y-83195200D01*
X216515057Y-83215186D01*
X216465328Y-83228511D01*
X216465325Y-83228513D01*
X216427372Y-83250425D01*
X216397469Y-83262811D01*
X216367006Y-83270974D01*
X216334911Y-83275200D01*
X216137680Y-83275200D01*
X216033706Y-83303059D01*
X215960328Y-83345424D01*
X215930427Y-83357810D01*
X215899963Y-83365974D01*
X215867865Y-83370200D01*
X215201144Y-83370200D01*
X215171502Y-83372979D01*
X215171499Y-83372979D01*
X215171497Y-83372980D01*
X215171495Y-83372980D01*
X215171481Y-83372985D01*
X215046645Y-83416667D01*
X214940216Y-83495216D01*
X214861667Y-83601645D01*
X214817985Y-83726481D01*
X214817980Y-83726495D01*
X214817980Y-83726497D01*
X214817980Y-83726499D01*
X214817979Y-83726502D01*
X214815200Y-83756143D01*
X214098385Y-83756143D01*
X214092488Y-83726502D01*
X214089496Y-83711459D01*
X214089495Y-83711457D01*
X214089495Y-83711456D01*
X214075727Y-83690852D01*
X214034239Y-83628760D01*
X213951544Y-83573505D01*
X213951545Y-83573505D01*
X213951543Y-83573504D01*
X213951537Y-83573502D01*
X213902709Y-83563790D01*
X213878627Y-83559000D01*
X213878626Y-83559000D01*
X213154374Y-83559000D01*
X213154373Y-83559000D01*
X213139871Y-83561884D01*
X213081460Y-83573502D01*
X213081455Y-83573504D01*
X212998760Y-83628760D01*
X212943504Y-83711455D01*
X212943503Y-83711459D01*
X212929000Y-83784369D01*
X212054478Y-83784369D01*
X211314500Y-82741000D01*
X211154000Y-82741561D01*
X211154000Y-82719495D01*
X211152843Y-82714980D01*
X211149264Y-82675579D01*
X211149410Y-82673491D01*
X211173708Y-82607995D01*
X211177161Y-82603365D01*
X211218197Y-82568097D01*
X211218878Y-82567733D01*
X211236260Y-82560111D01*
X211261353Y-82551332D01*
X211367783Y-82472783D01*
X211446332Y-82366353D01*
X211490020Y-82241499D01*
X211492800Y-82211852D01*
X211492800Y-81184369D01*
X212204000Y-81184369D01*
X212204000Y-82183629D01*
X212218503Y-82256539D01*
X212218504Y-82256543D01*
X212219173Y-82257544D01*
X212273760Y-82339239D01*
X212356455Y-82394494D01*
X212356459Y-82394496D01*
X212421731Y-82407479D01*
X212424465Y-82408203D01*
X212429373Y-82409000D01*
X213153626Y-82409000D01*
X213153807Y-82409000D01*
X213155804Y-82408566D01*
X213226540Y-82394496D01*
X213226544Y-82394494D01*
X213309239Y-82339239D01*
X213364494Y-82256544D01*
X213364496Y-82256540D01*
X213378566Y-82185804D01*
X213379000Y-82183807D01*
X213379000Y-81310369D01*
X213985000Y-81310369D01*
X213985000Y-82184629D01*
X213985236Y-82185814D01*
X213996312Y-82241500D01*
X213999503Y-82257539D01*
X213999504Y-82257543D01*
X213999505Y-82257544D01*
X214054760Y-82340239D01*
X214137455Y-82395494D01*
X214137459Y-82395496D01*
X214202731Y-82408479D01*
X214205465Y-82409203D01*
X214210373Y-82410000D01*
X215559626Y-82410000D01*
X215559807Y-82410000D01*
X215561804Y-82409566D01*
X215632540Y-82395496D01*
X215632544Y-82395494D01*
X215715239Y-82340239D01*
X215770494Y-82257544D01*
X215770496Y-82257540D01*
X215784566Y-82186804D01*
X215785000Y-82184807D01*
X215785000Y-81310189D01*
X215784564Y-81308184D01*
X215770496Y-81237460D01*
X215770494Y-81237455D01*
X215715239Y-81154760D01*
X215650436Y-81111460D01*
X215632543Y-81099504D01*
X215632537Y-81099502D01*
X215583709Y-81089790D01*
X215559627Y-81085000D01*
X215559626Y-81085000D01*
X214210374Y-81085000D01*
X214210373Y-81085000D01*
X214195871Y-81087884D01*
X214137460Y-81099502D01*
X214137455Y-81099504D01*
X214054760Y-81154760D01*
X213999504Y-81237455D01*
X213999503Y-81237459D01*
X213985000Y-81310369D01*
X213379000Y-81310369D01*
X213379000Y-81305474D01*
X213379000Y-81184373D01*
X213378999Y-81184371D01*
X213364496Y-81111459D01*
X213364494Y-81111455D01*
X213309239Y-81028760D01*
X213226544Y-80973505D01*
X213226545Y-80973505D01*
X213226543Y-80973504D01*
X213226537Y-80973502D01*
X213177709Y-80963790D01*
X213153627Y-80959000D01*
X213153626Y-80959000D01*
X212429374Y-80959000D01*
X212429373Y-80959000D01*
X212414871Y-80961884D01*
X212356460Y-80973502D01*
X212356455Y-80973504D01*
X212273760Y-81028760D01*
X212218504Y-81111455D01*
X212218503Y-81111459D01*
X212204000Y-81184369D01*
X211492800Y-81184369D01*
X211492800Y-81156148D01*
X211490020Y-81126501D01*
X211446332Y-81001647D01*
X211367783Y-80895217D01*
X211261353Y-80816668D01*
X211261351Y-80816667D01*
X211136517Y-80772985D01*
X211136502Y-80772980D01*
X211136499Y-80772979D01*
X211136497Y-80772979D01*
X211106856Y-80770200D01*
X211106852Y-80770200D01*
X211106850Y-80770200D01*
X210326150Y-80770200D01*
X210326148Y-80770200D01*
X210326144Y-80770200D01*
X210296502Y-80772979D01*
X210296499Y-80772979D01*
X210296497Y-80772980D01*
X210296495Y-80772980D01*
X210296481Y-80772985D01*
X210171645Y-80816667D01*
X210065216Y-80895216D01*
X209986667Y-81001645D01*
X209942985Y-81126481D01*
X209942980Y-81126495D01*
X209942980Y-81126497D01*
X209942980Y-81126499D01*
X209942979Y-81126502D01*
X209940200Y-81156143D01*
X209940200Y-82211856D01*
X209942361Y-82234910D01*
X209942979Y-82241499D01*
X209944115Y-82245469D01*
X209945584Y-82248942D01*
X209986667Y-82366351D01*
X209986670Y-82366357D01*
X210065211Y-82472777D01*
X210065215Y-82472781D01*
X210065216Y-82472781D01*
X210065217Y-82472783D01*
X210117051Y-82511038D01*
X210142173Y-82535822D01*
X210149017Y-82544836D01*
X210173873Y-82610135D01*
X210159480Y-82678506D01*
X210110420Y-82728236D01*
X210107508Y-82729852D01*
X210047773Y-82745427D01*
X203352972Y-82768832D01*
X203318022Y-82763932D01*
X203303005Y-82759580D01*
X203244095Y-82722013D01*
X203244094Y-82722012D01*
X203237903Y-82714917D01*
X203216768Y-82680834D01*
X203214490Y-82675335D01*
X203214489Y-82675330D01*
X203198090Y-82646926D01*
X203150137Y-82563870D01*
X203059130Y-82472863D01*
X202947670Y-82408511D01*
X202823352Y-82375200D01*
X202823349Y-82375200D01*
X202694648Y-82375200D01*
X202586097Y-82404286D01*
X202569483Y-82406473D01*
X202556190Y-82416674D01*
X202458869Y-82472863D01*
X202458861Y-82472869D01*
X202367869Y-82563861D01*
X202367865Y-82563866D01*
X202367856Y-82563880D01*
X202303508Y-82675330D01*
X202303058Y-82676419D01*
X202294379Y-82693500D01*
X202284569Y-82709593D01*
X202232867Y-82756590D01*
X202232862Y-82756592D01*
X202224803Y-82760506D01*
X202171065Y-82772964D01*
X199179881Y-82783421D01*
X199179879Y-82783422D01*
X199179878Y-82783422D01*
X199179880Y-82783421D01*
X199179881Y-82783421D01*
X199186800Y-82778600D01*
X199285173Y-78994000D01*
X206756000Y-78994000D01*
X206756000Y-78853392D01*
X206761023Y-78818456D01*
X206765003Y-78804902D01*
X206802778Y-78746124D01*
X206865597Y-78717208D01*
X206871340Y-78716347D01*
X206878920Y-78715210D01*
X206913485Y-78714902D01*
X206939295Y-78718300D01*
X207011998Y-78718299D01*
X207046929Y-78723320D01*
X207072171Y-78730732D01*
X207124918Y-78762028D01*
X207221886Y-78858996D01*
X207221917Y-78859028D01*
X207223362Y-78860473D01*
X207223377Y-78860489D01*
X207322411Y-78959523D01*
X207322415Y-78959526D01*
X207322416Y-78959527D01*
X207403358Y-79013611D01*
X207403408Y-79013643D01*
X207418837Y-79023953D01*
X207435166Y-79034864D01*
X207435198Y-79034885D01*
X207435225Y-79034903D01*
X207435231Y-79034907D01*
X207470967Y-79049709D01*
X207554972Y-79084506D01*
X207559380Y-79086591D01*
X207693654Y-79113301D01*
X207835455Y-79113301D01*
X207836965Y-79113301D01*
X207837044Y-79113300D01*
X211780966Y-79113300D01*
X211788821Y-79110917D01*
X211843965Y-79099947D01*
X211909916Y-79086830D01*
X212035269Y-79034907D01*
X212148085Y-78959526D01*
X212244026Y-78863585D01*
X212319407Y-78750769D01*
X212371330Y-78625416D01*
X212397800Y-78492341D01*
X212397800Y-78356659D01*
X212371330Y-78223584D01*
X212343809Y-78157143D01*
X213796200Y-78157143D01*
X213796200Y-79087856D01*
X213798361Y-79110910D01*
X213798979Y-79117499D01*
X213800115Y-79121469D01*
X213801584Y-79124942D01*
X213824151Y-79189435D01*
X213842668Y-79242353D01*
X213921217Y-79348783D01*
X214027647Y-79427332D01*
X214065660Y-79440633D01*
X214152493Y-79471018D01*
X214152496Y-79471018D01*
X214152501Y-79471020D01*
X214158421Y-79471575D01*
X214158431Y-79471579D01*
X214158431Y-79471576D01*
X214172635Y-79472908D01*
X214182132Y-79473799D01*
X214182134Y-79473799D01*
X214182144Y-79473800D01*
X214182148Y-79473800D01*
X215587852Y-79473800D01*
X215587856Y-79473800D01*
X215607616Y-79471946D01*
X215607616Y-79471950D01*
X215607631Y-79471944D01*
X215617499Y-79471020D01*
X215742353Y-79427332D01*
X215848783Y-79348783D01*
X215927332Y-79242353D01*
X215971020Y-79117499D01*
X215973800Y-79087852D01*
X215973800Y-78157148D01*
X215971020Y-78127501D01*
X215927332Y-78002647D01*
X215848783Y-77896217D01*
X215848781Y-77896215D01*
X215848780Y-77896214D01*
X215810880Y-77868243D01*
X215785753Y-77843454D01*
X215776300Y-77831003D01*
X215751440Y-77765709D01*
X215750446Y-77753024D01*
X215754294Y-77711238D01*
X215754800Y-77709352D01*
X215754800Y-77580648D01*
X215721489Y-77456330D01*
X215657137Y-77344870D01*
X215586276Y-77274009D01*
X216237200Y-77274009D01*
X216237200Y-77665989D01*
X216270891Y-78051073D01*
X216270891Y-78051074D01*
X216271363Y-78056472D01*
X216339422Y-78442454D01*
X216339426Y-78442470D01*
X216339428Y-78442480D01*
X216339435Y-78442506D01*
X216440874Y-78821090D01*
X216442983Y-78828119D01*
X216444904Y-78832160D01*
X216510966Y-79013662D01*
X216547231Y-79113300D01*
X216574939Y-79189425D01*
X216574943Y-79189435D01*
X216575569Y-79190786D01*
X216575662Y-79190978D01*
X216740580Y-79544648D01*
X216740593Y-79544674D01*
X216936552Y-79884083D01*
X216936573Y-79884119D01*
X216936582Y-79884134D01*
X216936587Y-79884141D01*
X217161402Y-80205211D01*
X217161407Y-80205217D01*
X217353583Y-80434241D01*
X217353583Y-80434242D01*
X217413359Y-80505480D01*
X217690521Y-80782642D01*
X217740065Y-80824215D01*
X217740068Y-80824217D01*
X217951517Y-81001645D01*
X217990905Y-81034695D01*
X217991875Y-81035357D01*
X218311872Y-81259422D01*
X218630010Y-81443099D01*
X218630011Y-81443100D01*
X218651315Y-81455400D01*
X218651330Y-81455408D01*
X218651350Y-81455418D01*
X218809214Y-81529031D01*
X218809215Y-81529031D01*
X219006574Y-81621061D01*
X219374212Y-81754870D01*
X219374859Y-81755111D01*
X219375124Y-81755181D01*
X219478020Y-81782752D01*
X219753520Y-81856572D01*
X220139536Y-81924637D01*
X220510999Y-81957135D01*
X220517801Y-81958800D01*
X220921986Y-81958800D01*
X220948508Y-81958800D01*
X220951382Y-81957230D01*
X220966939Y-81954866D01*
X221312464Y-81924637D01*
X221698480Y-81856572D01*
X222077094Y-81755123D01*
X222445426Y-81621061D01*
X222800672Y-81455407D01*
X223140128Y-81259422D01*
X223461211Y-81034597D01*
X223761478Y-80782643D01*
X224038643Y-80505478D01*
X224290597Y-80205211D01*
X224515422Y-79884128D01*
X224711407Y-79544672D01*
X224877061Y-79189426D01*
X225011123Y-78821094D01*
X225112572Y-78442480D01*
X225180637Y-78056464D01*
X225214800Y-77665985D01*
X225214800Y-77274015D01*
X225181787Y-76896675D01*
X225180638Y-76883545D01*
X225180636Y-76883531D01*
X225180138Y-76880708D01*
X225150955Y-76715200D01*
X225137016Y-76636147D01*
X225112572Y-76497520D01*
X225011677Y-76120972D01*
X225011126Y-76118916D01*
X225011124Y-76118912D01*
X225011123Y-76118906D01*
X224877061Y-75750574D01*
X224711407Y-75395328D01*
X224515422Y-75055872D01*
X224291357Y-74735875D01*
X224290697Y-74734908D01*
X224290594Y-74734786D01*
X224290592Y-74734782D01*
X224038640Y-74434519D01*
X223761480Y-74157359D01*
X223761471Y-74157351D01*
X223761464Y-74157345D01*
X223461218Y-73905407D01*
X223140131Y-73680580D01*
X223140125Y-73680576D01*
X222963920Y-73578844D01*
X222800674Y-73484593D01*
X222800648Y-73484580D01*
X222446978Y-73319662D01*
X222446786Y-73319569D01*
X222445435Y-73318943D01*
X222445433Y-73318942D01*
X222445426Y-73318939D01*
X222322989Y-73274375D01*
X222088160Y-73188904D01*
X222084119Y-73186983D01*
X222077090Y-73184874D01*
X221800165Y-73110674D01*
X221783293Y-73100390D01*
X221706052Y-73084942D01*
X221703279Y-73084205D01*
X221699244Y-73083551D01*
X221697575Y-73083268D01*
X221312471Y-73015363D01*
X220921989Y-72981200D01*
X220921986Y-72981200D01*
X220921985Y-72981200D01*
X220530015Y-72981200D01*
X220530014Y-72981200D01*
X220530010Y-72981200D01*
X220144926Y-73014891D01*
X220144924Y-73014891D01*
X220139526Y-73015363D01*
X219753544Y-73083422D01*
X219753492Y-73083435D01*
X219374922Y-73184870D01*
X219190739Y-73251908D01*
X219012640Y-73316730D01*
X219012075Y-73316903D01*
X219006339Y-73319025D01*
X219005031Y-73319657D01*
X218651336Y-73484587D01*
X218651324Y-73484593D01*
X218311915Y-73680552D01*
X218311871Y-73680578D01*
X218311857Y-73680587D01*
X217990775Y-73905411D01*
X217690534Y-74157345D01*
X217690510Y-74157367D01*
X217413367Y-74434510D01*
X217413345Y-74434534D01*
X217161411Y-74734775D01*
X216936587Y-75055857D01*
X216936578Y-75055871D01*
X216936552Y-75055915D01*
X216740593Y-75395324D01*
X216740587Y-75395336D01*
X216575657Y-75749031D01*
X216575025Y-75750339D01*
X216572902Y-75756077D01*
X216572729Y-75756642D01*
X216543665Y-75836497D01*
X216543665Y-75836499D01*
X216440869Y-76118926D01*
X216339435Y-76497492D01*
X216339422Y-76497544D01*
X216271362Y-76883529D01*
X216271363Y-76883529D01*
X216271363Y-76883531D01*
X216237200Y-77274009D01*
X215586276Y-77274009D01*
X215566130Y-77253863D01*
X215454670Y-77189511D01*
X215330352Y-77156200D01*
X215330349Y-77156200D01*
X215201648Y-77156200D01*
X215093097Y-77185286D01*
X215076483Y-77187473D01*
X215063190Y-77197674D01*
X214963448Y-77255261D01*
X214946158Y-77263533D01*
X214929274Y-77270060D01*
X214859647Y-77275871D01*
X214856923Y-77275313D01*
X214850953Y-77274088D01*
X214812085Y-77256338D01*
X214811168Y-77257927D01*
X214804131Y-77253864D01*
X214804130Y-77253863D01*
X214692670Y-77189511D01*
X214568352Y-77156200D01*
X214568349Y-77156200D01*
X214439648Y-77156200D01*
X214331097Y-77185286D01*
X214314483Y-77187473D01*
X214301190Y-77197674D01*
X214203869Y-77253863D01*
X214203861Y-77253869D01*
X214112869Y-77344861D01*
X214112865Y-77344866D01*
X214112864Y-77344868D01*
X214112863Y-77344870D01*
X214048511Y-77456330D01*
X214015200Y-77580648D01*
X214015200Y-77580650D01*
X214015200Y-77709349D01*
X214016261Y-77717410D01*
X214016051Y-77717437D01*
X214019181Y-77743624D01*
X214018808Y-77759251D01*
X213997532Y-77825797D01*
X213990400Y-77836334D01*
X213961346Y-77866598D01*
X213921221Y-77896211D01*
X213921217Y-77896216D01*
X213842667Y-78002647D01*
X213798985Y-78127481D01*
X213798980Y-78127495D01*
X213798980Y-78127497D01*
X213798980Y-78127499D01*
X213798979Y-78127502D01*
X213796200Y-78157143D01*
X212343809Y-78157143D01*
X212337861Y-78142783D01*
X212319410Y-78098237D01*
X212319403Y-78098224D01*
X212244026Y-77985415D01*
X212244023Y-77985411D01*
X212175301Y-77916689D01*
X212154151Y-77888434D01*
X212146660Y-77874714D01*
X212131809Y-77806453D01*
X212131939Y-77804642D01*
X212151304Y-77746452D01*
X212151353Y-77746376D01*
X212157307Y-77737112D01*
X212157306Y-77737111D01*
X212159240Y-77734102D01*
X212161992Y-77730001D01*
X212163325Y-77728096D01*
X212163333Y-77728089D01*
X212163337Y-77728079D01*
X212165851Y-77724490D01*
X212168461Y-77719755D01*
X212171567Y-77714921D01*
X212172016Y-77709995D01*
X212174945Y-77703186D01*
X212211592Y-77624598D01*
X212216248Y-77589231D01*
X212217800Y-77577443D01*
X212217800Y-77231556D01*
X212213339Y-77197674D01*
X212211592Y-77184402D01*
X212204704Y-77169631D01*
X212194494Y-77135851D01*
X212192146Y-77120394D01*
X212201536Y-77051175D01*
X212206033Y-77041117D01*
X212218176Y-77024034D01*
X212218010Y-77023938D01*
X212218958Y-77022295D01*
X212223978Y-77015750D01*
X212224019Y-77015653D01*
X212231196Y-77001099D01*
X212251354Y-76966186D01*
X212291489Y-76896670D01*
X212324800Y-76772352D01*
X212324800Y-76643648D01*
X212291489Y-76519330D01*
X212227137Y-76407870D01*
X212136130Y-76316863D01*
X212024670Y-76252511D01*
X211900352Y-76219200D01*
X211900349Y-76219200D01*
X211771648Y-76219200D01*
X211663097Y-76248286D01*
X211646483Y-76250473D01*
X211633190Y-76260674D01*
X211535869Y-76316863D01*
X211535861Y-76316869D01*
X211444869Y-76407861D01*
X211444865Y-76407866D01*
X211380510Y-76519330D01*
X211380510Y-76519331D01*
X211353324Y-76620788D01*
X211348111Y-76636147D01*
X211341944Y-76651035D01*
X211334772Y-76665578D01*
X211328582Y-76676300D01*
X211328068Y-76677173D01*
X211323963Y-76691991D01*
X211323834Y-76692976D01*
X211300200Y-76781180D01*
X211300200Y-76966186D01*
X211295176Y-77001125D01*
X211287764Y-77026365D01*
X211260735Y-77071916D01*
X211260890Y-77072024D01*
X211259460Y-77074065D01*
X211256469Y-77079107D01*
X211254670Y-77080905D01*
X211254665Y-77080912D01*
X211206407Y-77184403D01*
X211206406Y-77184405D01*
X211200200Y-77231553D01*
X211200200Y-77577453D01*
X211200254Y-77577863D01*
X211200249Y-77578211D01*
X211200465Y-77581494D01*
X211200210Y-77581510D01*
X211199832Y-77613124D01*
X211197656Y-77627082D01*
X211167880Y-77690290D01*
X211109362Y-77727164D01*
X211096413Y-77730883D01*
X211062189Y-77735700D01*
X210512776Y-77735700D01*
X210477838Y-77730676D01*
X210456231Y-77724331D01*
X210406366Y-77695823D01*
X210403428Y-77693069D01*
X210388460Y-77676234D01*
X210367738Y-77648156D01*
X210367521Y-77647945D01*
X210365424Y-77646474D01*
X210261353Y-77569667D01*
X210136517Y-77525985D01*
X210136502Y-77525980D01*
X210136499Y-77525979D01*
X210136497Y-77525979D01*
X210106856Y-77523200D01*
X210106852Y-77523200D01*
X210106850Y-77523200D01*
X209501150Y-77523200D01*
X209501148Y-77523200D01*
X209501144Y-77523200D01*
X209471502Y-77525979D01*
X209471499Y-77525979D01*
X209471497Y-77525980D01*
X209471495Y-77525980D01*
X209471481Y-77525985D01*
X209346645Y-77569667D01*
X209240221Y-77648211D01*
X209240211Y-77648224D01*
X209240210Y-77648225D01*
X209223408Y-77670991D01*
X209198623Y-77696115D01*
X209180691Y-77709730D01*
X209128146Y-77732923D01*
X209124181Y-77733653D01*
X209101745Y-77735700D01*
X208116003Y-77735700D01*
X208081066Y-77730676D01*
X208055825Y-77723264D01*
X208011452Y-77696936D01*
X208010299Y-77698342D01*
X208005582Y-77694471D01*
X207904347Y-77626829D01*
X207900451Y-77624226D01*
X207892769Y-77619093D01*
X207892766Y-77619091D01*
X207892765Y-77619091D01*
X207892764Y-77619090D01*
X207767417Y-77567170D01*
X207767390Y-77567164D01*
X207634347Y-77540700D01*
X207634345Y-77540700D01*
X207634341Y-77540700D01*
X207498659Y-77540700D01*
X207498654Y-77540700D01*
X207498652Y-77540700D01*
X207365608Y-77567164D01*
X207365581Y-77567170D01*
X207240234Y-77619090D01*
X207127423Y-77694468D01*
X207127417Y-77694472D01*
X207127402Y-77694484D01*
X207126186Y-77695595D01*
X207125379Y-77696170D01*
X207125248Y-77696280D01*
X207125239Y-77696270D01*
X207102027Y-77712833D01*
X207078773Y-77725531D01*
X207019345Y-77740700D01*
X206939299Y-77740700D01*
X206924520Y-77742645D01*
X206913856Y-77744049D01*
X206878566Y-77743628D01*
X206871591Y-77742540D01*
X206864607Y-77741450D01*
X206801403Y-77711670D01*
X206764532Y-77653149D01*
X206763115Y-77648215D01*
X206760815Y-77640202D01*
X206756000Y-77605985D01*
X206756000Y-76756078D01*
X206761022Y-76721145D01*
X206762768Y-76715200D01*
X206764933Y-76707826D01*
X206802706Y-76649049D01*
X206866258Y-76620024D01*
X206872094Y-76619185D01*
X206922548Y-76622342D01*
X206934409Y-76625596D01*
X206934602Y-76625544D01*
X206956182Y-76627900D01*
X206964221Y-76629499D01*
X208168770Y-76629499D01*
X208168771Y-76629499D01*
X208212526Y-76620796D01*
X208212529Y-76620795D01*
X208262143Y-76587643D01*
X208295296Y-76538026D01*
X208295298Y-76538022D01*
X208303999Y-76494279D01*
X208303999Y-76164728D01*
X208295296Y-76120972D01*
X208295295Y-76120970D01*
X208262143Y-76071356D01*
X208212526Y-76038203D01*
X208212522Y-76038201D01*
X208212520Y-76038200D01*
X208179638Y-76031660D01*
X208168778Y-76029500D01*
X208168777Y-76029500D01*
X206964226Y-76029500D01*
X206949272Y-76032474D01*
X206938325Y-76034147D01*
X206895913Y-76038702D01*
X206827155Y-76026289D01*
X206776024Y-75978674D01*
X206773347Y-75974161D01*
X206756000Y-75910906D01*
X206756000Y-75437369D01*
X209304000Y-75437369D01*
X209304000Y-75986629D01*
X209311251Y-76023084D01*
X209314258Y-76038201D01*
X209318503Y-76059539D01*
X209318504Y-76059543D01*
X209336839Y-76086983D01*
X209373760Y-76142239D01*
X209456455Y-76197494D01*
X209456459Y-76197496D01*
X209521731Y-76210479D01*
X209524465Y-76211203D01*
X209529373Y-76212000D01*
X210078626Y-76212000D01*
X210078807Y-76212000D01*
X210080804Y-76211566D01*
X210151540Y-76197496D01*
X210151544Y-76197494D01*
X210234239Y-76142239D01*
X210289494Y-76059544D01*
X210289496Y-76059540D01*
X210303566Y-75988804D01*
X210304000Y-75986807D01*
X210304000Y-75437189D01*
X210303564Y-75435184D01*
X210289496Y-75364460D01*
X210289494Y-75364455D01*
X210234239Y-75281760D01*
X210151544Y-75226505D01*
X210151545Y-75226505D01*
X210151543Y-75226504D01*
X210151537Y-75226502D01*
X210102709Y-75216790D01*
X210078627Y-75212000D01*
X210078626Y-75212000D01*
X209529374Y-75212000D01*
X209529373Y-75212000D01*
X209514871Y-75214884D01*
X209456460Y-75226502D01*
X209456455Y-75226504D01*
X209373760Y-75281760D01*
X209318504Y-75364455D01*
X209318503Y-75364459D01*
X209304000Y-75437369D01*
X206756000Y-75437369D01*
X206756000Y-71562329D01*
X206761023Y-71527393D01*
X206765427Y-71512395D01*
X206803172Y-71453644D01*
X206804541Y-71452457D01*
X206859420Y-71424977D01*
X206866979Y-71423333D01*
X206893332Y-71420500D01*
X226633670Y-71420500D01*
X226668606Y-71425523D01*
G37*
G04 #@! TD.AperFunction*
G04 #@! TA.AperFunction,Conductor*
G36*
X223247106Y-104459023D02*
G01*
X223262104Y-104463427D01*
X223320855Y-104501172D01*
X223322042Y-104502541D01*
X223349518Y-104557402D01*
X223351163Y-104564960D01*
X223354000Y-104591331D01*
X223354000Y-109419572D01*
X223334315Y-109486611D01*
X223281511Y-109532366D01*
X223230074Y-109543572D01*
X215078074Y-109548425D01*
X215011023Y-109528780D01*
X214965236Y-109476004D01*
X214954000Y-109424425D01*
X214954000Y-107654000D01*
X214944224Y-107644224D01*
X214930828Y-107636276D01*
X214931410Y-107635293D01*
X214887436Y-107607029D01*
X214858841Y-107546216D01*
X214856188Y-107530297D01*
X214854501Y-107509925D01*
X214854501Y-105994103D01*
X214848671Y-105964788D01*
X214839897Y-105951656D01*
X214827994Y-105933840D01*
X214825352Y-105925400D01*
X214793215Y-105909332D01*
X214793210Y-105909330D01*
X214793213Y-105909330D01*
X214771229Y-105904958D01*
X214763903Y-105903501D01*
X214763902Y-105903501D01*
X214294103Y-105903501D01*
X214294092Y-105903503D01*
X214264791Y-105909330D01*
X214264789Y-105909330D01*
X214264789Y-105909331D01*
X214253659Y-105916766D01*
X214231543Y-105931543D01*
X214209335Y-105964783D01*
X214209331Y-105964791D01*
X214203502Y-105994099D01*
X214203502Y-107508246D01*
X214201330Y-107531354D01*
X214197813Y-107549896D01*
X214165980Y-107612093D01*
X214108260Y-107646514D01*
X214096345Y-107649726D01*
X214064070Y-107654000D01*
X213784503Y-107654000D01*
X213749570Y-107648978D01*
X213748068Y-107648537D01*
X213689289Y-107610763D01*
X213660263Y-107547208D01*
X213659001Y-107529559D01*
X213659001Y-106045323D01*
X213678686Y-105978284D01*
X213683914Y-105971032D01*
X213685213Y-105969050D01*
X213685217Y-105969046D01*
X213720264Y-105902045D01*
X213739949Y-105835006D01*
X213747800Y-105780405D01*
X213747800Y-104824079D01*
X213767485Y-104757040D01*
X213803014Y-104720907D01*
X214172137Y-104474826D01*
X214238837Y-104454018D01*
X214240920Y-104454000D01*
X223212170Y-104454000D01*
X223247106Y-104459023D01*
G37*
G04 #@! TD.AperFunction*
G04 #@! TA.AperFunction,Conductor*
G36*
X199260245Y-78994000D02*
G01*
X199285173Y-78994000D01*
X199186800Y-82778600D01*
X199179881Y-82783421D01*
X199179880Y-82783421D01*
X199179878Y-82783422D01*
X193351354Y-86845729D01*
X193285100Y-86867913D01*
X193280452Y-86868000D01*
X193265794Y-86868000D01*
X193222461Y-86860182D01*
X193114482Y-86819908D01*
X193114483Y-86819908D01*
X193054883Y-86813501D01*
X193054881Y-86813500D01*
X193054873Y-86813500D01*
X193054864Y-86813500D01*
X192009129Y-86813500D01*
X192009123Y-86813501D01*
X191949516Y-86819908D01*
X191841539Y-86860182D01*
X191798206Y-86868000D01*
X183679544Y-86868000D01*
X183612505Y-86848315D01*
X183610761Y-86847174D01*
X182162698Y-85881798D01*
X182117837Y-85828233D01*
X182109168Y-85799009D01*
X181634064Y-82948385D01*
X181642460Y-82879022D01*
X181687023Y-82825209D01*
X181753606Y-82804031D01*
X181756377Y-82804000D01*
X182374410Y-82804000D01*
X182441449Y-82823685D01*
X182448721Y-82828733D01*
X182519604Y-82881796D01*
X182519605Y-82881796D01*
X182519606Y-82881797D01*
X182654452Y-82932091D01*
X182654451Y-82932091D01*
X182661379Y-82932835D01*
X182714062Y-82938500D01*
X185809807Y-82938499D01*
X185869418Y-82932091D01*
X186004266Y-82881796D01*
X186075149Y-82828733D01*
X186140613Y-82804316D01*
X186149460Y-82804000D01*
X188994910Y-82804000D01*
X189061949Y-82823685D01*
X189069221Y-82828733D01*
X189140104Y-82881796D01*
X189140105Y-82881796D01*
X189140106Y-82881797D01*
X189274952Y-82932091D01*
X189274951Y-82932091D01*
X189281879Y-82932835D01*
X189334562Y-82938500D01*
X192430307Y-82938499D01*
X192489918Y-82932091D01*
X192624766Y-82881796D01*
X192695649Y-82828733D01*
X192761113Y-82804316D01*
X192769960Y-82804000D01*
X193294000Y-82804000D01*
X193294000Y-79117765D01*
X193313685Y-79050726D01*
X193366489Y-79004971D01*
X193417764Y-78993765D01*
X199221672Y-78982753D01*
X199260245Y-78994000D01*
G37*
G04 #@! TD.AperFunction*
M02*
